<mxfile host="app.diagrams.net" modified="2023-03-20T19:05:52.325Z" agent="5.0 (Windows NT 10.0; Win64; x64) AppleWebKit/537.36 (KHTML, like Gecko) Chrome/111.0.0.0 Safari/537.36" etag="RWzpGl7t-51S9bOPRiXG" version="21.0.8" type="github">
  <diagram name="Page-1" id="TK9b2JRhqo4q-LGQ7nch">
    <mxGraphModel dx="1175" dy="628" grid="1" gridSize="10" guides="1" tooltips="1" connect="1" arrows="1" fold="1" page="0" pageScale="1" pageWidth="850" pageHeight="1100" background="#CCE5FF" math="0" shadow="1">
      <root>
        <mxCell id="0" />
        <mxCell id="1" parent="0" />
        <mxCell id="Dp0scVMA9XSd2E6hg0yu-5" value="&lt;ul&gt;&lt;ul&gt;&lt;li&gt;&lt;b&gt;Beta Bloqueadores&lt;/b&gt;&lt;/li&gt;&lt;li&gt;&lt;b&gt;IECA / ARA&lt;/b&gt;&lt;/li&gt;&lt;li&gt;&lt;br&gt;&lt;/li&gt;&lt;/ul&gt;&lt;/ul&gt;" style="html=1;whiteSpace=wrap;container=1;recursiveResize=0;collapsible=0;align=left;rounded=1;fillColor=#66CC00;" parent="1" vertex="1">
          <mxGeometry x="-90" y="920" width="353" height="130" as="geometry" />
        </mxCell>
        <mxCell id="Dp0scVMA9XSd2E6hg0yu-6" value="T&lt;br&gt;O&lt;br&gt;D&lt;br&gt;O&lt;br&gt;S" style="triangle;html=1;whiteSpace=wrap;shape=ext;perimeter=rectanglePerimeter;rounded=1;" parent="Dp0scVMA9XSd2E6hg0yu-5" vertex="1">
          <mxGeometry x="20" y="20" width="20" height="80" as="geometry" />
        </mxCell>
        <mxCell id="wEEEaIK4-nnLEYhBBC7e-64" style="edgeStyle=orthogonalEdgeStyle;rounded=0;orthogonalLoop=1;jettySize=auto;html=1;entryX=1;entryY=0.5;entryDx=0;entryDy=0;exitX=1.003;exitY=0.459;exitDx=0;exitDy=0;exitPerimeter=0;" edge="1" parent="1" source="Dp0scVMA9XSd2E6hg0yu-1" target="wEEEaIK4-nnLEYhBBC7e-60">
          <mxGeometry relative="1" as="geometry" />
        </mxCell>
        <mxCell id="Dp0scVMA9XSd2E6hg0yu-1" value="&lt;ul style=&quot;font-size: 13px;&quot;&gt;&lt;ul&gt;&lt;li&gt;&lt;font style=&quot;font-size: 13px;&quot; color=&quot;#ffffff&quot;&gt;&lt;b&gt;ß-Bloqueadores → Biso/ Nevi/ Meto/ Carve&lt;/b&gt;&lt;/font&gt;&lt;/li&gt;&lt;li&gt;&lt;font style=&quot;font-size: 13px;&quot; color=&quot;#ffffff&quot;&gt;&lt;b&gt;IECA / ARA&amp;nbsp;&lt;/b&gt;&lt;/font&gt;&lt;/li&gt;&lt;li&gt;&lt;br&gt;&lt;/li&gt;&lt;/ul&gt;&lt;/ul&gt;" style="html=1;whiteSpace=wrap;container=1;recursiveResize=0;collapsible=0;align=left;rounded=1;fillColor=#0000FF;spacingLeft=-20;spacingBottom=40;" parent="1" vertex="1">
          <mxGeometry x="-90" y="676" width="353" height="150" as="geometry" />
        </mxCell>
        <mxCell id="Dp0scVMA9XSd2E6hg0yu-2" value="T&lt;br&gt;O&lt;br&gt;D&lt;br&gt;O&lt;br&gt;S" style="triangle;html=1;whiteSpace=wrap;shape=ext;perimeter=rectanglePerimeter;rounded=1;strokeWidth=3;strokeColor=#FF0000;fontStyle=1;fontColor=#FF0000;" parent="Dp0scVMA9XSd2E6hg0yu-1" vertex="1">
          <mxGeometry x="20" y="20" width="20" height="80" as="geometry" />
        </mxCell>
        <mxCell id="Dp0scVMA9XSd2E6hg0yu-3" value="&lt;ul&gt;&lt;ul&gt;&lt;li&gt;&lt;b&gt;Beta Bloqueadores&lt;/b&gt;&lt;/li&gt;&lt;li&gt;&lt;b&gt;IECA / ARA&lt;/b&gt;&lt;/li&gt;&lt;li&gt;&lt;br&gt;&lt;/li&gt;&lt;/ul&gt;&lt;/ul&gt;" style="html=1;whiteSpace=wrap;container=1;recursiveResize=0;collapsible=0;align=left;fillColor=#FFFF00;spacingLeft=-20;spacingBottom=40;" parent="1" vertex="1">
          <mxGeometry x="-90" y="806" width="353" height="130" as="geometry" />
        </mxCell>
        <mxCell id="Dp0scVMA9XSd2E6hg0yu-4" value="S&lt;br style=&quot;font-size: 10px;&quot;&gt;I&lt;br style=&quot;font-size: 10px;&quot;&gt;N&lt;br style=&quot;font-size: 10px;&quot;&gt;T&lt;br style=&quot;font-size: 10px;&quot;&gt;O&lt;br style=&quot;font-size: 10px;&quot;&gt;M&lt;br style=&quot;font-size: 10px;&quot;&gt;A&lt;br style=&quot;font-size: 10px;&quot;&gt;S" style="triangle;html=1;whiteSpace=wrap;shape=ext;perimeter=rectanglePerimeter;rounded=1;fontSize=10;" parent="Dp0scVMA9XSd2E6hg0yu-3" vertex="1">
          <mxGeometry x="20" y="14" width="20" height="100" as="geometry" />
        </mxCell>
        <mxCell id="Dp0scVMA9XSd2E6hg0yu-7" value="&lt;font color=&quot;#0000ff&quot;&gt;Aguda&lt;/font&gt;" style="text;html=1;strokeColor=none;fillColor=none;align=center;verticalAlign=middle;whiteSpace=wrap;rounded=0;fontFamily=Verdana;fontSize=22;fontStyle=1;fontColor=#990000;" parent="1" vertex="1">
          <mxGeometry x="620" y="80" width="120" height="30" as="geometry" />
        </mxCell>
        <mxCell id="Dp0scVMA9XSd2E6hg0yu-8" value="Insuficiencia Cardiaca" style="text;html=1;strokeColor=none;fillColor=none;align=center;verticalAlign=middle;whiteSpace=wrap;rounded=0;fontFamily=Verdana;fontSize=22;fontStyle=1;fontColor=#990000;" parent="1" vertex="1">
          <mxGeometry x="90" y="50" width="290" height="30" as="geometry" />
        </mxCell>
        <mxCell id="wEEEaIK4-nnLEYhBBC7e-1" value="" style="line;strokeWidth=4;direction=south;html=1;perimeter=backbonePerimeter;points=[];outlineConnect=0;fontColor=#FF0000;" vertex="1" parent="1">
          <mxGeometry x="240" y="127" width="10" height="160" as="geometry" />
        </mxCell>
        <mxCell id="wEEEaIK4-nnLEYhBBC7e-2" value="Izquierda" style="text;strokeColor=none;fillColor=none;html=1;fontSize=24;fontStyle=1;verticalAlign=middle;align=center;fontColor=#FF0000;" vertex="1" parent="1">
          <mxGeometry x="285" y="120" width="100" height="40" as="geometry" />
        </mxCell>
        <mxCell id="wEEEaIK4-nnLEYhBBC7e-3" value="Derecha" style="text;strokeColor=none;fillColor=none;html=1;fontSize=24;fontStyle=1;verticalAlign=middle;align=center;fontColor=#FF0000;" vertex="1" parent="1">
          <mxGeometry x="120" y="120" width="100" height="40" as="geometry" />
        </mxCell>
        <mxCell id="wEEEaIK4-nnLEYhBBC7e-5" value="&lt;ul style=&quot;font-size: 13px;&quot;&gt;&lt;li style=&quot;font-size: 13px;&quot;&gt;&lt;span style=&quot;background-color: initial; font-size: 13px;&quot;&gt;Injurgitacion&lt;/span&gt;&lt;/li&gt;&lt;li style=&quot;font-size: 13px;&quot;&gt;&lt;span style=&quot;background-color: initial; font-size: 13px;&quot;&gt;Edemas&lt;/span&gt;&lt;br style=&quot;font-size: 13px;&quot;&gt;&lt;/li&gt;&lt;li style=&quot;font-size: 13px;&quot;&gt;Signo Kussmaul&lt;/li&gt;&lt;li style=&quot;font-size: 13px;&quot;&gt;Hepatomegalia&lt;/li&gt;&lt;/ul&gt;" style="text;strokeColor=none;fillColor=none;html=1;whiteSpace=wrap;verticalAlign=middle;overflow=hidden;fontSize=13;spacing=0;spacingBottom=20;spacingTop=20;" vertex="1" parent="1">
          <mxGeometry x="90" y="150" width="150" height="120" as="geometry" />
        </mxCell>
        <mxCell id="wEEEaIK4-nnLEYhBBC7e-6" value="&lt;ul style=&quot;font-size: 13px;&quot;&gt;&lt;li style=&quot;font-size: 13px;&quot;&gt;Disnea + Ortopnea / Paroxistica Noctura&lt;/li&gt;&lt;li style=&quot;font-size: 13px;&quot;&gt;S3&lt;/li&gt;&lt;li style=&quot;font-size: 13px;&quot;&gt;Crepitantes&lt;/li&gt;&lt;li style=&quot;font-size: 13px;&quot;&gt;Edema agudo de pulmon&lt;/li&gt;&lt;/ul&gt;" style="text;strokeColor=none;fillColor=none;html=1;whiteSpace=wrap;verticalAlign=middle;overflow=hidden;fontSize=13;spacing=0;spacingBottom=20;spacingTop=20;" vertex="1" parent="1">
          <mxGeometry x="250" y="145" width="200" height="130" as="geometry" />
        </mxCell>
        <mxCell id="wEEEaIK4-nnLEYhBBC7e-7" value="Diagnostico" style="shape=table;startSize=30;container=1;collapsible=0;childLayout=tableLayout;strokeColor=default;fontSize=11;fillColor=#C3ABD0;fontStyle=1" vertex="1" parent="1">
          <mxGeometry x="85" y="300" width="320" height="213" as="geometry" />
        </mxCell>
        <mxCell id="wEEEaIK4-nnLEYhBBC7e-8" value="" style="shape=tableRow;horizontal=0;startSize=0;swimlaneHead=0;swimlaneBody=0;strokeColor=inherit;top=0;left=0;bottom=0;right=0;collapsible=0;dropTarget=0;fillColor=none;points=[[0,0.5],[1,0.5]];portConstraint=eastwest;fontSize=11;" vertex="1" parent="wEEEaIK4-nnLEYhBBC7e-7">
          <mxGeometry y="30" width="320" height="50" as="geometry" />
        </mxCell>
        <mxCell id="wEEEaIK4-nnLEYhBBC7e-9" value="ECG" style="shape=partialRectangle;html=1;whiteSpace=wrap;connectable=0;strokeColor=inherit;overflow=hidden;fillColor=none;top=0;left=0;bottom=0;right=0;pointerEvents=1;fontSize=11;align=center;" vertex="1" parent="wEEEaIK4-nnLEYhBBC7e-8">
          <mxGeometry width="106" height="50" as="geometry">
            <mxRectangle width="106" height="50" as="alternateBounds" />
          </mxGeometry>
        </mxCell>
        <mxCell id="wEEEaIK4-nnLEYhBBC7e-10" value="" style="shape=partialRectangle;html=1;whiteSpace=wrap;connectable=0;strokeColor=inherit;overflow=hidden;fillColor=none;top=0;left=0;bottom=0;right=0;pointerEvents=1;fontSize=11;" vertex="1" parent="wEEEaIK4-nnLEYhBBC7e-8">
          <mxGeometry x="106" width="108" height="50" as="geometry">
            <mxRectangle width="108" height="50" as="alternateBounds" />
          </mxGeometry>
        </mxCell>
        <mxCell id="wEEEaIK4-nnLEYhBBC7e-11" value="&lt;b&gt;* BNP es SUPER Sensible Siempre esta elevado&lt;/b&gt;" style="shape=partialRectangle;html=1;whiteSpace=wrap;connectable=0;strokeColor=inherit;overflow=hidden;fillColor=none;top=0;left=0;bottom=0;right=0;pointerEvents=1;fontSize=11;" vertex="1" parent="wEEEaIK4-nnLEYhBBC7e-8">
          <mxGeometry x="214" width="106" height="50" as="geometry">
            <mxRectangle width="106" height="50" as="alternateBounds" />
          </mxGeometry>
        </mxCell>
        <mxCell id="wEEEaIK4-nnLEYhBBC7e-12" value="" style="shape=tableRow;horizontal=0;startSize=0;swimlaneHead=0;swimlaneBody=0;strokeColor=inherit;top=0;left=0;bottom=0;right=0;collapsible=0;dropTarget=0;fillColor=none;points=[[0,0.5],[1,0.5]];portConstraint=eastwest;fontSize=11;" vertex="1" parent="wEEEaIK4-nnLEYhBBC7e-7">
          <mxGeometry y="80" width="320" height="66" as="geometry" />
        </mxCell>
        <mxCell id="wEEEaIK4-nnLEYhBBC7e-13" value="Tele Torax" style="shape=partialRectangle;html=1;whiteSpace=wrap;connectable=0;strokeColor=inherit;overflow=hidden;fillColor=none;top=0;left=0;bottom=0;right=0;pointerEvents=1;fontSize=11;align=center;" vertex="1" parent="wEEEaIK4-nnLEYhBBC7e-12">
          <mxGeometry width="106" height="66" as="geometry">
            <mxRectangle width="106" height="66" as="alternateBounds" />
          </mxGeometry>
        </mxCell>
        <mxCell id="wEEEaIK4-nnLEYhBBC7e-14" value="&lt;div style=&quot;text-align: left;&quot;&gt;&lt;span style=&quot;background-color: initial;&quot;&gt;Cardiomegalia&lt;/span&gt;&lt;/div&gt;&lt;span style=&quot;background-color: initial;&quot;&gt;&lt;div style=&quot;text-align: left;&quot;&gt;&lt;span style=&quot;background-color: initial;&quot;&gt;Lineas B Kerley&lt;/span&gt;&lt;/div&gt;&lt;/span&gt;&lt;span style=&quot;background-color: initial;&quot;&gt;&lt;div style=&quot;text-align: left;&quot;&gt;&lt;span style=&quot;background-color: initial;&quot;&gt;Infiltrado algodonoso&lt;/span&gt;&lt;/div&gt;&lt;/span&gt;&lt;span style=&quot;background-color: initial;&quot;&gt;&lt;div style=&quot;text-align: left;&quot;&gt;&lt;span style=&quot;background-color: initial;&quot;&gt;Alas en mariposa&lt;/span&gt;&lt;/div&gt;&lt;/span&gt;" style="shape=partialRectangle;html=1;whiteSpace=wrap;connectable=0;strokeColor=inherit;overflow=hidden;fillColor=none;top=0;left=0;bottom=0;right=0;pointerEvents=1;fontSize=11;" vertex="1" parent="wEEEaIK4-nnLEYhBBC7e-12">
          <mxGeometry x="106" width="108" height="66" as="geometry">
            <mxRectangle width="108" height="66" as="alternateBounds" />
          </mxGeometry>
        </mxCell>
        <mxCell id="wEEEaIK4-nnLEYhBBC7e-15" value="Hacer Eco para ver FEVI" style="shape=partialRectangle;html=1;whiteSpace=wrap;connectable=0;strokeColor=inherit;overflow=hidden;fillColor=none;top=0;left=0;bottom=0;right=0;pointerEvents=1;fontSize=11;" vertex="1" parent="wEEEaIK4-nnLEYhBBC7e-12">
          <mxGeometry x="214" width="106" height="66" as="geometry">
            <mxRectangle width="106" height="66" as="alternateBounds" />
          </mxGeometry>
        </mxCell>
        <mxCell id="wEEEaIK4-nnLEYhBBC7e-16" value="" style="shape=tableRow;horizontal=0;startSize=0;swimlaneHead=0;swimlaneBody=0;strokeColor=inherit;top=0;left=0;bottom=0;right=0;collapsible=0;dropTarget=0;fillColor=none;points=[[0,0.5],[1,0.5]];portConstraint=eastwest;fontSize=11;" vertex="1" parent="wEEEaIK4-nnLEYhBBC7e-7">
          <mxGeometry y="146" width="320" height="67" as="geometry" />
        </mxCell>
        <mxCell id="wEEEaIK4-nnLEYhBBC7e-17" value="Factor de mal Pronostico" style="shape=partialRectangle;html=1;whiteSpace=wrap;connectable=0;strokeColor=inherit;overflow=hidden;fillColor=none;top=0;left=0;bottom=0;right=0;pointerEvents=1;fontSize=11;" vertex="1" parent="wEEEaIK4-nnLEYhBBC7e-16">
          <mxGeometry width="106" height="67" as="geometry">
            <mxRectangle width="106" height="67" as="alternateBounds" />
          </mxGeometry>
        </mxCell>
        <mxCell id="wEEEaIK4-nnLEYhBBC7e-18" value="Anemia (dilusional)&lt;br&gt;&lt;div style=&quot;text-align: left;&quot;&gt;&lt;span style=&quot;background-color: initial;&quot;&gt;Hiponatremia&lt;br&gt;&lt;/span&gt;&lt;/div&gt;" style="shape=partialRectangle;html=1;whiteSpace=wrap;connectable=0;strokeColor=inherit;overflow=hidden;fillColor=none;top=0;left=0;bottom=0;right=0;pointerEvents=1;fontSize=11;" vertex="1" parent="wEEEaIK4-nnLEYhBBC7e-16">
          <mxGeometry x="106" width="108" height="67" as="geometry">
            <mxRectangle width="108" height="67" as="alternateBounds" />
          </mxGeometry>
        </mxCell>
        <mxCell id="wEEEaIK4-nnLEYhBBC7e-19" value="" style="shape=partialRectangle;html=1;whiteSpace=wrap;connectable=0;strokeColor=inherit;overflow=hidden;fillColor=none;top=0;left=0;bottom=0;right=0;pointerEvents=1;fontSize=11;" vertex="1" parent="wEEEaIK4-nnLEYhBBC7e-16">
          <mxGeometry x="214" width="106" height="67" as="geometry">
            <mxRectangle width="106" height="67" as="alternateBounds" />
          </mxGeometry>
        </mxCell>
        <mxCell id="wEEEaIK4-nnLEYhBBC7e-22" value="" style="edgeStyle=orthogonalEdgeStyle;rounded=0;orthogonalLoop=1;jettySize=auto;html=1;" edge="1" parent="1" source="wEEEaIK4-nnLEYhBBC7e-20" target="wEEEaIK4-nnLEYhBBC7e-21">
          <mxGeometry relative="1" as="geometry" />
        </mxCell>
        <mxCell id="wEEEaIK4-nnLEYhBBC7e-24" value="" style="edgeStyle=orthogonalEdgeStyle;rounded=0;orthogonalLoop=1;jettySize=auto;html=1;" edge="1" parent="1" source="wEEEaIK4-nnLEYhBBC7e-20" target="wEEEaIK4-nnLEYhBBC7e-23">
          <mxGeometry relative="1" as="geometry" />
        </mxCell>
        <mxCell id="wEEEaIK4-nnLEYhBBC7e-20" value="Edema Agudo de Pulmon" style="rounded=1;whiteSpace=wrap;html=1;strokeWidth=3;fillColor=#1ba1e2;fontColor=#ffffff;strokeColor=#006EAF;" vertex="1" parent="1">
          <mxGeometry x="500" y="224" width="120" height="60" as="geometry" />
        </mxCell>
        <mxCell id="wEEEaIK4-nnLEYhBBC7e-28" value="" style="edgeStyle=orthogonalEdgeStyle;rounded=0;orthogonalLoop=1;jettySize=auto;html=1;" edge="1" parent="1" source="wEEEaIK4-nnLEYhBBC7e-21" target="wEEEaIK4-nnLEYhBBC7e-27">
          <mxGeometry relative="1" as="geometry" />
        </mxCell>
        <mxCell id="wEEEaIK4-nnLEYhBBC7e-21" value="&lt;ul&gt;&lt;li&gt;&lt;b&gt;M&lt;/b&gt;: Morfina&lt;/li&gt;&lt;li&gt;&lt;b&gt;O&lt;/b&gt;: Oxigeno&lt;/li&gt;&lt;li&gt;&lt;b&gt;V&lt;/b&gt;: Vasodilatador (Nitro)&lt;/li&gt;&lt;li&gt;&lt;b&gt;I&lt;/b&gt;: Inotropicos +&lt;br&gt;&lt;div style=&quot;&quot;&gt;&lt;span style=&quot;background-color: initial;&quot;&gt;&lt;b&gt;D&lt;/b&gt;: Diuretico&lt;/span&gt;&lt;/div&gt;&lt;/li&gt;&lt;li&gt;&lt;div style=&quot;&quot;&gt;&lt;span style=&quot;background-color: initial;&quot;&gt;&lt;b&gt;A&lt;/b&gt;: Asentarse&lt;/span&gt;&lt;/div&gt;&lt;/li&gt;&lt;/ul&gt;" style="whiteSpace=wrap;html=1;rounded=1;align=left;fillColor=#66CC00;" vertex="1" parent="1">
          <mxGeometry x="680" y="199" width="180" height="110" as="geometry" />
        </mxCell>
        <mxCell id="wEEEaIK4-nnLEYhBBC7e-23" value="&lt;b&gt;Contraindicado&lt;/b&gt;&lt;br&gt;Beta Bloq&lt;br&gt;Ca Antagonista" style="whiteSpace=wrap;html=1;rounded=1;fillColor=#e51400;fontColor=#ffffff;strokeColor=#B20000;strokeWidth=3;" vertex="1" parent="1">
          <mxGeometry x="485" y="339" width="150" height="60" as="geometry" />
        </mxCell>
        <mxCell id="wEEEaIK4-nnLEYhBBC7e-25" value="" style="shape=cross;whiteSpace=wrap;html=1;rotation=45;strokeWidth=2;fillColor=#FF0000;" vertex="1" parent="1">
          <mxGeometry x="551" y="297" width="20" height="20" as="geometry" />
        </mxCell>
        <mxCell id="wEEEaIK4-nnLEYhBBC7e-33" value="" style="edgeStyle=orthogonalEdgeStyle;rounded=0;orthogonalLoop=1;jettySize=auto;html=1;" edge="1" parent="1" source="wEEEaIK4-nnLEYhBBC7e-27" target="wEEEaIK4-nnLEYhBBC7e-32">
          <mxGeometry relative="1" as="geometry" />
        </mxCell>
        <mxCell id="wEEEaIK4-nnLEYhBBC7e-27" value="Shock" style="whiteSpace=wrap;html=1;align=center;rounded=1;shape=ellipse;perimeter=ellipsePerimeter;fillColor=#e3c800;fontColor=#000000;strokeColor=#B09500;strokeWidth=3;" vertex="1" parent="1">
          <mxGeometry x="730" y="353.5" width="80" height="31" as="geometry" />
        </mxCell>
        <mxCell id="wEEEaIK4-nnLEYhBBC7e-30" value="&lt;h1 style=&quot;font-size: 10px;&quot;&gt;Trata las causas desencadenantes&lt;br&gt;&lt;ul&gt;&lt;li&gt;IAM&lt;/li&gt;&lt;li&gt;TEP&lt;/li&gt;&lt;li&gt;Arritmias&lt;/li&gt;&lt;li&gt;Crisis Hipertensivas&lt;/li&gt;&lt;li&gt;Infecciones&lt;/li&gt;&lt;/ul&gt;&lt;/h1&gt;&lt;p&gt;&lt;br&gt;&lt;/p&gt;" style="text;html=1;strokeColor=none;fillColor=none;spacing=5;spacingTop=-20;whiteSpace=wrap;overflow=hidden;rounded=0;" vertex="1" parent="1">
          <mxGeometry x="480" y="132" width="180" height="80" as="geometry" />
        </mxCell>
        <mxCell id="wEEEaIK4-nnLEYhBBC7e-35" value="" style="edgeStyle=orthogonalEdgeStyle;rounded=0;orthogonalLoop=1;jettySize=auto;html=1;" edge="1" parent="1" source="wEEEaIK4-nnLEYhBBC7e-32" target="wEEEaIK4-nnLEYhBBC7e-34">
          <mxGeometry relative="1" as="geometry" />
        </mxCell>
        <mxCell id="wEEEaIK4-nnLEYhBBC7e-39" style="edgeStyle=orthogonalEdgeStyle;rounded=0;orthogonalLoop=1;jettySize=auto;html=1;entryX=0;entryY=0.5;entryDx=0;entryDy=0;" edge="1" parent="1" source="wEEEaIK4-nnLEYhBBC7e-32" target="wEEEaIK4-nnLEYhBBC7e-38">
          <mxGeometry relative="1" as="geometry">
            <mxPoint x="910" y="430" as="targetPoint" />
          </mxGeometry>
        </mxCell>
        <mxCell id="wEEEaIK4-nnLEYhBBC7e-32" value="Balon de contrapulso" style="whiteSpace=wrap;html=1;rounded=1;fillColor=#b1ddf0;strokeColor=#10739e;" vertex="1" parent="1">
          <mxGeometry x="710" y="410" width="120" height="30" as="geometry" />
        </mxCell>
        <mxCell id="wEEEaIK4-nnLEYhBBC7e-37" value="" style="edgeStyle=orthogonalEdgeStyle;rounded=0;orthogonalLoop=1;jettySize=auto;html=1;" edge="1" parent="1" source="wEEEaIK4-nnLEYhBBC7e-34" target="wEEEaIK4-nnLEYhBBC7e-36">
          <mxGeometry relative="1" as="geometry" />
        </mxCell>
        <mxCell id="wEEEaIK4-nnLEYhBBC7e-34" value="ECMO" style="whiteSpace=wrap;html=1;rounded=1;fillColor=#b1ddf0;strokeColor=#10739e;" vertex="1" parent="1">
          <mxGeometry x="710" y="465" width="120" height="30" as="geometry" />
        </mxCell>
        <mxCell id="wEEEaIK4-nnLEYhBBC7e-36" value="Trasplante" style="whiteSpace=wrap;html=1;rounded=1;fillColor=#b1ddf0;strokeColor=#10739e;" vertex="1" parent="1">
          <mxGeometry x="710" y="517" width="120" height="30" as="geometry" />
        </mxCell>
        <mxCell id="wEEEaIK4-nnLEYhBBC7e-38" value="" style="shape=image;html=1;verticalLabelPosition=bottom;verticalAlign=top;imageAspect=0;image=data:image/webp,UklGRqDPAQBXRUJQVlA4TJPPAQAvlcFXEE1IbBtJkiSEpm6qBqH23+Cnuu/OgYj+T0A2W+zLJombV4IWKU+TRK1l8wKBCvK4EVnKM8AefvpMTdqkow8OTJokAx+U5nqMdgt6ZQfZA24Y3J4AcusYe7+NZL2WuaW/H43J92jXeIdEx1aLH5MxDl1PpiYZU+fawCaSJAP1yhs+PQ0c3Kd+Eq4WCQjQ6IVJMuDojckOgDdEzk0iwMGdlYQ2KkA4lxQoSY5JuexFC0QTj5PecJI/yfdoQLnUVomL5KvcD470tGCuJcidCmHx6Vg7+ElpsyDH6f6Uk6vN4joBPu0C1+KPniRXv18WkLUQadldC+f85pCnYUGniQ72WEIz3ZP2VNU4x2B7rinMTJ42iiYqT/NHC4G5JaRiW2WzMNsDHd9atnWaHo45f013ytRZGCNy7Y3mEOagbe9o5ZjHHGOYuQcsj2Ox1oLfHmPOOTPH8OTesVxnwoM5xmznHIurTed5jQVPGGNOYCKyf/E5xlqy22p1fo9GSLcSHXNOXUP7+/UmaZLvt9EG984e0a/66U6SJokaBR8kMXktqbK7cS59ctsW8C2IbyQt8g7nvgP8XmvXe/rW/T81tG9V8xLyF7h94/IN/sLtG7P/AfZ/4F9rq9rzA0Gg7YKWItmuJMlIRmu1/zXMEvpztNbyjM6WcymS5HI5xM/LynxLoG3atiwJGo5t247j2lJIUf2tvv7/a+qx77uQQrrCFSirti03kjbCZN99Qo5rVP8/7LPPR5CNCIw5BCJ4GCEuRojL43Lo/wTAvSM0zH0OuKOiCdjVlFkGpk1GCsGNqMyAAgNhacW/ziZCN/kYqsCQJUpYIjnl3S0A3oAg2y46NpAp/dwlbgKDBlCqpLEc0ugGFzwHCIGEETDa0PVcn28xCFshk5v8S0nJChlMY+gGV4xJIlBldC2tZ/QWGSlcdAMlQjfdHvmn/HhCP9DQnpxzuzrTycBVINF/WU01fdZoYNA57ztWSnHEVRpRAANFrkIAn/gh8G76NezCIgfBxaKi87xTXXbr8SqKHcDLP5ZKKwJANrVh6RqFwPYwtEsARbPUmZbLch/SWLIElozZIJMMqKLpx3u72mNM9vmKw1bJtAsgE43WxJkQQmpJnVPOpvtKSFARtFlO8JrKlecO+vx15xeFl9D7FZ6oAABBAiYT4IcWx3NKfWhbHr7PRdB2AIUEADRr5HKJCsJZtmsz8EXLHk+uS5IhoGDocDHYhQCG6535uTGeyxh+xDDXH7y78Iuwq1e9RACqhg5bjjz2xK3ZcHgAAKbr4c3rr6HABAz38hAuwXu7EO70rBZ7RsaXBIIf7gEAdOJgzDdP/oYAqVoCUHmH5nflieOAri9q0gAAcFBAeEU/wtAwxsvwvbVdBcIeVw7n3BXCpQHAF3rC7pTZwj8dkEiswW1zQJnIAywFCgQARW6G6arQF9AtpnA4mBdm8tbrAMG0vOThBXtR0s0A8MW1u9q1f2E2bKgImYQtu+HJGoCJYGAgCI5iQ9FRv9MlKEoewifS6mf13W6WAN15yMF9c3O9nQGKsB+eaGGTo/+Ai1fMdZBVaRxAACBIMAQAgK+YgGCpL+gR8Rg+EaIak7EX4wziKIol6ToEADB5IgMKgaUztJEWngc+xQJAI4wBYKADKwGWKioqj5lFIS3oJznpheHTOB/OXc9HM/6BAApRi0GRMoJZ88zdVl6E0DL6xrgxAG6CrZ1+A4fObuHQd/TSLugEKUSCoM9u4Fw4jKuWYTaAo+4E/0TIyzAe7Z2Z2YVmFw2yl4MG0BACHQDgBKEfKBxx9CV1SWaSVqoUXSegArX2sRodpHsZwLX8BwawCvNP6XqGJM9VpFKkoAcAoAUIgASEHvSsHBBGqfvlusY6ZdeuUFCUcb+OdQmgXAvADXhl3wFMUeZaZPw61ylVpkllQXMkAUQAAMIYIYQEvUbPbFv5oZe3tm89MZ6ZGAnYGc6wPqiBARiAELhKeHUq97C4nOuTGeYu3bVxCpIJ2wFhNxBCBLYW6/ToXW993ABC5gkceL4g+xHO9QmpMgoAFNjeQMtyh+XJmF0DvZBK8Vz8oaTs4Zw1IzcE4R3/GGMPkjasTuK0oj345a6oSF2sknSiXGZnP2qhrAQYFOQ/XI29lwJkmQy/UPeiFykk7eE8a/oHggKAJjdyG7ZNGpzYykxVYhJeOX45PihEGchhPKlzZrCaayIAEOQfRGEKq0OVYN4X/eX9Q0ND5QtWrOlLEAY/GGMA227eZw0ZtrIm9SBfqGfmbj4pa+SUIjQAAIPPyxjjhlkCvyDC/oUrUQRnL6RLQFACAIaOfVg4jDEyy5Kqw5YS00baQk3mVmRFHPYQbPDpcD85nCkQIwrPus5RLjMLjF0mRggXw0IBAGziNrHefWhjS0fS0sNarDHOOYawTQpNPWQe0+E1xLjQ1APARSFpl+xL4g+cSxTJobtwEcAFDHNn/kEOmssMZagSNpClsMk61DObTpgOe9i5gMMNoJCjrNFrs/bX/CgaJC0nUUUARRcUEARAUV6EsLB4dlj7ach4AkUa16Jrb9jBxf1iG0BRhq3JrB57V4qTOMkBwzOAsgIAoEcP2Gk/hNLuNFgGy5YtlQ91yJiiik52a7f2CwB22efDqDxxI3fkZmGeFAr1KfXEQhvuuZjGUh6jB32nl6cjcYs3AIeo8qXZ2qxSTy5tXcggv5EigQ5l5SQphgYAhSsAtGrQ9xRMiIJpyyQoHzyOadM2nlwzS6Nb3ftzl5YTP+C31OHVOsqfAI2iq7Y0BKUFNub5YNRyjYQd6RIAzRPZ/IRu2lIgELVI5x66CwA0AEPb4wcKJpEj4nQX3sNFWPmoPYIYeJfSMgHDjPO+ON3YgY5l/u1DIG6mi/aATOa8GINxt6RiYoejxM6rzDj4YY0y9kBZ9LixGYclRy3sMHRFaSdrRJFhPfYoZFCUXD2FTPu4dogyahK7qEF4aHs8s5kF1pqHEJTYQaFyyOWGinTp2IM0w461o6LGF2IHMMfffi35jCZJ3NgjsJX9oREqgkF7iNSNfZD9lg3Y0yqrLEG00uEHsUdYiXpO54B9FeWflifSEojYwUAkmgi160YdENpGEiRVEv6oZ3ZvX08gIiZgj1z3rWXyvCs0yuTnEXb6Kx1S/YR5mPvR0ip+s0ql/IEqEcu9JxDA4hXIXWu9ttrYZvLa2KPl26VyHfmW5KXFSwM60XLPtaUgVPmMgoll1Rs3ul5eIltuo+sFQDcTLMvk0Y04vXBRYxRnvdK2yQbUzAuDwxMPO6YIJKK2cVM6MpMqchtCbmWVHlxHjoTeAIeBgdWLqTWKkXoJGFZAbVyGKpYByUwyPbA8jO1pG4UJdXThJrPNAg+QDRlmlVVa87aZg7Jiw70ou99UBCjsFiC3YTk90njYsMqubjLoYgLKOx8YlbWxjTyrAK0eZuLhJlrMwxdlJ8lBegk2zNtM7a0S13mxgiPGganiQ+KNi5e9mxQMS/OHFKocGvPAWTKs1HhW0mk1K8ZNLYVL4QM+VnbxGKep5sg3Z12y3MMdyzPo3TyoBHg1riKmb64R8tuzfnK6gXwCyWf7CPtOyn1j+U351Q6+sfIbjn2E8VH8hV851X148BnKZ/4HPlLiL/hkLvzErV2x5v8vTbKb//tWS/K+mzoxJ+KUnJCp+b7fpafrPaCr/3VO+62Dv1A5DPLuOGQqeuB5DIsaHnyzMW3Biwc29MGdQnkJ5lLTpkXbu4cWVQzekFPYhoqKSrDpxHDy8EYdgRMYeJuOoaAvNa08vPHd4xD2LYYDfXOYAJyHqGIoqk6hJw7FcCMQs6gF28zl3R7mx8xDvcZguG/YcFIoOkNFKUaypUiSIn5m0zKj/pKtBLx7l5n/SXAkSZEkj8jqZYb/P/Fwobc7MwQCKWyxJ4DPtm3LbdlWnuf9Wuu9j1E153LXjbv9DfsJZByElrq7W+SRa+bu7i7b954+Z82qIb239r1P0Hu10Xo7xujxHe7C3QbuhDMchdde+MB5wxdnNZwZvjgU7rLdd1oLbxUOHEbYZsYbcTC/EIcW4e6wpXC3mbYVNpyO03EaTsddVg9wi52OUziF0yvbHaenY2Xrw6kQlxHg7g4j7fgYaa9sdXxUOne2Ppz5C5AlA9dtM9wVjmNnvdIRvjhV2WaHu+OQETls3xuHqrDSfuxs9Iyj8IYzt+8Id5cKcJg727XwUfggmy3jGOMgcpgdZ64Q90Woa61dx0G0drYHYYUNpzpOpZ4kyVZt27Ytcy+19THnXOswY5A5S5gI5jTxueErNwk3zrxk7TnH7L3V6u5bkiRLkiTbImZRM4+oW/fcngbmY+bH+vpnM190q+wIN1XmmAB/EIAtvyRZyvM87/t9PzuaJ13Krbt6unuqZ6bHZ667zI113N3d3d3drrvfO+7a3dPV3VVdXV6VVVlZlXr8Z9/3vc/zR/fNyeqonr9ffBJnfbc2epB1b2Qian3r4pM4P/wXgx+cxn/ru4W71B+9i8+fNcjEZuHVeCd+Cr2/WJ8f3ut7cKZx1vdKDd4XL5yzvgdZSZxs/OAkzgyeRFxft0ZWan0bp3Cy0Jvre3Cq0fvDKXxdiqD/WXeXxMn1yvXNQifxTHyq8bMR7q4dsYWvXelCJqILL5wsnMR/OJXo4DAZ0ZeIWXedoAed3kGrkQlq8MSpxCn84HTiLh3Qg88Qe6Vx5v43haxU4dloH5xOnPVKnO4I1t19Z/DGZy46iVP4ueuVOIVG8BYASZEkyZaIqJp5RCRUVcNM7xxmZmamfziX7/0KOgx/cfm+MTMzM8MszPJsdXdlZkS4m6r4FgBJkSTZtkRE1dwDsqqGNjPz3r+2n+Dg4GH+h/MTTI98npjPYmiqqowIdzNViQnwRv//ul2Opfz0b9f/8uu6/b73fd/bpbaVe1Xc097H3d3d3d1Pp13TkdORjnSlIlUpr221/d733rfbdV8uf/nZ2Kk+Unl+jU8Gd2nWuLvP4DAuwSl8j88U7rLHZ+oZ7qTPmuXuUo2nD5ocdAffOGyc8Slk3N3d3a0aL5zCSdDeOME5wYPDuPtMGg/uVhm0Dl44Hbxwxt0Fd0uf8eAnjTYOybOTRiu4W+HurlnzyKVz8PHJwiu4y8bp4DrShTPux7IYdz9+0ngxnuLRLJ8JDoXbsbDWuCsO49M5eMYnwQsnhfZptIO7O+Pu7i6FE7zGpwsn6FreaNs2bdu2taJaa1PnwJxjamn7+Dx9tm3btnGuDr93f322bfvp2r4He5+191yYHOijq7VWVYqn27ZdW5L0Zs611t7nnHvfe2bmMiIT+UGjBhQ1QP1fWJUZyk2buUekoOa/0aJElthYhRYpIsLdTbz37j1n7yViAgygJ+mGTsmIhHEekSQICbgALAEAEeIQpZbO3aEBGmdgaFIxHEgFIZAwJblCjILhxfAx5E5+Bz6Bg2hn4ATpIQY5ihwL7EWFBA2AEy7yRBsl6xoyyMy3+/O1hu7U+6a0QTbWqd9a9QhSEmkVCbQEsC3GIqEcAiIOtpsC0Zd0MAgBZGVIUKpzJNNZxuB8xw2AtB4DJPz4x85tE/BnUg3FuD805UCJAhojSRAmlzqcUHJUSAWBJwLZ2S4E++jTJcGm0IQzIaIEqAClQhNgKnzAp1eyxQxC2MwocJp8MduP/pQIAUDIACD4xvk04GCM9x4JGyPANLGMD1GBhCebB9ogocoQ4Yqc/ERI5Q/utAaWiZJrNaHxlsAICmHBUaVLSyW5NRR5SEYCwVFrUYaMgs+iZsAS+Jlg08qVpWlsnq/yhpxv9ptykTXm0EUAANhyHoBr9QDCANWwoACp4AGgegjUWEdKA6+GaingHg0/4D4zr/j6jFp77h1aJyIqXcrplBNvqWnIBJnSUQYyNASImC0DawOFUZBw3V1Li7EZbRFjChoYpk/moVw5g2ROgwI0sutm0OJOeejhasCYU0MKeNd1VAxwKACwDoDLYJrGeACoNquHrOul5FMSzGnxsf5lLK66/VZS1NIZ59RsgJIqSEowgUq+1tWT7KkyUPF8asyG1AMQhnSJK7uTG79tZ10BrW6KkYQtM1+QxfieaiB3jBRVu1tsXiiuRfEzFnXG3zT2SDMPL7hr5gxMmqANmyIDkGQAfBMAqjOAEPi1jwg6zRkTd5ks57lcO0xe9mNNyzIxlaZURTAmsbiU6suwtrKKgfVKMXbkCtEloDP4TQK0zzt+676A18tDQT3qLIGxXqzWeCZr2o86WlDA2u6gxfZhToAed5Qoau3YA6B0uYmD8YsY+so+Je6mpZ050NQXqUKxpODiXHdc3xkjHRVuhl505wGk3IGFTt/kVRpygXnpg7CvoIfgWq56gL9uwdoIiUsiQc7qpZIwtAjrroznh7IzVNTOgqEM+pYQetKtvv1Dk7u6MPPlT5If5SUlbF4LsioWTz0Lne8/FRQBi/GvEb0Nrluhbwljjjkz5zJv4o0/D51tmUVdMypUObNzXqNY3T0kvZR5bbJSXYoBSpIKHikkNCfYXk9fARGSH90K7qHRuChJEj6RZMHGqwCslGMHw2z/yDpexcvLor416YNDezSWs4HtVLVyN7lalS3ts19n92u2nwWlCfkKsixJ9qKLPOtqYZBjgwdm8J50x4TvP8Z8/9j1//z+ev/T773tf8Iz/ToFDy9H82DMGRBEap6eO294rzkFlXpEhDhJmSj+QGDClRTDJ6GYjO2zX0L6cFnbcO5CzigtQLq1tb16FFRIU+hSVZUAbESoy9psNmvHxnpf8IIZMKCjWxbE8+9qPcHDl7zMq4tdiv18EjY0G02YWhAtKMxAmauREVlJKLcXUpnH8qvHavR50qZk2y55sU+cj1kzrWzAFORSI+fE/qhJ54F0sYKgTa9Tpv1hL1B42scJAgBZvV94912pGAR0ozz0hIeqdQillAaO8m75CIWVdvbwyiHCXOK34VlvCIEBonvbLxHryCMkIjW3Ql3q3R5Wf8PnZ6y1VoCnJfFJM5ojEu0ERujFQC7JTdlXUv/COtEf5diSY2xTgRJy9+zdlXYUfRZqamduBEgEYh3w3rgTr0AOrmvhFVqf8fwdHifmCz2l9unjNrtR+2P0z7rHYr30YqPr5WyLdX9iP2j6HXhjJBCpQvBpH+nqGten4besERIjzgRcBdFf0AwwwF/zvRTFX9sjHLsYsQ/weQeZAjNNTIBzAVnotu3V9WXgI+kyx2JnsJ0h62Rf1NVlbTH7tKTMqQkgqBUpGStluUr7Jl9heIXoGq1hFlMrRZUzVj0WOWfsFOCkpEQoyRMprzdnZYHVK0kiiGLD7pU03GDgYhs7bDrmwxovXR/O/y+HnExCH43LVp/5856XRymcM7PyM10IRxEqexPOAPZxNR3vVKmC2BvL4OJeW5Hk1V8E5UA+Pwv1JudA7T4YyMn2d/ISCg1gu8BxEgnWJInQhO3ubgWIE7+GDlIKdTWrJdyeQ8kjM8uWWXCJfUNJc2xxsCKsO/iUNdVmSdRlHZWqidL+JbrPnDn3tgUHVlrDnMIbgoXMhSO1ffpV3dmNgyStAaeyEHhQmYPV+tQs0yKnLwhdaPHSy0J5KVMXh83dq0/w2CvfcvjHNrvN6Ox4d/Tsq1LGsqmSaCBuclEO7Tfxolo2/Jldorf2D5CvAtz15CIHKjdPcrNEx7LmZT2xSW8zMsxSk8O/wkf9d187Htvs3/UpP7vWvQuktn99vMhw2mMRs1MhvWReRdOHgrdUb3iAt9EIp0hNQIcMC6Mtx4/TLpFoa5c/HNrDBjfGgQYhAZv7AT/8Aj//A7/gDRffjlrWJL+JdulF+MuPZTusQqEB9wEQQmExm7tRpaMSyod0JrPyFiyoVrjhiTq1I2StzaU3vXDVK+jN2e1aaNL/4iEcizChB5lB92WO+1tcerK5rn3JpqH0tFHI2qnwuUBNtqE20cte9hZenJdhM8dLza6MeIgmrl8eNrDe1fcfOFrgL2rz68sr/csxtn2S+86p+Leofv7CtePDjtuWu8lF3b3xEK6scp/ISxCxAmcA5YEKCI4o6NB/kUNc01B52vAXM9Lmxdt8lEsfXq0P9e9Hxcwflt3/+Ve+Y+t9vZhzdXSN0eEwBO6jQC2DzTZiUcoML0QeN+caw3yMZ5yf04/DEaIQLvke+PzG243v5t3oVm7leTt6m+rxO9Nva4dFaQAcAWg2CqDxUVCSlFRVGBSlkkifiLuWB8/VMKI5axE1r40kFSqarbF5wCZBhA+8DUaAQLeofo4KwnJUQhZV5/oiZBAohU2hsIdkEKumx9yC+iatZF6iYAAslEVRSnS9hCMZzUeTFufKlHpHYSYBFDSQvclNfcuipTkykypBGrnP9YtVWBKc80DtJkTUMKcwl6GAlKFaw6uLP1Tt9ohdyrKLxcj5XSiw+Flr/vGX+N9MK3woWkbb/VgvwuYsQ/YqBGCKyjSOGCDuc3Tg8GXuofmG/p3/RHnpO1yAttE8LumHuwo+cOndvXgPXvM2T5+I6vq2cZERdlxKKceLGlmmdnSOuvgev/OGwVGhKpAXpE8TsWbgLIYLoUYrosH2GknHX0UFSDgZKCiFIBUL9/orNh7xZcGQno9cZlDZRJStnPY1i4puRKWD0cZCwgyCqq1SKYuuVi4ByZGKoQl0mrxLKFDnvDY8eIG9SS68yVkANI3pc/Q9BoMFnVgpPoXHBSFY+IJmi46tUgapQQycZw1cRaultdmtHfV5g+fDWT16uAfGPfbweTR5E0FILLTrZuuUX7CyZMKRKkk7dOC8rdR9AjDwO/aP/4c7/d//Mz1AJVZ7yOf1t/rAHuft3Rbztllvh3ha8IXR4HaRSXdQMY5yDhCqeXQvrZWlfGn7fqVv+aLK/flvzCbIWnCY8kNDvhzOfymw46SHiJpjlBImDKQ1cAUEchYe1DDARxAN3wtjgJzENYHKGruuSpLh2gtLtCFWGCqoYdJIVRQYFBiQQjVJDUkrD1Wmnm1RCWWkdDmD4W6zzMBNMMJHrEaax0MrZIAEBTZc7FWecLXUDn5cDKchks+qChWVGogSeBXd4ofmU78tlhSDM1vdhyXu+tuljEuhszhOuUIfdjVbEAmq9SClCABfsgz4HTb8MobO+0v7Czbj8KG13o5DRjMLplfKtw/TxGbr+cwXMQfw8hMyVX1RLOwzs7rsoAALmBFyLARpMkzHY8J5C/RJXTx8u0ze+9gmSZs4i7RarbU2m81Za494zmDBbUMWxlVoxOvBPRQXpIBUfidHOx/EucUmO/R9QOVBZvz6f22wwB7rTlhpCQTnbjAf9MyXlnZokSxwm7AE7gAsmGR5Va4IxmljFhBrT5iKiJtQaQo4SfZ0z/jakdapZ/WLvOxiLy62q9Tz1/C4IjE+OUCfQjgazCXgoJcUl0vRQSPjkshGbkG1mSPdqykTwoN7qRJhKiz0cJuWrCTmvcwhoSBRQocgdD0q35m1ay4r/nK2tuocfnR2qKAh+iPp3MazfYrzr1M59LAYAdCRsxbBR9WODAatudbS6vQkohsKA0mfS83G1l7Bou86tZ3TTADRJNhhs1lwCzEta3PWthGqPmUCdb50Sqch7/kFQPDDIEMEWUsPxR/Xbc8idlhxiKZf/1caBWYpRfJxXyFhpvjZeu5mUTlZtiq1W1ZQc1UXp6sQw/SR2+4dbazGFAVILwgBAu1N5DSGnTuRxjKnhajDyIOPfWNf9BVNLoKW7U5zaCnAJrAk4PDHm406EgQ4krqxtQ6oNIbtCnVV6uT661SGSwnWm09FOGf5eCZu4Bfos2s1TRcyJg0F2odY5BSQ9BLKbZhLZD/NyitJfg/RzwYblr7SYU1wj/j/RRpeVXDNjoGZBpt3sDgBEWFF1uuKYIcFlyHRUffcVrGOy2B0GkJxdOzkQVuqy/NLYYQeavYBmBIXsPs4cTEaawnWXYt3mSfSCyNQN+k9qr6JoKXE5IPyRo6FJALqgaBKIIt7XKefYkLybOVwhx0naSy2eo8GnumDXkYM/IqZVWfDClykpVvdgsNAS0pQ0/Kl3cT+HYRWw4YFqoTBg4ephZtI8P7ozri9WWkHNgFBIKQAN+hgLuHILcxtWl/LLtaj1607vJQRgBAAKFqkFQpKbgv44VC7wwgEnLDSLxfakUbB4I80OfF23co1WD3+kstTobGHoayE6neS/qzt/amNXSBeBpou+vCQu1TQ+x9cA6c+SYVlS/PNLC/mAS6+8hnM9dWqp9O7dliCAScyBWgVT1PVJbyXgB5atWPO2lpTf8jjXNTnRfRm5qM03pMPSWEpNck8RRXaTpk6l9oz6onrPmJb15g2ZevlZdnLor4AFcBEToTwl3HHoTgyaY7DAF0taWOfMWbGUaLW1+skzfOyzCF4rVy55n7t+B56160WAXk0wpBYrCnyfF3Ri4ceaNz32JtMR+Rh8SaSR+pnleQ1dUXkIkQKtpkyXvZpIBR0tZpD9PaxoCkEXFddpwDgQFWRvMMfGOaUo+mHqa1LSCLQgF6r6HNMybvTy6X4NhsB6iyxUNaXkpa4PNNtCn8io5/SuC4ZZ+R+9wy8V8lE4BASwIMXJNOr1WdFcp5FPXMa1Ppqtfc4OuywWu7PF40KcxaEnu89kKoKEnvOym3iF979neO5vc/tuV5MWOdN/ZwkqgGQlLCES+fAEpQuVYtTDJk61mOz/Bmvgd46uNv4cCOwjyfAyltxVIB6Q98XZZZ8bzNOHKo2xAvp5Cp5CtdqnuULYeHMF7nApGZUQKkjYnerimcEENhH/QUR11MGr2JFl0saNjVl+nyyIQ+G5uLWm0QpIkjTdNPpiIqlbAzT87r3Sz5aG2FivKR6plvfGNvkPs4l4Os8/E6/dLqHIwzoMmSdt7DJjioBUOtgLbBL3wcG2XDwEp1Fwcab46+sKfqf7Ip9LVELRjhplT0INmVodejPVD4V1vNHLUFRw2OPl1Q8gBPN40fKI0Nj2VRbl/h136FatdhhC7KMmJrsJx3bOdZRRQ+2DbvhvEY94I1/jm2+kJ0lH/Z9Dn67v/iPGYfrC9ieU5PsP2DMW3PH01EFdODKFR7dsavH60O5rCs8+p26ocZ711Rpn6QBC1SQyEBMrnU7AggIeRvF5bBdnpN8HPpV2sVY5qaKFVRX1lrObfNuju+uaGAl3moO2t8XJhXhEK8tfaDTLxdXbTFOGHiNU9QiZacUbyIB/jX4zeW9CRerc0vH9kXvX8a+XgzMswfxNcnNEr4gah+X+8wY7oQA1R1RRjQdGD4b52wiwZAEyrMk642vzjd/h5FSgbcPSC+lz1XXir/mVk8o4uINTMJN6+ddTJlmmspUdb25uNfkA5121Z24YDSB5kS1pEvmGUgZGmd3du80Ny+pEZ/piEOs2VElaTrT0RgvU37N3l7/4ibQIzfi2df9au34mxX/HbE1GtrtpTSuOGPrH8tzmufiYTz/l09e25cYA72N06CQ6T7dIBB5jc4nUQ3uesSxXmNpj3sBjd0geOtBBygUzJucfjpgKhPkSFe1wuWyUvA4LwjrJgvSkrmTLN/yMiSbtzOo0DFSC/qAsk4HxkJBk5pfNhsUiCSvxj6uMgXjBtv/jGvu8OkjgLhJ5LHztvvjd816Z7SnhLxYV/s8r2jAjMG2Yd0vs1SCPn2iGjQ07JY2YLbuNrKW2XgLSBDCMjHGhHSLdP8NKPa5OIr/AXMdKIgB6tYxxVDIC+aGJ6au75HG5pNNrlHKwjrjLdWlkaWa/xjcVFM3VBdOC9CQQVclvhuSeTL3tk4CAyPzZ2jVgkYA/IqhFbCSPW5H1UwESKIk7ry0+r2Sd2wkpR2Szeohl6765Uv+QMb/8L5/WdTjMQX3lbJd7CjP/sEv6Gofwnfi+f3blH/qjY8Yj0xkjHE8JvydxbmXMAqrRh7i+S7QV77lLvd1wEMsCljaChnAGkrBUz0A5LjecUopxXGLRpHihIs+WBAuDR28oKkcXVk28XV2FS8vjfdyFoBeixay+tDmpoxMECsh4xclNxiu3tKGM3zd3WnStrS0WAnCEkKcGEUGihtMaOTAGxkIf3id859U+j8Rw7+I8D+3tH+zpP/lffgfD/+fvNrfM62JcT1G6bRfecqridjggzjfgt8gbm7DveGNcpfHQbPeZ2iWuvEwvjL9ivqPa+K0Vdq7y/7r/gucPtgjeYmfO+v+J8z/D1D9j+zTfwTGfzea/n2c/zF8L8u27g5eP4rKTd8rZ1UVI1Xbjsj8wU/+/2n0LKfCC0p5O1RGtJ+zvv4AIGbL9zrvP5DtLZ+e6PwllafHA+cIHvH5UJ+hc8vj2kFZAUEWA3f66Kc8MfrMF7iuWLjO+YUx+qsMfjFyUYu/W/Jvpv36S9d9wYe72mf7VcvD6M/yubXHVvM/XnL8ar/hr8YSpwIDEfmpVu192FzSTlfRcHXMeDUvTMtWQwtusnMtj/2P1n6fd/mfPfzvgIfn6rUi6NSj/c1Tcr6c+uXt/D2Y8P8w/ROQY5M7+WUL/9bfLfsNKnsnILKUDQMADvQR1hTlZSvfANxJ9h/hXvPPyf7HV0FH0+vHZ1cFLza+DL8J7kqh8C6STWuBKj+btNdOCmvzeQI2ag9yjAPOBfXcFyRNRKF+qxyIWd5uq4sVXZ2tz9jq8eJhz0JDlj9Xfgwa6EJ1sDGYfj/vkAPx+AIzbjuSHHysdvPaFBAcNV0v9QCJgCbAiQKB8H+XVgGlq6ZIZ7fZneYlxtxp9njGSaLhqpavtIP3yVaGNf9ba2EnmqPS1ADAqBUAcCziMsK1BBFS1LADrvcVoCFX/Kl/SLKjmrbCYvjt1Rtl4lhYanG/dofloLdSC8MyOMLQlJgVV8ZKIpv9FfwEetJX+v8Xt+beUecebXgyDpsBbZzXOk+7lbaNtw8z0iCY9U/WJXzZ5/Yk/wz6/17rd0CC6E4Y4WmsRbPTisS0e+lhvw6hIr2leUMk0fjFM3iYviGNvDidGABN1BhiOeGIsOSYF3j0sr7k/xrnTzZ8G+dErYU06lUWIWchSZiEAi4SMcXAysDi5CgGRGBUFbZrjJE6Stuc2WL4FPwkRx7jBqttoufqnLnUadsxb7jO4UfogrUwGyV1yWyf8AYkrNhTwA2BeX9ab+YumP0+PRvJkQ1mRK4jFckFEBBSoQn+v2EmtP87oPSUWWVLGptoXYR7PI6pBTxdh6rsTa73CjblkBX/24s6AxH/RAQLISN5GFiSjifqMbVMgHrKemByTXlDXyzvqOzKe7S5xjBp99ZgyanYom2tiPEeJjpBBBpDVX5a0ofo4x8o/PGYXweF7dnd/RiNH4asuXgGdPOlJ/gU1JPC5WsASEtL4ewhPMwsjyLnmr9wVP/RGSQprEdh+ov+OR5F7SUsAcuk0mo5wmk4JXOTLPH7h5yWaROkpjFuswoAfgOBtObEQJ6DXiX5xdo1ReDjvBhVEnnBaUTyhEeQkV8vk1PUQquAQkjzEgkmRX5u/u3x4Hay3vc5J7GrPBi17Kzm5EYtxiIE/+bg5eVxLm3WZoj+8eG6PdsMjcorrAWxOFvgY4HAwx+fFZkFbI4ctfHpNlGCc3AcCpM5oEQMXHu6BsXh/8Z96kxLosdsylefZntedWEvov0qsrg4o6y8/xQ/qn4xoC9v3dBfvSNVXp+PtU5A5TQ+AXwu/EwAKoNQCaf5Xt9XofoZDuECS+MdlMBkHh9kzAkDWyXiD7gUZX22zatwtm5HQikkDz8RU0AUV8ZfeeyzAQZ5uX+gF/qDPz7k7Y9T6qLjjcKTj3cYb4CdBS3QDJCWq+7SXh8+xrJWkj9qod+40qfmOefl2ek335vQmtABzdYso09uPU+Dyr6ENSFX58l3iJzYYdw1mGFMhSSVo79C/FfGFWzM/PJxSctCfpy5v4aODY485gvQh3EApqcDqFsqAjPqpGh7m+0vo5tXBrcxFjxIec+drOhUpYN6E4SIDvAXaLqRVS82be0PEj5d6kJfZucMK0LwEawBGG7DLRYvod2QBtZa7N7hgfHVj2iP43QkhhAQRDBPg1hCgYC+2KdKkY4I8mXx3PuWz9VxYu8P0/ZHyov+wzmjoiWj559M2Ye4BCtfIpRjMAKiCIx4AADTj++pWZmJFWUOt7iWA1ciVVJUMd3lHZQVFDCggcB5NWSMuKyWrNiW+p2GMYGAcAmhkERVALhS/f64Q0avIvT0Mvzn1f4bcS6sc4iNq0sgdT0tiBsXK4jtPbXHfit73AB+P2LPia8lSXhYrEbZArr7n3FybgU0GOw4qkfgoIVuCjroPBdNI0TyGQz/FyulTMlbvltw8MCl1/4K2t9ps0d32skRbbdfmgYggFA/62AHT79NXfj4ICVBJmVeAUDmAjJsb1YamTQ/SQylrmj/w4yV+oK9ANiWvBLxbF++jq3dJbEYVwmt24oOyy5pUUHf5NzJR15yeS/Ia+HQk2zsv/hqYjUgU70MuYJOoMkZymQ9FN5LODIGQUivAcEIZCaNZ3niLBlOqOhws+d2md+ZNVIrB54efTgDFI447QRgoLYDAGzTBNWK8HR4vk/rUCZUg9XUNlUa7aDys0BFpght1av7XdBrrZulFSsxcwD4mRER6VRCKcgjTEwA4cjl1wb7xO/W7t+7829rytlnTqg/MWEmtZxW+lvZM6LfLzW/aPiVgRYuFW4NowENtBDC6HXnIsBm7TTbZ7C4dYYGuXsOwSgptMbtVQ9A4IGEgINBim9MKUS02M9HuqznPX2qnD4tT0w8/uLsTYTbAsQH5hZn2z6+y+dMDDvXlu7+dV8d5EnmHxUnzNCsPJgcoaGdybtSWwldysItyCoedJhLhngpLPv9eC6WG3+hvOvnBrvu/bH9BPM+eb0n7n1dVwpcuSQbZjwLQ1oYSHGTG66FWLetniKEgPnkcby/dFlDx+P8h2gTveJTWfD5qVawTTVcRvjdJ/PNWK0YkGUjQHYwXFajH3EJ98Zm9q6P+dXfvesCFVCUvy4+I2UHBcbcrmxP38wY5FekKoIAm8Q3+ALI+Cixyq3fk3tyLiQUVEwV1I1mo6did1m+zcqDqlEBp9+attprnk9rTWdz9oeN1EQaaIBgWAZRErSSsIBcIpZKCCm0tfl8e5ERdlJ/eOulBUIXlM+owfG1p6yCbz5G7h4zqJX8i+a2EuhQygM1ApfngeSVdVtDEyMvgL2QxcrCNiYWW/oQMGFHoH2YpZ1/1UQhRfyFxLfqPZPLP+9n8/FQi3yM6+Xb8Ne5/88AjxL7HwBbEPTP4FFCj+71RJjXpx9m8VsY3D8f6aXPu4S6YkTqkPW3XXva7ddVz1jzAL5qDcGvYrkgZN9lH2doGbWFre8xhz+9YZcdPzrUrL7qze25n5iBhqnugjePF9U5p0IxjgPF+GX96o4qV1ifAaLU+isUgIwiUFgL4opkA3UFSoVzbZSUXou/yVlaLn0u1pjwpAqcBCfiDFFJkG+MCT41juK0HTCphj4dlxTyYDAjQ71Ui4dNwFo0StS2ebCxscFEFCaBIzyngHKbsmKATEVAVgLyu6Fvd2+E8Gee/srtC68iu6K3TwT/QBiASSNQSpETI03b7cnX1bcUjLVEWT4jEonPM5dMZsIimKvY8g5jBjzWdhk6+yuNVYDjqnft7Lf6go5ztpTtbd3x33Aa/Spnf5jDWN5i0hrPac2dfUme++/9ZD+DAb+2cbCzdGrRJwEL8Bu+xLxlONn8adBZ9BRBqomnuPuX6TwDWqQ0zs9eFvqI/p+JejzyxQqTTmpk3KAwlTzXWgSgNa5BgVttCAFJBE+mSukJtYafCCv4mCCIykiLnTG6JFXMRbe+yGkZk65/OhqQaXZcpCJ9PCQPd+jCGwUOFc0q1xHKxc9ZdNluutkmFWNmcPedJTT1VcnIZKCCi7sDxL9GOAAoPYY+J+azPj9ZvN9/iaMpLaJdCiYAlOOl8nq33WHAkxCxQhJqUArKD0OfJDqqPLueFUbeHDTFybzNx4bV9Up260x44TUv/1EP+DgnPuhMjKmdJGpXasvaY7l5x9F5jRn93PmC27cIaRY9nuInaj/0Ff6cOTEn19KCrqfKZMf7v195eIAHMCErg2uUnx2Yv+BWQU6fihJPglc7dwF30Q7s+diTuSea1TuVTJRBAdVdr0G5GmFSyHItosigNLil6cIGcLNTT49t1tYssten8kAaFR/txJqiVDhmr8lWggiBbeY7bgeJ06iQEOn2HuP2dDyODctoOxUgBTMTMiG1BK+O8KEAKxo48QNWEd6nBSL0IkjbcLmdlGfa5qIdA8odDMbEf+JaWURaskDOknDZQfjZtaKlJJ8vUYVXa9AQPbL+VP8GUAVHOA3vpUMU+seGxfAX89FsabrPnb+xlfe+R5blBpRh2ILEQHdtwWOrNC/Io7ml3oaLOiR1efY38v8dG//mB38oCV926rstwp4cOnwCyOJzBRQNd5/hLtChn9uqwpuHxno8wLf1ZiSBGEj2RzrBva3ax9KmE6U+nPvSb2vJo7JGoVdMuAY1vHcFiq3UCjoEKaimiilynMm8sFvTaG/e7mP2apm6ZR4llE3Aaq24fTxonOcf0rZWMBnI2phOJCjlyc5YXWcGIARhjEhYEBRxZkuAf8SP2in4KUoI4GvD17JKw7CUeKm0a+xnQ/gKOR3bmHbAnPu1/yByAlD85/hKEVX+xu0g0vSmCM1Mbgw1vqfcklJ8WV6RCi4QEzt9emEFaiEvqc2WcNkMuQuj8hXPt8vZZ0cnilG0JKRZojJrywjnGdDwPIaW86ptXoYxuJIr/NEV+WXbWKV7gYA2n+89doYjqiBicK4NWQXgwkvBAaBeaEiWtXo53v78LDOSdbOmadwTf4tAtYZWAgamc5XVo0GpEehMkGPtW3eIpDl3JuycCcH7T9HABBE8d1jqi9kaSpzZkeZqbhAqx6+WUknWjay2svDsmod0uqocn1WKEOO1JGgAEcKVMA72gcnui6+0yIndWxWjUDt1mCKcpkjzUGuX4HWEjnaX30eIVESAoBW6iRT+6FTTEj/9qTKLVtckyPfuj/qJf5wapVqIcEly7q1ON0aKpB7z3s8coHKgaOn9pqsUJ9JxBHGikOVLcVY0piKzgDyFv/NWZ+4e0HbWXM70B/IPOfZdNr2zGQ9Hy6HwGeG8+ai5Hr2LWHUZIxex8ul0niJ8OdVXI5VOqzSsYHuEHe08IGnFU5XwqGwe9Cc/6U8/ipeTPpsXgXhVPyv/xxAT/Kyu65WWvlzuQWuHG8+BTcllNRiiJkftx4nreM8L0iict+Mf9hBddZmuwkHFVF8igvr3cz6AaKPknLU2a2+MZZdsW/4yEV9FuA42q6NoWe45GFkQE05beOgeYikyBow4ud6Y5RpZi6khmIDpv4NVHcL0HNduxFWOUJgK7AhFqTBO8QPM1t5OcbbysdxTD0+em+lmDXaqte17LEq5LrR+RvtUbSg/fDwC2qlJwZy9MRRsMgd5HOYxcFFIp/F5Pdetbnmfw4O/4O/whX5nXQTf4jB0+yMt93i+45LcJz+fMoDM6PVtvZ2cJFHRQV3wcngQ/RCkfM7EAKsth+hh3KN60Hg8OiyR2xKH4R4zMm3j5js7LyUqtmyY9D37UynkXIvUhiALTePiQf8hUtMoowhJMnSytbgWUkiKY478wgEEJBG+3KZIFaRCSvOgSCFQ/cpRuwInhxgQtARzziygOrHQMW17EBeRbgxy33t6dnvK+ytn0HrjeZ0VS0u8wMV0P/HHehavsF+XVwWT46lUNZlBAA8HLuhLeBUtwrZNDmhLZDLj2NTeG+xWajbiN3zbuUs91PqDBlCVPp4xT+IOVLbo2aZK6yJZZAh7m55GwIVqgu5Zo6HTE5UKZjEwATX83EwLjcj6tNi/4rWo8kRAKUU24hiccMqf6gSfBIFgrY8OKyiWhx2CICoILihBBUXH6Mog9vzWafbGMVg3VEoD+YaJwFfFhamRA3k9z9V+9s9n6nvXR958fGmnvmL3rYrPvsgX+S/CTGQJnt2qxobJQeKGRymr6s9F90P160quqyQcxWRt6A0POWgAZjhvsNmhQ8ndDZwa0KCLmFfXQfxis5KTrop6RFMak0LhypOA2N4ibS9OAJIqvVqmkzGYyor7so8s7iGbcF5XfA7LaiytemjoC7+Skos3+Q+6TJ4u3FVvRB8bmziVaUyLIX8VYiqBAQh8esl7/zI/Pee5g19S4T/g1/Ef/z+9yUd8km6vH/fYnt7xi8HTGXgcKUSxhh4PPU1CBlyvTs5Cx1xqU8OTd0+OKTZLRjkrHEMN3AbYVfWgEQXgmUZx3tVGdpq1MOvRVuppWW5W3BvZ7UhZgMOAsFaI5UKBkMP2XaABpAjW8tV4QnIicWqafe4rkJ/rluOj4lnR6qEaZmQ3/5A/qTSFL40kWo4F+cga3dLSwzSHfb+GtrIrYO6soA3Cfz11FE4C99BvqNDvhRfgdpX0dQEvrRdfjjbbivN0Unrn9ueGdJBywWdXZlzaNRCBC1TmJVisLV+7nXDP9qhz7AIsbVJvgnIBqIMG6aXUaZz+quTL9wgvJgQ9d2eUXs0hX/KhmedeC55aZAQzhJEDgLB4TLZ9Q6rhVtTqDd76R940vePmAZdGSJr6Xojbj2XwLK+MxUcWqTUV4eDvH8sdEl2SlVjYTdXufD9u21sB0ND7+hBkKq66AJsubLZ2f6PQwozgfIfA25vY98+Tf8WT/bX4QV7Sm9uRMXDdmU1Z7IlBxTUQMqkIS3jwshuUrlWx3fJEX24TfR2Km9AWyaXWHDQAyS4VSON752ngdvfEaD6JAx1NB6j2Z8/11+q9McSZKBkHK1XzzKbJwnZNII2gAZ+kOdNU2Vl40n9nGGfA7vYa++uiGawCQlil1kMqLfavH4tMXUmRaKpSPxRfXxj9PDQjt06eldzKoIkRAx5gRsAoFtPSGBmfoPjEfb4jV5mvJXuWSzSXXeZWThumzW9VoJO6XwNhISvA+c2tXTvS1VcW/04lrv4O/op0BehRPWgspLhCVWUFUyWkk9JxLP1xT0/RfmueP6cv5PWHdmf45N/fqsLs2W4PLchs1zwaOTiqy1rDRGQ8+ycUnB54WQ5Rt6hmQrkbTdp7lBjdNkjJLH5Sjsl0SHgl/431VUDWdwXYc5+bwSJS/7gOOokX/KNVSgxSaUxrKwtDHDVqvfbVnntx/5ImvMrT7aDeopYQBqzHNZDMCfOovQd43eBLbkybIiOe/asEFylX+MscRBQDLQqEkGoF0g2pKNhlJP+4orfnwAsVfY567u8UvE/49g54+eXQgCXt3nYNadrYCukD3Z2ECu7bDO7ywfXJVKgkRG2xqk6j+6mK/VslZGRVoyRD7rUUsKul8NCT+0M1Q9VWAChOfev+9P1+KEAlCWXraGIsBzpbRQuEVTO32TvdV9rPL/jTB3qdL0Xx4rR1k3yJSnkNhExjGrlJuKa548ZHHth2oNBy+cDUhZgXxZYQjgcRSKgoThwdrg80d0kucUex248nD89gVcnH45299PZbfycKewFegRdxNSzXxJm/3G7P0kYX/bD8gY9GsreI2mbDDidh+F26Y/siFoc4W+b9aMGXzoKrw3XCXqyrSA1WRhZnEPFGko1et0knTozsrHwRRafP9k+4zbsU5aigveUBWMzzgo/A/mpKJet2trLt9Gl5P/DLtH7JB2biCeB2DWTJxRIeL+xGxOBhiS9+xOkyJyM9vKV5ndz8IALZ3wMjeByaGy4D4CGpJJ08f/qTDv/ksP+wHva8rj77iTCvUe2HBb0MGnTObcy7h+0zFRNWqj1C10r8Bfv7iHd3tWnjKz/j+/LEF1V8h+aDWWUmFKiO6tLaRasLZZTqZ7gzo5CJl76hukUAaoA3qESZPvU5BF5b0Mll8W7hlYq+oZ+I9I8iuOm1kmpPyWfXfXwRNx/tq8sraOslggwCfsULHkmFDHQDr3wkK5iACw7iljqLpvP6Azd48KPIV2sga+kC814IeAa0Skm7gtzwaij+NiCOWKADMHOsCsAPCzVasshEpQn6c4kw2FL9fuNNJ1rm/U7u63f6hj//9E59eWzz7vkdJJ/k4+RP0yhN5suhHnk/9NxmO0UvDooiOlMzXLn45ZPA47ufcHibm7nJZ35pyp7Nxf6+OE+TBfg9ZZG/dTR/Js/k8G6F+TSaC4UMkLqXmg6d7d1mqpf/GfG3f5Wnz/zph8zhZ63u47YaejlzzUOqzPLDBjLFRHGgqrjvXX5o6oTgpnTryz+IQwb6Xy5MyPyO9reE4ro+Lzu83nex+2+S/Abh07vrJ7mEnEyU3lEHidulCjFeaaRKn4pFMnpWelh1XK81yRFOuVKMd+EBLygt/o/fFl/80H39z9OvftSDd/67r+LxHZcuevUipEM+AV6j9aApjAfA2kx73+7Ed6pd7fOCl15p9FG0NV0uhk9YhdS4VaKt06ctto+w4ADqNAwqQMZ+dUSzQdy0oQWhgSPsSYDrJp7p6jgaCuUGbitnkazY6WcVKYYKB3E3j/46w4aeGTJnGF6GDO7E6wL9zu0K3BQkmwhPJjCGxXEL9I7hVY2TItBdtL7rDUiLULm06cDz83/RGV9HTrdtVQZ+x/bs/+Z7Ub9GUYgEp4QRQBw0YRxotec1O58GH6s9aq0rh2csai6xcKHBT1rZK6r5bSKr7i16jO0lWNSSrmf5vjTP5ZLlq9ER0TPcPeY8cLBYOHVLHqwweQu3VyhiAKQpd3Y23UB3HMT9veK/IbGqvWMV86svkvsqS+lf3O7n+pe+j++iChYm039CWNmL9SVFDk4c7l0ej9K9SpFWyk3Akk/1taqjl10WboZjzZtsCoZ+0VL/ldfBmFSgQcMhW+BUz0EVWc7NhJIHibCf/Hqrax70GKdT8tjFQ/+i8HOIBTQAjcAZ+7W5JtleLCiau0OnwFyJu11UTo3cC3+7Nj6Be1XB1ZRvncXPoU3QtR2rVdzdo+6L8gG+FRx9EBfAtB1z0IfHIvN3QRm5RYxuUfYrGLyrI5W0zgI8mYTLNYAmn9NcOu57mqU9HsyhtkWcbhMoPvSw0QOd8DDh8ocueltPOvECA/A/6/gvTFuorggcsu0y0x40hwAgN4OAs68NjBr9yh7OKz31xYsvXHjoc3M3BA0/QBLrLdMiljSd2l508cQc14Sr1HkBFFCJ98Wyha8yutHoHPXHa2yxGwOSmy73gifZyMQwpkvTuWD4IC7mKtKw6zd64b/8xpoTRy+4hCuoX9T+O+DmbkB028k8RR3CVcVZrB2+vEnBD+oz1upS+Y1aSgBCrGcf2FFzkgMlQ9v38PKHHmih9Nime+4f/D5fJP6D7Q90ss84iEKIEeq2WwWamI+n/k284mc0n+pSyOhT1L3IUi/MFbF64hMpyS7AdrJ7lU+7CC4g7bawEWvpWB9b+egtl4+1w72WH9iiBvY6xq21mZFWlFCQkpJI8Ilm4iCrdKDMZtRg6D57fusd/C375/Un/JG/w8YnetMBARAxCJhcCnGmKtOgQajCmuj4y4Hm548aZ6Sb4ejubiuNaUQsRv83InmWl4LW7zvL+8r9w2RicYiu/8KrfX58o9fEYqb7oCktMlUtXwAQgxC9S/rxNlzxnQc9z9f/QX032fgqnR4A5vUE1fWOUBUjT2I7YRnmSIcwhf+6PoBS4YKz7sQPbsdj6sU1hte8Wzq+beKjNkAb/0TXqko05/+Yz+KhgywoXH0ChMsclcou3oCFCq4CpeJ8jXzql71lb+GkyRX1PFYDDQ+NpVdFCBL3GeEUnqg2/7iiQaHXwoPVYuH28Y86rYBLUEWpX0D73qJKnX9zrL3dC83r7/I/6/Hf39WdGsgfRDUOrVEpUbo29FoT8a0e9Z13e8Br+06M/QG0yxA4AM91ygkQVFU4MYHtJUAC25PuFmRIEFoNI1UGPeMPplE0kJf9mdOSfn+2YAl4aDVBwfWTUhq54SDspaunHw9onH3gaPXaW1tfu7wOQ0QwRN0CdOZLt5M7x1Hp89JUL+3/TwgVIwp5fCanzdpyzo3KkKyT5Te/Fiv72Rcxo+c+vrXAzMxv4j6yzQ/zmQ0N8IU93v/1R2/kXxqJb0L2lT1oms3RNBdY/oA4Yh+RSzpp661xxcdcoHzTB/3+z4k4Q/BN2YtVJtHGdYTWG9uLRR1yWawUtK+7HzWfx9WvTP7S/Y4ke8d/l4n1U89vvcUqIHCquox4D7UAJEIyZXqQlS9qwABpYBdz5Kcy8uY3yg3GGFWATrEYYZs6RHN2z/pyoTqRFaBasx6pcCPKDMxEuggLriL9g2z8aFzrNoIVo0gWyeTeFAoXozmOfrWXxZAv/ZZ6ncoh8rL6oBXNWr9j86aW/Mlp67ZocMy2pqoQB0FIFpJBcY9+sVcSmmrrwTu4TS3bctLFZcx84vnUrkiBDJ/yB9YeeO7Z7vaCEZ2FRa1nmqEv4jInJIE62zn/JhwRv5H8QpmeXFVjoi1b5KoHrlcSFUdc+yCrWGTABcYDu5GDP1ktKL25jEz1X5YLUawY5LIDpErDYbZc94FQa26CYwI1ay4JFCl/aBxEj8WW44uWxCdWaOu/YigKfBPB/u6nE/cjon31mldb9k37uBogbMLfhG1L3bTesrgw98wYuDudK0YTC3V6evUQMQ56BO0ncUM/Yob5ULthbifclnFJp0zUbJJPojDswPtSbpRNQKy5SFXIbS+YkbNihbL7tsTxA6lImb9kAzt0/jIUQdjKLsuxx8dOFaToACnwvSascC6SKMwOshDIK+DgHY1GUB1P0aTo48vSXVzfI2X2vSxN7ZsynTP1mXIoIERUqwrymz0BokIzkrtQ8li/NaYoZ+RZ+G4BsyqQ6gkn4NAtaZZvxJvhWiAs7Of/a3/76T2BkKetqVZXrznyHqV1995QtrvT5q3kvwXwFnBqHjlcyYszXHLgpwi/yX2zksenE+MzswFk2bAahYOeVsQjdz9BOUqLPdLAeDcf1O897b7w6Rz7PQefENlpNF78qxfrrE6edY12Sefk9uJ4tJfWlugyqITg5wbp6hcadAivaE7yV6jUGjeXofEHF0D/JInIK2UIDij1aaksX/2nyUiKaizSubl0uyGIEzq1zywhaxvb+yYGRktaPVhH9xHgN6YTTsLk9bdUi7IV+zZWUXLWtnhuTuOYOAg2BqZAJCQ2vK1BoH9A6mzFJCwjgt5s3ozRBqg/MDaSAqXWiOMIMi0cJB2Ung5ddXdxWcPb+5prGtd0noPJ9wBffhYQgCtf8x0BJsVtkWJBmO12HYxem9fVASgBFFuWo4dT+Jx9zR+bW6cx/89VvkJ+IWBC91y1jF7+7dDtucay81NbNT3b5Mgtbaejg3P42fhIqQX9Dj4Aay4DxR7Rrvb5s3I/gJ7OBN1rnVOWY6w87rl5cL+zl//+yH+3XDSdnZrtn6EmFKRBmS6+UbwQH1a3E34u98KnRmSwHIWLX1gmpPEReedf+tvkbpJz1EAls/Bzrnh/HTr4Y7RHb1dC+CH/yUQUWfOkIqcgUjk8PE23E5m5W50zbdn9JUXlfYF61iOeDq1XtVzdjrq805JqoJLfMk9ZzPCBGvE5U0rmYKJNdPLih+5aqd3n/g58fkaa/2TvD5B6MBKzOeYW4FuKJIeLiQFz0jKhOkAF5kKS+RoJ6PFY7Gx31OXcumjxPzwZ65+2fW+xf8H0ZnEcuHvD9BUqL5EGtkNhRNHkDacbwn9F/S+Fzm0pIKTe5G02ie/BB8zYoC90v90tvn1FPkMHzdNHwfPtwTwAukZvod/Y+j1e5ZaNDUfzJnnQ90vNPGWCb6s5IriW1BNw3k2wDj4o4Vq0/ke6iB+5slahSjtUtuOc0OqRmuhJBZu3B7WNGFHJA5cmhI++HUc81+cb+NfO2syR5ExwD3o6h8dNG1dZ1j6/7j6MVzZGPgW1+ARgQ0BGCvJ1DuJBXzzLXc3tBEAizMJmpjUt7t1oebVCMv2B39uJGiZGKBUJbxXJox6p4LCUTikAXkH9Bh9jL6nWCEDjVQIj/J/O1N808tbO289nTbO+wapuWSRtT4rlwVZ2rJRf5uAJInqWupQBnsBZb7DwYuBwZCxF33ON/RvpVE35Z33lZOqTpNtImMB9oPiB2yQqLDsaWLD+W/Gfe1QRoSRJafoPkWID/VxW3IJp1OymBMQw4yKbX5aHp9ILh1WkOxQ3XH4d8/f5Ly/jfuy92ffJd823p3HbpEtT2y55qk04Lz1rFimws0dc0Us8Mr7vnl0wonnMdLVfy+6ewSVfo2KzB8E7v7YcViSiqoAaxIJALwgQOXH5Tn6Qm/hnRY+LNXYVeqbjlu31cnZ/8TEdNS7kHmtxlOgp3tW0MF2lYLYXWaCbpYtbl9ZCYxJb5RkT/Ddr5v2r7wADMAGCAHt7EtmsxRpihEGpXmp1oGMfD1cWGQyCMr8iTdP9673r/y0Tb/js/+20jUvWcmnf9mhkRZhp1CwRaNL4BbATVkKqOz8wwtpAmiAbizYObVNWq3sodpd99dg7w49vBktD6q1wH9bHAr8EzXeswVSkS8lkzUp0gGQrpHEwpE3DKWZO7GebbXK1ewjHnfZHR/8KwAnpBukphTPJoeEDdUO+T/gR5vo+y5Z+0LbFk6blggPESzLZt1zrYmoelCTfFC3pt36IztLqDRBjXF5tSH/bzXX4g3Gp/EGQRgWWoqonR/5GpPPritC/wdYDlX8pRACpw2JFRVFqNFpX9C0erF5guD4255JSiPIuBKiK6Ne5i6nVRmB7kSWd9ukivJgq72M0Bl/pPMfGoo8bSIoXvwMUEALiqzVrJbOPNYJ/Xs2UAs58+sQIje0tmgWN5O9hz1H6/dn9v922+2J9zv8RTP++dHl7bMYeiCDZWFxmeszUmiyajLMuu4H48/RBriQdAM3KlqMlS2ebTtv403Z43cJdY3SB8tm2z72Hvx64//Xk8mpLZ7llG72p0uWrj0FJItimcAdIRdoWwT5DgbKaVhviDozmsYwhTBeA20/N6V8kHu8CH5+A0x0pjfJzUA4fxDjryNnhBabGZfBnp5B888yhh/OjnuZO0+MFbCs0W3uk+gCJwkiuniWjc+oy+imWtWi5uZYHEwF3podPBNkghYICNL9rRdiIS0FTVB2rMKG/NBOiMlaks15g4Luj/y72+G/nhf7pBXZzPu0Ct8mwxFsiEzxDJMPBDjLPsiCUDiIAjC++5Fal8bBPDJ7x/2o8I/q99mb7HYsQrWmCGplg0lpDqStQRGKhiNJ0RGJUNsobqeQlNFwmwqw5m1JZiXzMxZj5KuVvdoyHI/o14hFJI+JL7e8s5xbLzsVCuQHWU2juwtqza1/9qX55v/oFj1FF7nzm3Z8vePyvZ8OfR5fj8tfnweGWnp7qeAtk+btzNoW842EQkBNqBuC/cNwK+gK67wi5/uSMkpZuHOnPUpqh7Ub9fG5ymrl+7H4xRTAtG3Sj3EJcjV9AHbfmIgPH35ZP1yi9gqWppMdDtEMBA1ABRJ+s//xSqLsCQi3O9lz31mtpiegN/QVuh1V76EhQQFJ9S5CDYX1MyvS410nNsUJUIEcXQVTMmi4doBO1MXQ95/x5X/j/LivOkVUs4W7E0wyP5qowCjLtPvKLUwUynnnVQYVFKHT0mEaTSZdZt3XTpHwG53N4aSghW7EQ6CAkNnQxJbVdzgRxXkDAx68td6DeowIn0Hy0YVDq+aYtbTCs+S1mvwtTgpmR5syZqr9rZe/FbkGjRyjDCs7d+niD3h+r9l1wu6Lu/cezqHfh5sum69sxT73Qj/JYxlfgy6vvSvHKYOWmhx+8Ds0j5+CM56DmYghKyrO0NEDt/FjBW7iPWHUf+SnRsJ5nELvPFa/U3SyiSUTD7UNuBLs1/Y7thf50Hf3wPxtD78TUaKlrCzRO7YaKA2D0CDAghe91hHIlVeMS8a5WhbSv9spGfgbXx4rSQ+vw7BIKOeFsDHQ9gMSYiopDEAlEEJFU/dtWpSSXj0Rb0puPc/6yTxOXazlA2gHHbZLK7LoBVeYVJiwcokPYYrFwEOH9GtYiiOWxUFwY9NDBdPCImj8R1X/ymH303Py0heMpuZfHji+lD8AjAzQhlB1Fyz2MhfGVDA43uf6z117Ki4JrCa3yu45+1gd1Lzod3dCI13nEeoOYhnGrwCIDraY6xxRf79Lr9j6E57nhm6HFt+XursV0h+J1R4LHmfnioxgCWWcT1VSg4Mh1SIAJ4IbvA1IoCQWZKLlQoSnth5rzbbIH26p69M141GdLR5DnSc0f+oqXhGtT9VEEcZotqOf0x4aPsGCk7q/Wf3atTAYmRdUBquAuSaQAIHpkAy0lNfcmDIbc6hKBbg4ERp+qt4AIcuy96eHV0Pw+UhsFu5+sHdLmunQxYXdIKZ4lXCitGC3QQSulocJg5ZvPo2KNbZsYOAp2ed2Ebjvb1uraW30xN2QHVEO7u/sgAlhPbevxjd1xI/TZCiUGDdT8ykUPtB0dbRkQr7iCOL1XwKYU220goojWxp/b3VcNYPFgQ80J5IPY5C3gAqklJggpN5NiAAnuQ9YU3n6Or9dXyRzVp9USTdsnsNgEnbfxgIbt8frikdh6ZeEZq+yxhT7eRA7nleUpb67WvxC0LbD3p6MUtIXmE1r15qYz2AyrAMUwIir80H96+izL31XszTz/mZNA9P9J9F7vL+erpantZ3Prygt0f3LhQkBA5SZUmmkvnPNvJ17tPEXmP7ms3NvjSQuFWHMjaKj26BEqVwHiEhljVmOLZ7Mfa3C4wg3Ukj6nngMl9NHjSRWjCt0petDiN5rd0ei94YsiT7wYhLVu1KnlcrwATmXUssKMUoHxqZifOlDQmGVp3WHrP0lzXSaFE2XhEkKYgCAEOjsPIrybXpwFNJbHCPUbqn/Ju+bmDfmP8gGFnpm/9wogrBAiX3JCclZCB9iru9ucZfU2R/73BdA/JRk2rdBNsCrGmdgo3YY9B8QVy5ULEPFVWbTTxmTdHiOsRYdw3zmDVLq8o13OO/+56fHPy6bZB73oN39oNf4ir7+MOIlakCl/elUIjiC7j7QYPkkh9ZCP8cYk+JH+WOUTLzTbtpUj4JXFdQbLwoIXsjs/++95wMXgC8gWEBWm7xW9imyykM0JUrt9OvKfbo/65lqE+VncfjUwg7kDtR4BBlCxJNcqqLMND1MbDvr5Rkk/sRchNJJqGX0kgaK0wA7s93TwTyH1l+orZGJ4y6afg/5qFggIoUF6IsLJF6QZEfGPXRqtYkR74nOFillx6SltBG4n4107LRpEExIwa4EyDirQXFzMtyfBcVZ596MP+zp3feC/5yXntIOjGwirldZ87TLSQonUyC5hCrrVQvJn+2vqaoeqFTGzZGFolglBOCZ+g0AyRGprn9VB/kHaxNqv5zVh5tHzpsIFLhPXd4s5zj+sJY+d8mUceTlwScCwjEpSw3/ZuII2TSqlL0K5wC7veOmGriO/sHcfjmT+F2/Px7cB+VZbl74z2f/KbLdnVrPlLJvScolxoHGc75+KAwbNPCUv0Mor0EC235t9/WWs/snoSa58eNjnMRkp1UCWWAGzgaw9sloY5mQp83ViN970QINgK8ZgjsdX/e1BVQP2RTZns24E60YQadp157O5G7JlAKpaEvCHXPW/j9H/G2IPFWq5an/p34f1XFp/qKxN1wqDs0aVkqhsfDuUmc2LSWndR5FI7zjpNYvubk59BvPXm8fOh2BJog1t3HBw8UGFtynIQCahOLuM6Ndo2IQKOKuEjRPBmCMKQdVOehYGpRKlUAFsMKChoTH/Z7zGv4h8c63NI5Z81fpmOCz/czMBRRj1dAjOBiFrLRFS16zYlhpWs2ssGEHN3m/E5EVSc/0TzT2tDy3BF9c+unPYs7U9Fxt86Z/Puh8I3STv5U1L9kIB2J0hQN1xPuR/LcS5N6+xACwatZW5qEq4udKm0J22jjqy9svtHx86iqrLyALITQwPbve9R2byq6zdZU6nkFWGHy73Pksq7zDSiQq+jrcs9McDM22fs9fasbcNf04P1zlD8mdB6sU8fEZ1CuYNG2ALxYKWOYMDVi2oK79aAnAq8dQmQftGSLWKDuiG3rCiJ/F4Oa7b+f5gepCqKOfD6ivXFJEzItXQAeWHj83ETbBJQ2XlNisqcsImtnWeatRPBuIBWCcdD6Zn6vf3xX+yjftLp4f+5In////qqv/PWrz7b4s/MesKxi+c/OUq5YNxsLuLtju8IioKdzBNzRWtIbfuZDafrPbSVhSfX7DNqXb7X0tQwboGvHJLjieuOogwIpxYMkTVnuEFN/pMoa0btJl78VwBQZyt1oLOY68gObl7rlqKr0Y49tY40/Sl/n/lpr+8Nv9jH8GFbllzzLf3V58xwPzkYCuokZXdh9CqLjtjBhACtRYoWWuhi9XkYAUEowotD2DuGSzoSdii+aqXPf/x2ONPfQTC7O8t3o9P2gP908LbfxGa/5G0xEP5o3+yma87AW3Y5Mj80sMvavCfvJT/5oy+Wa2zM7a6eD/hHR6detNC2ggp6yQDxybpbyB7cfVcvfg/uKex5Zv/6Vh/zEVZTOeiX1UxNVKVeG9rf/yXlvt+QJ2z6sdauDR47vwaVV8V9Ivuj+PUsIzAtnpRXX2UwnpSpKIb3vhrCc1WbkGyfIXHyWgyUWTCWKuVCPPihvJNVLnXcj0jKi1YAJmCFfvEPf/HMOTbg/mjzyZgC2T13KIhbyBRN0osoON4AOq6jnpR/wp722oIU3ETXgknMeG7NVZuA97q5br8Ye9YgavFtot2KT8NSkrAAP/gW1eon4sGIfNLFpINwI3kVX3MmpWEF6+7/4N+CR1lEICN03qju518EAFUxZzS2mgnQlvMikaksMzh3MrR0wBgGfsrhpDvt1BVpWcec+dcxqC7vNte/5P6fYtvxcvcavVcCnyy2KeyFSIphzbDe0rerbo4Scl/zi8+95etsDul7kRI+mtVCQhUZD/+PWBh8zsD7KCYZPsipAx6aeWNFWPF9hZ8V26YuOrkcz/Ar3sDd6xEMD1nvAEuu9NAtQtqgAoLM87XQmvGY7TM2YpSlwnKH1JCQH9KqB7zgsfZeOoVjR0MVV4YROBw7/8ciGhrGlX8rVDC4TIIG7TcqAkwD+qlGbs3gBepyUofrKfRg8kjxd1VjgKKVJEVQrFATQpP13xRWa6KATerfqHjLsrZwBqAl+W8/KyPF3jckRH6RWHzoXuogqaygeuBrQApq5O3EX8OYaULrADK3QhcyKrsgXNMC38mZu1iqzv48bzP6YtV/4SndeN9bK2FZ4tAwSRwfo34d8Q9xzCIPpeu2NKgiB1hKFK26P42ievI+Ve7Nsvv7G3W6oGoYX8C3A4iAhi74ww5ASG9rgjLch1s5Hv+ChE6NKyMSEuiyk71MeSusOR27rro4rh+16h7vVNDwzcgaQ/cIkAggiF4FyFXjtr2aPO3I+15AJFdeOJVkevHyNlx6sDW0wUnJF93KAQFNe+FEMpRC9XHMeb/buUjQsfM4WnTwH61yyu3/ZfqGflFQXdIcPMo0UeRzQf3s3GJz34RfcqIjj0ePxYeoE4GfbEL4531yIe7zJXeZGsr+U6vc233w/OrMynMAcRXZ0RBbIkAWGTC028UXhyvGjRcSsxh7kqePHf/5XAyMGdDv28RrpMPjB1US43kRlEjRYJKY/4cMHcZg4EjIUYdh0Isbzm8Xkq+vV91q6b/cNgLDwyj5AbyEKA0zbfwq4ZKaRQYQlQDSZMQ3HUkAMhhAIK7AX0mXkimvy54n63v0fB2mQHrCGLJ4+48ZnRZ4rs3IL6H8BriQc01+A1A9wmS6rS3aS1rpHi1ZopZzkF7Gdwuu7Q3JVYJoWwKbpLaQQRAFNhemYKpufEXThl1DHTH++gGZSa5JIvTi/EoqZ3PooFXtYBsh2+8+bd8ZDIW8QEfWD6G2fQlw9D4s8XrmNVfVNrZXa+ex+++Fa/TQPhhIX5D3IG4oglgbIQgCKiM3E3eIdzlXJdtMQIP/L+YxTPNbUte95Nj8g5EdHRofDhovRoRngnB+9hnbenTX3bfjBnhkZRP+47TY4IgfqOnGtAbx6UQu3k0BTF9SeS1fj7hwc7GT9YIhibxU422RD1Zma2DKsqEoMC6eAnmEYWz92qvPS1nr32HUGPNCpyBiYkJwXkTtLlhA9Y4U3v80UjjyxYulVS540iPitOuLXtk3U/ygE5HX33Un64tT4ysMhIunyqujmx8Jmfcg6MA6cvOO9clwBqFAjQB7ril9RThG78CwvnrssMjJkaLsew1xcDH4avUPV/NViS/FvwdganJUC58wl2+G6CqMOWC4uJpPoFPl6Y1k5d1qZZ7F7nuakkdkh5kOG8ZSrlcoX+r3k4JZUau+HLdr8o7ZbtO7u1cFh1bvWKLXV7iMV60sYybvruFAwdpmg7CAJByz/iZL1+/z24TbCHeJBP2NV5va7pVli6rAXIFUd14MARKC0lXFY7IunfC8V9qO5o3KZ7mGe18s9/B3ZyToDmhKS8+3gMRxYPxvX6xgIu7x7qegWYPyv1l/HW0pXANaUMm9Ecaqht9S+ffJUBtzLfKD+kpOOmLiqSwTyZbe06FUqc+NZ6pneBN4Ub2RDbV5fzk5910j/oKzk7RAi7lMzImfs5hyxGsP3OKwJPRar6tUM2UjXjFHewLtK5ndKAasm84rt78V3NEU/4pvWjJq0vmZ3DiVcijlOsNFDSFz7Bjdx1JIJn013Vg9R1DwjHlIGjpdS/6iH7e+/3NuAMmWmtFpqN29j+lDltQNvsTZQ0FfIebIckVBhJKIpd2A+ngLbrs/gDt18O3w8btQRr2b46LxuifChUKUAU8iKjX6xBRuj/TKDjAaAC4lqtDmdlyKZVTiUrqrI3jnMFywItakDn8WtsBMZBJMuyBqwH4vI8qAnEOyd0BcdViFC8Gb4dzl+w99vrfssmMJOWwKKjVhyk0YKpsxQrAJdrSuhg16QMfJ0/UCZkqol60spuTLH6s7fOq4ca7W1TPfjsqTw4T4cloajH8cvasvaXf5179fPHefx3GHjQh90G5+kvHHX74SgKj2dYRuSp3SR+ekc9o2B4ThuYosxvbWtyCO6HWRQ3zLHJn3Q+l38a5+8s5V+R6Wr5dly5bqlc41hKJqxoWlxi2Gi0PLh4azE8G4xfQllKQUwiMQhClCGk2Y5vlbBvTeq7otga6y37d42Msa3ThS/+vH9K/p6CemW3vlISOrVP7xDiSM111/29CGQLcSIG+t6v9XtAGbdtjTtN7/sJdXVU6Visc/BD8ItIPd8lfNc/R988FvJAU1BdAkdgBrNDMZ2VONPtOx1956iOP5/YekxePc3HfIxGecd11BxGgiA4SgWzMtFkVHXnPOtpMR1fENEblOh6gfvbeo9Yf6t0cCpoG2ehVwyUKeRITB5IAUsyuSSeK+m53s1918++2zbswTj73Tvf+/4f5pVp7BWrHYEiIKioQG64JENcTmKIXSFjQ9oa/+G0eZip/XobZftybznHATirHbSe4o3Y26sntU1ycK5uLiyPUX+l3fOlLb2kH6H6+lN9H4gKSwAJ6ccbhhzsgywECh+WCeYw2+meAAZQ4aNd3EmSLUEPL8B2ZlJU7PxzLbrV90ufUul24orX+odJS+zMX5/3qctGcunm3SzRyTdCoAWkzTAEJm1lQ0KLofBCzA2an6v7ZVqh6WahqvK4z/HmH4Tpz9Tl7dZ23lsi1yqMXv2Hp3TMd7nQzqhdCn13h6dVoKCZseVddvQFgvzFwymWEbmKk+WLBLZePtyJvtGr89CBv0fvsLFRq/iniebL6nda8RgxpJmIX9R1A4+EHJYHL4yeN8ZSftu42Hjxkflt7AUdToxA3OqggQdKskAkyECvDik41/eB/7sqbymQEQSXFWDrRFBPIRqDvHzLicsul6E3YINjeOGqp2KpU+YUtWZxVMz67hMXy5pS8Wfb9X2MML2ROOBfIdhQiOYRT4iqK/JQ/vRg4L2sqbIPNJSyX5/CQO5yq8ST9+7zkBnudLFCfTNA2rWVqcS0NT8imvEaD38eiV2h1bZKwt8y+0q4JrHpidgwBQMRQDgvSkuCMDpZmBF+YYwYryAYTzWgJ0cYT6tnIWbzEgbEmj3wI+dQjpyy10QX2XOSS+zEYxwTLrXxeGEeDZBtwMukENs16pd+QkqYPtCQAgdp/NaDSZSwV7OZzpUOf+L4g7LXUNH3HRdvyco9eP9IuZvzTyuq+kt8+K//dLnZXgj+JohF/zY9iSfhTZNgVweohRwNUpCLIQJ24SXKluP08X35RvLupu9dNH4H92m/qvz7y/55/Cw1ALyJyUxBeyQKFRoPqYNB9D1gQ/JbUC7Gu8K4outdW485nbPdlPLuLKZV1BxUAwGjM8LGqyJIXDgHKiB/oaZnwiD9oeKBHMs7VSO/d2VoqHw5RWZIOp0EmGjcG1zBnJOl9r0Kx/+sfd4rSvmnZzbrFr9Twlyq/lsbTocWGVA9XZr+nTwtjIjAOwJUhyvmOV2vng3s+S21GpZFhjQBlBiYdvqurv7/syb0BZKK13PJ2cJPuxY6egt1weSPbJCV5Lhe4LYBnPwjAHizt/RJDnbGEe8UoKPYAipjFyG5qYwtMbPuL/8t/Ah6VzYL9qEfUVMUedTe9gdhfq+I7cvr+nb/plXFsWdiYGPgW/Fp6p0c68TGdFXlyayOtZWqthhhNizsTu+vL62FcW1e9/egRLqkefnG2t88ufLtfIP+3GP45/+FT5me3qH6L1ViWHy9BnCYxDqkWRQbUuU7y9sYR/hGFF947Jxn71mWZMq0pXZaPv5jWf5m82HiZow9DfT3BIVAUmBdUFh/kmuilSZU3D+m/3yK/deu+Qn+Dc22RX/mloCrWDjKuvz616e4vuv9UMtxcrATubzauJjsWiUBT+SDmPicCqZM+k3KVJ/uxX/MP3xSBRyWaxTT0R2TXdX62ag9u9sFDzFZ52VUqVC/xN78WlW/dKcBUQREqKfhBk6pGhEjKUz4/+xfP+kejbTW+elYmboFbBY2W2rXL4QpoV3KXrT63ms/O+/3ctftHD+bs4Y1c+uqulvrmnI8RMoPKoG8n1osMFOrKw40KempDfqy4fKIT0YCGgO1QnbFVjI6ohCKw41p+wagWquogfI83UNt3E3sIfqf8/u24oN9B1v45y+u2j6YDJX+jBK2fmKE5/+Xtudl6o/dSe748OKS4zJfHHurvztqe8Pg46vgoz334OGn9MDZ9Tu5m4CvxP3T2XReWRIgFWMhwSozTASTSFlzcJKzbEylDodVR5jLmf2X8uI6Mt2l39hZhzEe4ETgPiA+W8/jgugMAY34xhJqh9fpYjS+GV76s4IOcF+sBzhIBzVfHvmHMj6qABxWO1C6ZfoClaMJnJNBHz9tZMiQs4Rm4CdxL/ZFJIuf+h6aVq+jOKVoJVMydQSZxxr55XP+VT5Lbxqd4tTGDAUPyO+N42ezuObww5hV6xaDVWytLAfUPEjOdR5ka2iv7X/rUV8lMSS4QE/dgXeMq5hQwI93yEdl377ZzvNpCP+Ruv/xB+zAam8y+PC1ZPKvpMDA8rkyqam4HLATbONh3n83mcLQ7CjQ+Iw4maAtU20xqtU+WrLW202v71yN++TnY7TGbincPxkrgHszt6/JqHe98+9txvzRvw6mletF6vyk+8KAZjYlVPNwWCVZsku5jKd5jJNW+mPN4YbVjD+u7VR0NP87RD0uTdj3+InD37fSH2Mz9MfD3/qOEWHNf7lJwAgKiunXbIgmSytwPMvRMv0xCmcH1Sey4jeRTHaKpx8WFyXLUzfeoeQSXIa7C2Zbbk7VwKRvUDA0AP/kRfix52Ixr7e/gqc7eyqqlX+aBxbkdbK1tPQggxehwqgDzNDKFlbKqadpyZ8tLlogCJDLBU9UUBMEc1iI3G5h7mGw+vAIOlZD6S4Cl7l9D30xo7RcJle/MBaZ/Vb/4yXvzGPm22zfv5UJ58379CYdAJgLjVVKPaPLrC/uOnSuK6oEHASeqrKiF1zeQYd5e4ekRdnD78yPwF1ehx82+6DX/QDa/TlwnvdnmLu/g0tx2PPIBxShzFZKBwdpFEgDchMey06YaS2dQ9V5r54A5TAxhyqV1iRSMHL2p7kTnXUVeKtGXsZ8P9c6yfeH5bUjW0O9VRpyqKiZo/9lP/Q63xe1fI7RIO31vzb5Gfxr4/knGL8XrJuSpN5xGpXWAhuD4ztZ89buELoT2ctxoKQ/roCEjDH85kCFDdpxdTrXa8scFxjOnOp+vkYavCn3xPCKPOev23KhS+IeX4j+s6m3J+TPxVyZZJithx76Fbln2Mp3bV6Y/rpfh0zTCllQLfPg2Nx5zrr9cevn0ocSTXzZrPG3ibtX+23J5BvJXcH4SSsWh0kX0yUjv+Bh5e0Xfnscn51F6pbmns3t83Cp48oXvtr0snFPOkuLuY/Brmm/Bu5ntAwzOPc9cpdHNnLW9FbLQQUOOl4StTqCZTvrTFRENN8RDZZ9dQ7UJ94YsWH6AIPK7U9vui0jcHP5cztf6tOXPfesvQd6kVAKKOg+V0xGdySP32bbU86H4eZOiWX3V/OtGOoeOG66Q5ddWvMBJFTyVfIemU+4ndaGR22tF6pSigImNxwPGjb9qmQIa7iQb+G5Z8jZfJWXLD5+e9x/6i+THb+Of28rr+3h/rQt3+/A3K+e7Io5PizvSPUSoqSYSQHYBwCIsOaABCp3EiMm6ulx+hthO/OJm/rK5hHR/57Mu2x9In+3MRd3BivpHqVNIHjebP3f5cqBU0/IoPLKzlTo4oBnYuVj9HOTol3U2dDlgq7WtJEg9tCHDa7yhbyZCSNiXsmWFdk/JWoQIBc0EhGwYOsdm4WUZCqP375LAWv+C1ip5gxI0jxfIJ7GX+jdTe50FrktZ0xCszemxkJ2zLw7P6mPOStFxXqbq4t6vV6s21K/GJ6j54mPhSQYkuXQM4+Cq239NwlLLwldtbm/pkLNa9i587+hu0RIUaYGKULAtWSOASn8eObBZ6bEKUEr1wzOteGYhlI66+AeT7tNPfHZUargkFFvrpVVmVDktClThBBRJsP6ZRI9khZWKYDVyIgskiFi303l/vbNMmLXwKtFUHyby/xtzYWkpSH/N89CUAIxJd86g7322waLUDWurb54bqwerJl8n+9YunuSyzzfy7db2dguNIvtctFhj1ByRDFGHumGaa8VKEmgCXHoA4Bog5BwEpACK9Cg8jhM6Z64hj3/BGa6qbMRDk24G9sI5zdH5rAm2B1NQdRTs07iev5HFfHMEjvQU/mJon1UHJ/5fJGVP+V3SQcNICN6mo1cbTGOYQrs9UD+JrzMOtRWiFtKDWikodaIWPfmdCizNK/kMHyIQ01XRM23A+WJmoHQ6ldhSLJTOFkvhCCOhIjJa1i3hmqndOkhCrpmLyKwhnn8K/vxj8BfLgfgtqVOS5oFmIxIEIi15Yb3fbXN931nYsNRdDQsr3apPBQbxpBebrSAg4Svu1ipas0zaC3xm1y5KYvwx+IfwxNrwWmkAe+oE9Rrw6Tlb63gpoaxXsStFBsu0saKHV1lKkopgod2CNVOYfow3aC45w/avwlTArNN9T55WpknR/loTKWkJjFuXdjJmp21cmOXnVn3VHwxc+hj0bJ70V7Hplxmj/Wdz5u/X+MVp3/WNjVLC656WmyFCkUUdsmMEHFOcWMC6OpDVgZ9+AWC89+fJIdq6luIg/KwMuRBzxerqKQv3hlXVMCKEdWaQRjlQEwSQEHmB+1S8sbs2GSEJ1YTgs/K2f5rhT5H4H1fkp+Rn2COMzBAVAU2AVIFhhtwqBzYEDxTBZEhAsErNyjkWWTJZ7m9d/hBknwx/obQX0YpUSqnX4WbCjPSUn/lifxysEAcOhXrwc+hTxWLWoF0u90ZwVzaRrAVHEJdhRO9yNP7Ixv1KuMfu9FU5OJBMeoMzHOFPJW5a6VdvF6yFq19wLUv7vOTs8ZegQpYHYWDuhk4SZFWcFrEIaHngeoGJVCaaMprrE8SoipCjEgEssCA5PWvrSJiLjFpby86kRZClTlRYKV4hXxFMgYFdWIaGIDsmUm7F6PmNiWs4LCPhO1+pIgv+t/9MUw5o8+fL3sc5R2sCxzRgXta+6qqfPcCUrrlO/xHt58d9f5wT/obUNd8MLZ8uNYju8bLiH+LN16drktu7YZmnlBwQxznXsAdFBgmA+RKMBotJnaXRQ+iMHJNDfXK+fl7WrIawmrPJEmKrDqTSieR3V5OqUkhrLdB2zPN3knFDP9kAdJTmp2vif+Z36g+Qc9VDTOU5rO2Auq5R1iAVw0TeSkB7oEqEqCWs1jCSMLCi4jZ3rYsaL3fR+TwU00FHSwaaCMAMjgUhDwoUgp2aX1L+b6h8T2XUZbePGQ4cKOaWlMvzt15nx5ad8vZ6VfPRJwv4waP8XOixgaL34AeDqd2KSmwMfbINPet9UDPtSGy4D8zdf+DWW3JSRGtbVxlVnIRT4+NhpZqlSO1HepQzjD0wbQ12iC2J9Q1mui7RFqkCE0yrRCUF+MRfsKqcy1Chh7WgO9PVJe5COrF7tPrwhzppbnPNHt5vier3L59J8UB45cfyvrXJ52mcdwATptPhB0IZ/otwo5KTVj6LeeZfe/HHPTR/ZfZfdQmLjS918cF1HSBbBw2ze7A6wKmoey2MxvWm5cy8FVwx8DmLlSbenpcxDrAgJiHkCtf/V8U9enuQAxHY6XYr9QaOG6yq49Sdl6tQ5lpN/7ZWvZ6Ylq4btMDaM08DpaFJ029l0te5bSlsuXOpLTvuUbGoGiFl1KDIIg21phuNhfTW6nrODJX3rno39ufku97+uAmM1NCXt4ldJuie0/He/iAhCUf542GUJ1WQr5+tvMtnif1nGo0xlUuCU8f/TMhtj4eyaCWW/r+ddel+CviVx4NItocQTS6lxVlBE97L6njqnKKZq2/F66EO5gCPYBKarRekoVNpsONNQbAEibNEYkGoQuE46knrxA4g4Tm7O6UVcZ0EbFVyY7hhKJairjI7nZ0hGumvFrqmJ4SwllREFQBSKup4uxJ2xirtKrdtjlM/DvWQ7W86nUXQAODaPYIfUHN2PMUD0OZo4xcid+CbG86xww4rH9fYt1vz/VaSRbRXx9WOYJqkhi+iuc4eI7SEYC7gcfAgB0G3kvggJaz6w32pf9BxyR3qywF4xsds4AHqiFag9lD/ujowlKjG7h6bu7jlNWv2LWQNao3SNlGpeR82fqTSqg/uoOC5Us1Jq9rtYmjTBFIJEqLEhexW5dv+7Cjb0xIYst37KpYRto2QDVADXpRtaNuY0QDSkHoR138gz0XuLT/X6+edseoeOHPDc0KqECwq9ce7ltJ2o/UyuL7N4WHmNwmlWmTOXhQaZjRdrNJS0Lsx4tRbaxv4/3j2n733oxp/cwWiUt1n6WUKhaAUTkpJnnH+57mcrlthWu3+1GONxzzSyK0sXZBtWVtpsHDBMcC6eM2au4HneeBug75+itg6TBhVL0ICoWjUbqc0h0EHLBV0NB+INvq1HeOWKFSp84tuWwVvK4ExCBNagSaFM1tWP7/q/60Ptmk7bDnNvaq3/XSzT8TiuFzYG9S9R7tcnwxqSxogjEKlXRbfEDrng8byrff+pG32pTYjZRvS4XEx6p23IbItZ22KuHVoTDLsbH/IZ6RSzPoT7L3hManrxTn4AQ/9IQc8mOOFo34fpGaXxw+pzKbgu71vYc/qx2f2K25lXa8NW4t7C+ZZxgS4YBvaeCAQOVMagEPhFkSTJAkcqu8Np8bcCptW7EEHFJd4DESR+mn3AGCnQsyhGYwSgC6FwS/OzjXcaaiz+mEQvRZkrOqCrjZ9/6VFAm0iA0SeCh2gAPO0t9N5msv68heqJozOsueZ46DiBoewkAuWPgEWnS+L/hE2/U+QI7lFXaqr9X5SlgaloSVHK1Q+lyWNj+WcHmSv09r53Edjw9qO0mqnU2mBNLtkqQo9s9QT1oQuqNkK8UHyw7MpSqkNkUZQlM0y192ojoad4WAJHx2Uy7oqdjqFIxhIB4V2qaAyj6oarnPHoXlEmKZjvmG+CZ77uWPkY7HHNTEJqoKLDnw57feHYXEXoKo6ASlYwBKEVELcxWyIwddR82W0nhlAQ6hjxJEYhiyCgIY90Ak5NwmxrhsXtwlQzIaJx4n/e1R2LOeIOaOPKLvgd44bJJqF48koZKcpxRCuYUAY57WwXVJtT9tqcs7ioU6sOMIKWHlrJCaNEY3JkiqiOThUHH/Za7UTtA8Ab9vOzrTU81WfRTcv43MfLIT5X1SgAHQ9XKPVLZdBwIgGspHvjmizbw2ffIx7jNv+GucuOdz3wp/5UrxvxCahqAKmj7jjnWQ33O/b/AuRWzAIQxnedGNyds66Nps7ASqO6g9s0T+Eqn+A8gsMJ78MqcxlJQgMNCfIDnywJ+h6gbz3LbEO+ICnOnXSK7w3HViKBsF7ybEVlvUGTAismQRRGwqmaY5ig5fb5CQYPKWk4gujG0nUMmAH5eJAcvyxOR8afiQ7BjgEKUgOspeEiTDYUCgAqlTgKuEAKyROX3Gpdmme1eOIE0QeuzKd1qRZLLP7rrQT6QxyLv5+bgaHjl6FoGhLVu2QmbIRCGWLc8TH9jf3ztfXGQ8Mn00qaxtPHTCsw7NAWpuSG8AhBBsTFcXquPDdUezx/FsPO1/9JvQ0cCW2wCGRODYAZh0GfrgGtQQnjNPFc0BEufB562xL6ezNCaJRUIGposaZiwFHjYW+6yFUYpEK7RS5t2g/+XQjIVsRJRTGw4h/pBLEz8CVWLkuoUKpDCgfSCBBCzAHi+/1t8ID03wt62MDSqBHeuCigBX/+wAfT3qxL3GtINwVcmDacY/YF9p9oR0NeZ11HtO35/xhMEzsUVNpgZQIalgH8zjgv0Ty/5KumLIEIEUUvsSN5Q53DIQqfo8dixmnOfAzP/kJowJm0dqCtQkqjVVTZrO209Y1cN8d2qPmxF617WadqflNU34XlHDxsastAVsMz7gKBBMmCq3pQ8vJEr6pMW/uB/wBCrgTjWQxJIy6qER78qRdvaqRM6IKiHqMybovNV8Qu51Pk3LrVJJI7WzioPR8bNYO6pSxAaEKSQJgUc7iB753MHFiuj/X+LhiOvK79M8b0DU+1vWaadJBi5GxJ0liTnLhCDsg0CgaGA7cjyWNSz7Sd+TqdNTpcBoVzeg1zDnIbGfwnv9Rby4T1n1itsGRmtEsHMuyXE6ZbOCsnwoSPmFL2p+s0cI21ujQtFNvPreiI7SPGJcYzxTO9h55VZ+vuBMNJ+GSRWDhdZGmPSi3KJCpABSMXAK70QWXK8+73XDKQis9FgbELo++P1Xy/stfBQRe87NWmMAm8zNyw+JT/Wo1AYmhk6BohMdt5V6wFuvUbbbRACqFXlO9bQwY6V6zZ1yTecJOUHGDUflOH2iKamz+iF2e4skN2gvKlywWuLen0uwfRhbX1UWMNkeLe8A7x5faPN2wHta5IJ6+Fq3BYPV0lXXIMhktZFYMG6A2XFcClkmOMFKBn/ui00NkHVkICYOgyhAOEUBEGiuRz2nX2wnCYC6CBaU+oTaeR+4I47zwHd1pxulCAIo7c4sITeecopxSNshAml3O3BFmSzmW7LIyrr+D7O7tiTWOyNiTLEuyizosgMUjEHn983b9ka/q8oSnn74Xd7ubU0egVj2pu/0Zb4V2MPcZzmqF008blhmI4kwZNW8xKj+3/20paHBO2TI/YQ/VrGPbrB5VNdG9JaseLTPcU0yCCBWOOtlnz0uApxp8fd/sf1ElAUWeEdbTCHCgAtgwggNSP4xaILgEAFMRa4MflqQBcQizFQ6drhptmyhiytj5347875bz46dQ5XhplJAAVJkiEW+B9FY6dQBfqwP84MYOGyXo5CSI3O032mzFBvzJ6Z8k3QA0gySeephk/mLdRu8KKfAT6R0yCzViyJ++NpAAT2sxZFujZivIAOECfkHqjfs1nnDhKfBMnn7Y5PnbzR498DIrT6s8l8rmuJN/BOuOgauKXrVkupgB3eDNL1+xunTrneRKtLTByfAqEtTiKKkDte6hwiCRJAdtmaiEYXaYIVWotdfEQ7yYLMIf/JCtMVsxl2rLwjp5hK1z6FDoZP654wJLXJJWnzZooIHQiufihGhElVIparo6t4UcC8yKowDi1z+qGYBEimhtguji4QdFj56tBxJqi7nHPd2+gw/bw374X7bc/sf0JUHKTusVgIB8BoBMLx0X3E/B/MiobOZFdAWUmf/ZTH9E9mVJvuDeId8xDJQuQ+tz0D/x7f9ST5k5Td6qU9HWEKNNHvS5IFiRF79sk8zMWffPXHpru5+calGp1+E7u4XipkQs9dCEvElmTNm0Z44kK7NbFxJb4Bb2jAujUWqhOF/lCeUDQoKESzSJ4fY7+nJELa6h06DaBGw5kMVHqKnO0TI66IP/S/+ddv5F6R8RdPeXAAzaNaAA9qwUfsm6s3j5IfnD/zS1/of89ahsxQkrXQw1ljY1sqXTncVsxn449kCfVsOPv4AADIeyVjjedQhNqwCL8m4Ourjv/yeNPX8kW77FFlk7fzau+3i9xc29h+Ftl+egd+hQERrHTGAOZ/NG3u3kcoxTwuiop+SxvZ8S32/6+PubPP1x9flzJE8IspRrhZ1Gw2yXGI1IOZVPX/Lz7R0AUu3uEQ5ZPwwDy+mz+NHxs9JrXlD+zVvVXgc8fDf0eMuN+oywLqAd2ufEPCVMSQZpsKxCiDE/oHJYgIN+eDwcxes6yT1SLettxuuiLXou8iBP5A+pG1KoPM8LY+mTdcXbve6rn2fig/e+ab9/hl9Z8o2HdkPIfG/xaaDNlWCD3qHfRE4FUJFv95gWdJYP+3zBcAA00dsevPjHkDXeBnpRHzPJ5uZJdVA3FtZU/Sb0EuUn+7iLH39XelT3d6QIe5qvsukSkJYozUv+culqsv0iUfNf7CewwYWgarsk655xtA9lG5pKVphXZUtSe20/ZRuQiqARHJFdmQV0FhZbIbTh5GUlcL+F/DH2VAsaDwZIqBbwlDqs4AuLmPczsrksoADeNKOiQEacNqD9zlY/VPt1B/btbJnXC0eO7Gv43tBMUnnWh0zQBBYOHnqBga3sd0DZpHK0IUu/sAbkbyJ8D1Jgm9xnTKz/CcQ/FkBAWgvihqJyHLkczx3+DnZqjFKco4/RvnbN5pkqB4ChSB66gIp8XLvza1paBAHOpNd1tXZ8+Hp1Hd/8hc2hUR77FGoRf1BPuIh5HWqLXPFzlItCb4l1KXO1J3ZJVK5fipaLKJCk5zzj0scjyGzvw2rGxBNZfQcgrAW4I1hSnU8A7CrYUrbUYSdCu7MSUEc3YDL4Yz5uqQP7CmQTuCbXV2DyPzmfAVd6VGGQ8Dho/+4t76t0Nv/Qsh+sUdvP7BgMuV5FPcltAwJV0PDe9rxDj9cHet2H/vyfGtnYG1sBudTGGHDeUiJGH8vZkGNJpo0y2lTi67Q6Uxt6MLDvHG1i22mRscUSFIgwFjN1pSkcEi4aY2fCMNHPkZ3tuLqtzfaV5BZLYeDXLYEP+DzVxg46uFSa/4SzQXFU33lfuvSUPqWwVkEQF6ixMr9SVa+rFTnhzjkWmfkh2FNszP7mw/Wl73r5Z30O5bSTpF6XfxQhAkRwSU2vFAclt19Z5Ref7FtFhENLVwRqCB2lAwq4UKBH+v3TneYj5K2Lwhb1syDXegWrhr0dBJ1n8vOXA9poXDHQj/3nY5WSMH6XtEx8VaEiIp2z+tZLiMQ415POM6XvvoX7dw9bax/nzty9HowrIYWkab0JMmzaYrSJOgAq66heiENsnXLlug/0hVYz26cnJWlEW0DBHrsT4ffrqK4Z1gYXHKoA1QuwgAKGBQQY60hKQlBzzPVTi4G7uJdu4Eyxz7jpOSWEcofewaA1ZqtPDG2/evNakyPhbV9HPPmcNznwLWYQDacYDBkfoBvdLUjXFdR34rzfzU9T6BtpxtHY1s21lg1OwxW4ysN/lRurjZovnhmUNxCuN11TxVehLmibhI5HRqmo4hzu8QjaxEUGgNlikyldtBfUwF0KtgPtrO1jBBhHLDtFXCIQgUzL4Gka66hST7aPq4iEtSQHNoU4p8/amc0mtzXSueI0152GRLau1uRVjIcvXIsxJ1pNkXMZ1VsnX4V+Vt+3NwbzoergnN7Vgv/eJ11b6a4uzs3ytHw6CYRLuoIezDcVGBupXtpd9REKe2UJWflz5whV+qWphwjeI7UO3kudk343lxSoBFzHrzxa5ovxStgc5FltPfdGatH+PBt1vFIcm9Rz1/Ucgz2kHXUTX7hHLVVAmZqIQzZbRtxuDFx2R6wiVbEuFSjX3ag71EX1OLiYa+ymBLTdj04kBpMQTdC6nAWWXeYA6s9T8+A8DBxtuauRJIq3Z0wJHMgQUyhJSGcQcZEqgfuYTM8hwLlOTGKfrRsPi6octYM46Gu2gmRvU3wbU6UMcVRwIwVQiTCFXVUNkaRFFN67Pm/fx9+oZUfbDR6BstdakpvhjoJOrq3G9IFnIlwtCwu/qwvf/2RwbWoAv01TtOCGAxUABAUqa0KBTLKF+eqWztd0G7oOQyrxuLXt9jiAoMzby6IDK2Bll5DvCKIky2SxrI/rnUrzF52UxH5rE0NLbkB1qiNbF+fPf46DJ6kHjVviOk/giovErKK+aezIWlfIKBE3idzkIcpf0XgDH/We2A4Erhz5pgd/oXm/0vZIDSskqcbhmoTcBMS7yFacIL/D2O2MEHexxTV9585Zeiuh2PSH1FeV+RwZ4KbI8pCLDKVRsKZQfbimQishPHvQYwHsArke5w4P3119Ho+M3qVY7zwZK2gNZhDj4glnv8rXkUz3RQOaHht6hdjeVMFWdEqhXBBIEeZWh3r1VBRohJqJNXFvvzEiKUoyrLUwDgCa6HfAAgcgfzUzAWGzK3oniXcrc+cKZbphcjzgh/tXRW1bgEaJuouB6LIXBQyi/tGbH7V1rmur6NvYxJV1FutDqzdizyeGAOmhGt19EeSggLasvsNXIihq1i9MaKwxDrRm4dq41iRMAfp3zq5f0l5R3S6HdwrIaqOZrwY78X35HoCkNDIvZ1ahidOhKchmZBXEMjWGjeaAXrimrilwoPiEToRGFyBykn8EWlDXjwz3AZ0FDMOYkg+J1yrWnwZefmfM8jib+njM+WlkXOtwG8x6qBxXLZRrIjRbGJfU5ui4bpa13DbGcRYIq+2HaT3aob2yXGm25sgtspW+DPO1GQf1jMjJWRLgeeIXDP9Tl4ULDmWJtR1nBjl8oUaBBYqtxFS1Rw+Uqdd3IlsAoNvvl7Gthx1JX2Lou7XC1aYwprzc97VaNVEVrpXiXCUA+cIsa3fjKpvHKxXGBA7A0LiFWqYpTF0MGmrJtv6g9NnIUrT4Wz5yHzj8OgbvKIPSytzuTLlIDoSCFjrYLjno/+IwSxiY7MHGp9WaK5VsBqwCSMDn+vOfTlqwCEKHunuUpqT9e2gtpZN0ZZm9PdaTxmy4YEj4kczNeQ/lRnYrNDZsYBd2zMkVQu1Hdo8kd6qY5VGfK/TY/4S3lqbr1tWx/IuwWI+rQ+vvw6UrHIXQhIHtMdIr2ruXJqIbOFDBbC5RaEBs3lJddtuojaU8FGEWxYM5nlci1tAthQEtYDKVgNC5A+sH44wfpDGFliSDfBpZbQqs7ftyPEpfuyhuxYjWDvABXSiCVOxZZ+Av4BhBF/zHT79rT66t73e7aHsezqzNJhuB7V2Pe/xPg2Lf9PZ9LANzV9XcIzE16SGRJSeIsaED7fnzYsA3vWHNMj/TQZsRJfiwga+k/i1phiBRGBAUkPIV4ffR8/N3+6pMBsG5PQXj+J8jgDApAXmN2Jk1T1ZNvgucpoeYQsyxYJY2EOGfmz3nQMt7Ng/sXclSJIpymgbZ8pVQya1IMVma1zRQHiscaMRUeJO+MgiQ0BndJhJpE2VvG+tTZ6dqlQpAoJl4hYpOeotE8LkPlkkQqDgR9L0v9A+FgYatxWQRxK1hGUevv4dP5NK6iHq1qgIhIBfc466yoqNoVc+r5Fsrej5ezjeUcyUs7H3x/R69Xt0D3rPHTTyJ+kp5uxK+hrcrWdTs/sAA0UMMa6X9MIlQ4PrewsqGinDsLJtCQpQ11wljIfWdBT/+Uq/Z1I7e2r3n7q3AuNWJuVBw2yPagLlDyOt6yrrNDMrY0ppmPMoh+MV7oqd4OY6kZQxADNSCFj/SpWPrcS1jyiQIQwtzQyWBtZx/MEi5Yc5ONQzAINg9HRDxdZ/hoqcJyrAVdA9oHe7RqcsjPtZHv3MezjY3O72i0yEdTRGbqNzQd729X38auO6D1hb2PRzS4FAH4NqttVBYqMubFs+DMidKx8Qpo20e2/CbVv8l9UP52AR2XElqCOfkJumPfE9EY7XGREMP0hpAZTNUTd1X5ZmqEUVHgS89j0HmgOCpthMR0PBAODVa5vAle4dq5HQvc4FHYTRoSot6vRIQkYVYSIzCWlRXJoTrUwtw+52SQW3sngpu9nEWgjSJSwQIUCxnIo4V3KrqDtNasgEolAncTJDYvTiddKB6wDCwNVTj4NiVAcrjSovxqKeOYzQ8dCgOg+ssFkSR9keKcby73AaiNgYHuEJm6CgihE03y8fje+UfUkNRO+C557Z2PvFb4fNRbx1FRcUdge/cXfGKTTtrfJG8IqBWIt3Zbtud8jCvIdnXQ8AkDSJBMAsVEiSrrPVUcbwRm4U3P2pj0B3uUXtbTcxA0W7jq6ITC4BpWFiYf2prE0tzC5RhXTieon7x0Cf03+rbjmSpnr12vAlfWtpjwpTFBpWLT4oyygN1ocxyVya9RuMWXmB89hun9y6nUGmkbruge7pulvnQ9CaHy47jvA8sIrzF5ogEet/+vI/+az7N8hlVs8OzIZfMSOdw4VqpGtgia1+9npCuPT4+XH2owkZXryZmH9XwuJFg+M2K1oOxyqKXPQmd+wVlc+O2/BuL39OoLrVL60gbV+JlxH54zLto8H+DyXP7S8lGOPIL1+Ygjht9txp/DrXfr7JldSTsKT0+rQfbOedISxEq+6vTPdizmL+WRoeWC+w1yPxJUClRmZFQESHO6XoAdv70UtAANGY02ucCb4BVyqpas5REab2BVLlKZWPGeztBiK/Yeim4byOD9DwK2/IIIhIqJOqAF7HAoVhdkrcvY+ylXif8auJ8PWdcU4/9fTZgpoAc6vOzgd6zp29GcjabzVV83RK4sl1DXtm8EnhVcsjC2evu662OqMPdxZurSb+PHN79dHxzOaulaxP/qardD1VZk6/HKj7+9To47letUWHMOgUsbLRTObCEfGRx7y3TWcY7RKAFfSECcikJrw3bn+2rq7VddFRsbOxXMXeWJW6ii+GGDgfbfTGqceFSgCaD12jd7XSsWwkDB0nMUp9FYkVIAMiCqve7073IdD8JkAkjjoamQ66kIe1xdrA5yEvCZa4fJX8wPAw5bAMwu0r+mM6QPt6S14/4djPLubnqdijT5egKl0vLx5394+bh/17NJ+rlacXzVAO3caD0CAyLwv6lGfgYFK4SHECYPX5TgmBrmwUDzRwAy4o+7NqQTi3cMmG/zCWTtKZtrC1ix8AHaAfR1XzYOLXvWNCMfTpC/6S9u5KRf9Dl1DmoDqHFstUb4ChHGzp3IzZ6hipdgb0HcRsDDhyw2kc5mFK/mp3rKCI27aNvU/u0ymvqR8AKEG8sTiO72H6qSTDB50/mfREOEeJh7N08tzUk5HvxAqqUBgF++TGCRpVXnBiKGZmkfMQyO5kZk3NonMZCd/Oofbxvf8R4YWpZL9/dX/V039jrVj0vCDiHW8YJNeGw5ivB4TTkpayW9VSydSnp3ibvZQHUnLFJ1B2LbsFrTKllPBCUlBD79p/27P94nmBJP8r86IVBOG/666F0XwuE1l4K9Um6zYowAMAAVona7apxi4eOaAg9eTJq6bxgai2noA3dwRZtBjNfFUbVomfUgmwAIBRGmagFgDA/r9rOIIX00yyQvAgRCmCofKSuStXnYprFlxp1QAS21bORqrp2XQWEqnBT3+QRwwhD7Od3XT7Xd1LfcEp7TfIRgnQEcqlm03Y227X7pf5+b9rfRsqplG2UWwG8EKwV/YU5nzz8n+PzwZNOhRp63tsoDGNCaBKblgW4nyBZEJ92aQd4u2StRMy595y8HU4obouapo5ydlWuuof28mDjpadrT35E6OAoKnP9i9ORpD7C1cS/MIYr0vs86bdLhASop0lT2JwfEwNoCdD6dyPRJKsGAixwKoeYp28tbAEWnnvui3vUdYnXsXihqZJwn8Gglm4ctBCUtvcBCTXWrZSwAn4Opq+y5Y9COnDV5ezYOp0jajIWw5XByFuJBJRYLEzfhPTkwujKuYuSbCzNNTxWcq4Ewhy8j3xCGDN/JK1aKcoFtfq0sBtkYQk7i6gWRfO6YDUlLUvSqbqitM5825PaY9oKY59GpylVG9Pjf28u+iDXli2bvDO5lsMEcFxPsAoMZPe2VoMzoe2Vgs0C1nGhSjCgG9zHgMVGTKg5jz1I7FCnMIzS33T+mzLCjkE8uKyHLlQn6o3r037AHugWDgDbWUesFjvrfe+YJOsAB9V8mYLsYzIoJcm3Dow01xchjTB1eGxjdzYjMwEU3zHVCCCQCrYCVlf3I7n41Cp+oT426TwW9hhNwQNCHDo1f6KzQBaHvKUMrNm6LLB1V1uWy6rbzTM32fry/xseqWF/GJEK1AhfFe78J5KqDAPRT4SaDk853C631sxh0SEY916Drhtho5CDYvm77ZyrNXN+yVySpLUyinEQbQLNqcTeMFKoKqgr83Mv99XxcS3NGyBDRATT9I8EHVf5FNyj4ZMiVYh6PC6QEEKXJIUuL/ZLIcGQaBt9IQNatS16O+8rDtcFisKNAwKhaSVrI1AIagr6qFglvRW2LXe9I4Y0JGlELKlUOSbZMGTQDlOuKeaaKIhXmfwEWWGz2Y58PudxOBMjFE5NNk+qJyGmGkHUeXjz3Kk5kZr7QPWV8CBvwmyfHWAJW+D5FNBsIxGBSFbAHVnHRctwXpxOVzO+Ys8r54X5m7FxlMpREH+JdMzylpbHcjOlC6ophKTWRiHJ3RTKc1heVJtbsqUKJggN9jRYAPOYauAqgealzx000lbRUIBozVaoNA25XnEgMNTZOGIPIwDaM6P16i2pquJwmOaSOR9tzf0Pyl/Q+OkvzJ40PdfUYcLqDGVH3L7dwPDLeD/gQkvtX+IIY7yYe8jXX2J+VUe5vKM8at/CrRnVy1Zoy8ddRNX3iFR3Og4t9vLyMToMMFTTiz8/++2PO2NENSHCt6DO/kIbkEkd0gw4sgr9EJGPqPosReNcwe54229nUX854u3/3Hw/avql+wUxP1pwIwcnQbYcrs+hqClfei/5MK51YkAEdcPXm7wCjh8EfwRZhKZVArJ2eimwhl7jQnGuqrr8fp/58ePEvC/vnvntt++cOT2a+Mlvrry9E61GvvcPhU8/7w2/HLB/RaQVpMeye6xcr/L6ZPsttK/K37pz/84vS6uvK2sx0gfr7qHv/S5yFy8VHo++IrNyneiMCkvpeZPfeSw+f/CCzAg1evnHxU/sm/b65lzX9xAEm7ezN5tNdDDbPF2Yc9SyEDYHTPr3AxwfXZP1gRGdVYrx18frw7v8Fjazbvr/Ndb/NN2fU4tvcWPRx/uqX1jqLQ32PsQiT1UHLssR6c03RkmLGgCLgBWhehvVF7IP3Iz9uIzZaT0ztco+DO3QKqeeK80FK5PUNvYPNhKr+wKxHzBoVE3ag3WEBTEqGwsKbuGxnr17xP7/v2CNhwtxsRf/Ds99s5vPU6ZD6pX5dpffI8DEdXzoOJdw/5LfCmv/XF8+BY912XmZFBODBmf4Z8NOuG2f6c+nzP2IP/wy6qdi148/SdUG1lsOv7yTGh8uomnCb+9Bgkzgc37l5dLGHhrXA+ItdU2+8vO+O0bFB2KPBpyzQNq2McCB4r4gNEkjJskhCMoFcQoXc9gUo1DLp5Dbv3voXYFtrLLLEg9sJPPt+YizPUiuUEns6xx2PE//oDF9rKcwLD9bBCZQP2iG9EGhlGEE5nRERQHZzoCoJ6HKPQIe/fj0jef/PnK+bYe3aRW9DL38vhjKo9LUgCUk9bzptQHr115Xvye5cxABGKjNjqhhlsThMeP2xN9JR0EizwmlhqpYws9eF4hSggmJTBUvm/7pXDH2HJhi1biwUAUgV0FBDMWdBSoPlgLJ1KnWNYQANMjcHpEYrZU26COdWen3c3doE+KywVprc3Z3tId2yNmZSM8xCd+ed0hJbiQA1tpww9tr5HG4ZmVmlBpQacqCE8wDJHBQNsVFmEJKGa0gpYX3QS7shvNEZWHrsabNWmz1lbu0E/oTRjV06S2KmoFNA5WBAQQD44gUMcboq55HWJCTJWdRNDN+ax9qxHKSyKblUdHe4f+xy2Q3+XkwPW2Hk6WHng8IjYusIQju8p1BxTHp/QiWo3KHDQC1W2nlwMyVm6nCEzsb2tZmgRYK25o5OJbryqFBb2tv135NDkD3FUq46qgAVtTQlWIrG1WGaZD9NBPQ6VAgEPepUS+VWomEVEgFS8oetU3y3ZNkHSqN3FuX8rWWlIdYCFxmBUq5qANGPWrh7tnaNesSZS8TfXAB8qdOVxndrl1IcHMKEU9PVKqNgyZlEiUsNFE0gEUGambT5+jYHpuX17Wpyt6cWYX4MthmnFqFwpDcfraQSwJoMvEfj0VRPmEuTHHegLfcCNiZBww4rrZyC7OFJYpRx0ySH2cMDZemon9miFSYOEqw7I3/hMzfyBAVal3S8r+noZxzN8vRAOqUk1cqWC9EXRKUq9jlCTyqvLSqQG8pA+U1+yGCWlN7WSrcjRIRsyVsczciuhgONIP5qOl7PK/S5VBiEOWkvcMZJqLBpYafR8HfoDmr7IwIUBZTQGSvBYRYBHvbN84WGqSAIE4oRIzIkeljUeXEe50wg7RtF9evPPIFEp6Ns2ad3MnXHyUloJrFO2ZTZBaQQXazrmCkGBCDeGkTjZMGkQZwa6jtm/9KNdx7/vKlwV8uVE6ddWwSCgGoK69+ACDS9FGBwQqP7KRGh0qFhMqhsRKykTbUmuFwtXKnWeMTviDkSqB6rR0VhxSv0Bh4ido+RykMAJJouosCo9GsIoSwqCEXPliOaC5kn2bruYeK+8JQANKgcDiymQjxfyI14u8b3SQJtHpGqapMGoUoupJ7KW5apKtsI0IzVCMWahX1Z4XVEY/+ioESCkeUxFD+CAYg+0Nl1gAx3DWx50TZBSoCp/qQcFWoNtQ26m3GGrts1d6ObOD23RxxzYwrwSOajKlrAxAQJpBNSBEF0iBJBufv7w/AfED0zwd0DfJmR8xBERrr3u5ak/MWrqzzyrEmn07RnCt/9hgJZxGxTuHio1GvnlvJd0B+dL/ggxcLCdf7KqpqdNTaHA9NG7V/F3R0EgfG6QvZh6j1E4w+6uQtRKVUUHbVRlz99Vv9qa/HNfj8NhKMRIR9E2/skQSbLxV6PvR4ZZKh8km9SrGkI47onAmAGJnEGaGHlE5IGrRu3iLU+EcuLnIE0uuZISyGRSKau3HCyYpTtYws4uoJjbsYO8m4ZuukXofceiaHYsIK1kpLhpc4UYOHEU2KAhAuxjB+okXRhSyLxa7MyJGMBU6DrFtcpuM4G0R+GlfKcrG8hPFmvLEGDinGXZNSUC9a2bmtbzyAnEHkCEFECx0rH2J777YRuQlLAmYABAjYFiNJYKtY5sniNvBDVcvhv7tpYEvJMUr3jAb8CoCOFwY5By4jh1CTZg1TJHFMPpKSwfht2+WxgF0iN8bqoc6cxUpXL6h2WVHpog98rKJvSEryVQ/1VoZeQbc1xrt+OdNZqqPpqFXOBHlmch1nNKpw4ZmAzLJKtfMmcAsuibQcqX25ruJiGXE6c0KQIdgG+nzYulWN7bsNbB94uL4NkhEMYBNgfdlPoiBI7XBcU2sL68xCFsifnnDcCA07H7Kz+nhv95QqEbU52awRs/e54vdGIBrROFipQiSQpoKBmwz+6odl5+i8FQnCU/fnonqNp0ubMn627luW74HmRKRKhBbo3aWCLjFbuyQVACHenJW9/4NYMWqqyV01m8zyBICTYN852JJVLaZCRIOH1476YlYpmKFiIdQhXJotFRbvoZBqyWTjvo/4z1SkmkxGvCBEWFIJt9FC5S2o4j6sm9biutIgDtp6rqmyZlsrTnCVFVfAKpBh6LM7s4bq3YAihCbYJBRAQqAkrhesOmDXmi9HWtlqVjjV8xGuP26NbIJtf+LFmQZuTbhG4CBEaKvih4NxlW60cQ5BSMk8CQ00IYjqIkGf879rIHyEsMC4BBALL8M2ywQ8Q8jr/Y5172kmKloppqDQ2mh0/crJBhnU640n3h66HY9K44a7G8mK0Lx1FMaw7Gijj37Bn547DWZ4PwXzEbmvvbCuC4uqdC4HvIkXd1E+yIJpY3ZKotLcRmle1T6+5cFvleqdqhp+0Gn03u8JUrUjrwkiK7px6WV9nnOez73+y3yg/znv43+aTl2anIcpPcky6KCV7mOq3xPixAhZAHzciGyTepvTW8JPNtWVmTxSlNAnMG5Emt6KY467V6vVtJrZmM6Bm4+hxZH+KQ3lvbARsjIU5VStGNwenRdM/WOjGU7REhSClWCxJXQNBCzPFxQZ68RZmGzBi5O9GoXpYlbxxWs/02lIGyk/4cI260urbbDbtq7TxmSutTWXc6ODZXuUiNgNbDTKlGapESG5pSMPlSJCsh7Z1xsEq7LLfW7fQuybIgLjJiIqPt2mhM/qO4MMBsK4aapLadPE+rSpH0Wfo+mHY/f/btbu7dc50pClZfbIkCZCUybtKPr47syluSKlrTtzJMYTDaaTS5L7CU945+5PXx7h8fPW/OJwKDs50gakDfuSUs30UAOBcmddrtaTDLNthVUUcDKkDioAyH2RBUjYKKwwyMDI8t1uJRLtNsOGtQgHCIKxuTk1gByJbq5gUIOJKMNodGSAJoxhpQWeZNa9XtdjSjouCIBbf1USBrAD4tEGMQTIi0GUqUUrzejhk7tXBIUHnKICgxxEUPahgMg8iu2+QstW1HqaIV+9+GqtKsJpP4Rs6vrSA6jSfASs9CBUAPOKiZuX+Z0cXQ6oacuoQ49q/OkXwywSJ9DWyEA8sX3CqjI9kelmuNw+8vpJ1frEcSVjTaFFO4cBKar3OiJg2Mk4OmPpES0j60N5bzxMRLVgVqnccJZoRngDbzHnv1VrsolIkfl7E7YYZQlw61LzDo+xRXN6V852EtbHoJKsROSnzKWYN+IYuMyOtkZjzPA84OG8bj/8AhS40c2m2K5h0zSzZfMoZGZAw9YUThsLFXs/DqU2GIO6GSnZMcxyHQdQiSMGmiC5Gg2wOn1CB0UBrO5upNE9eidjUQp0l5RKwuku/TRCn/vx/w0GZiHOeMNVxeLntAuwCTKS1LmUnUtDTuIA2BXxoJ2x2IaI533D/vwU8NBLPMzDw3D4JYEWg+JvFa+cnlE7Dtx2ST1XZNSOHYQuyxsGSlkLsXCGova9EiuEAORXMKsDyPZGrs0EJlnWbIuAlzzswmD3Xl3jgRNvZlsDkdEA06O+15NjlqlDzEYmZmmpJDjAdhPc/O0261Gn0Vt0xESSwgL1Q8k3gQrmeMGzjlUN1ayAxuSwegxAIIfwVge9eU1uKkgG7lbenNU3fw250cjDJcJNOAm2B5v5DDFj5VaGubSOfs0WmQk/ePFdqT8M/2VTc55Oak1/EuUk9Ul3ebpperLN9ZMwoIR9Ktanaxi2ZAJ29qpr9j9P48jNn2Lgq1F5IC360R67HkH6LHAocmkdSUv/ENqnDjI5dxuvdkxTzclLYXYjFF2Wz8lcs5c/ThpNnDvz+pIEc9Fr7X6CVXnMYviX4zpYE8qFbihsaMFwi7IbGqwIxwFpNaAkr1PvRV3WnZ9za4ykcWyL0WvIOH8o1z5yMwCU7K9SW5bX5LYOAUQLaKliiOIANaWAjKjLlvFMHxz2G3qn73+wsZmehKI7IZcQR6VSgNOkIlbDCtDrAQFdN6tQ6GUcIxGPyW2XgUqHWucoHJoVrJKaKzO3WJad0kNEM2thGaYQKk2iOkQpAIIBUNR3NKEYciMHXpVYyGinXOq7KGNt+d1XTVvuvkqFv7yf4+BE4VmGUQGss95T3djY65VKKW1k3WJNiIFtJDDL+VIiw9VCle59l29r7bpFtnOZyrVpRQvKAATQeL/MZXQ6H/URZ6n38bitzbZW9EppEN2xEld1hDWJkZuZ/5wF5LvAZOlUDtvYuvcAx9Vd7g/Yg/9iorurT48k2WDaWNw2p6fiDY7IXijlwKEamLdSFBEybGV4zmKZ6IiZlySa3iPEEUILEaCpxKQx4WIEXsxV8qzwEclzN2zFOJC5zBUFuuO5FN1wyXvKhpr76BkWP4eZ5zEgKMFp0qW7DbANYdGAY/B4jJnHl9JLZgYK3adGCfWVNpsll9ryzTcgBpmoRsnH70IuYJgQR/XTKeYu0CBV0zHcWBJZaCkJmFTpkOgtViw1u1DqFGKDPZUtUMhzJTcVfSWRdsWg+nLIVhKDCwCLHpqewUkAPbsCAM5aa6FCAvUDrzmvPW21+6PJ3MgwMtPR9859BE61RWbFzGpsQslQKtxlnVgMVzlciMBqSh1j3kZhfJxlx7qNqDKt1LTWdelksMs1r9YKk/uYQSuudEqJGyUghJC4s0ZDxxMlWaAXLsjYXQexuIuQhWmbQw2gxSMHPDwTH0HKbnsiNu+k8qEoeNpDgP/M10dX0u3ZR1Uz56RFvBFcIuGY9BWvPrskzKA1CB5wnuJlX682i6dmrvfgHdUyFhIqLTdbrJRGTTP3xnZZ+nLi1Hk+7TfVQ9pNsAosOkYh6EA3YJFoS5VEyfIRbqPWTzZ6kvYek55NLUpAqcCfUUEcouV0w2q/VH85+x+gjq2e7C0qIOy5zNS1aPLzy+fxQ4Zu8QfnbICS1VQ2glCxJW+NLsNexCA6xOsrGR5zrh16vU3b3S1NGNheNgqwFtgZdjpwlJjosQnfWZKh9vjK0oXP4vBwof156iNq4MGdGtSFeHi+FIa0WleT9KI/qGtKAdZqaiA1vTW4bBv91pXpaM0tOhYJj8M0x4DEoQiCxJdAhhwgnGa6FwHggBtm7oIIRrPWH2mYGVLUlKtVHgWyz990+uWlxn8BJw+U43lZLy5WnA6J9a6uczyK3AlUUK9QhYIQLG4MYPqutLEImrl2a+jU3RcRvC00vGN3Mu4xizg9OTrWWohY6ryRAWbwSBPApTQiOQtY+5CjkgJp/Hoixlo85RTMtSP4JSf8OHVy2Yl9He2qtpKK60wtrflrf1v6uvJNH0K1lDtf6WPlZZcRGzcwZM8GhaQ0Xl6OeBjgwBXFru5Ql3MwmLDCwJs4zi7NEy6WpmE5X9VG//hYdn34/V+OxjIiJxvs9H8dYBU5WO9IMsf2tT/XJK3njGjNcwAHGx06l0UVWVbuQ4SJyDmhAiAc4+/PAshVi65rabO6/7dLHcrHJglGHShuemwuumVwGnHIqVoyFC5nPb8S1awlVsc1pQRcwG5ySKas4+GF8LO254w3updNW8QGoxwy1lpyK7gyIl0aapdcKWDEafvtSswZiR4o73QgeeSWVn2lDdLSwuUJGRXCQiqcMKmxzh9kS2EE8iRQGIchRzIy+r07CuicJ0+TrT6uYhsua4gLU7K924ogCT2cTuEBCT7fa60/rm3cBZwki688wObvsp5Fa5b/nNNc5x6/eFH2LF7WC+Bt2Q7pCKhc0+Ga82pbHJBZtE2BFwYG7CI0hDGANAeaGSeXli21lhYDktlSGGJsAu5kjeEure1SGR00MNzk0GDXWs+5BPF1pLTfLYPVatQdA8MNgEEzkxhxllKFxbBWZKMc0CY124hZKKlwFfcIYVz1uRzXQoPAVaxIWSS0LrjzGU8Y141A16KKex8pQsxS1Z+v1jfpwDWOT6DeqNf916v++BVy/1F7TVssuXvQ+OJuguuTyqWGf7pCPK2It1bIxfVD1z/1yRY+nrd53jzuDeyN4/YYwpZADjcoavbIoFE9Fmgdee84ImFzIDdNpbZz72MZJRlIlRjeDORQbLjL4FBDqXKPYdtqhI1g2PMhUzfMMiBYxQL/npSjLc+CGmPXuW+oFi4h0YUQtFUckAMJQ1WnORpugvKWhQ3A3NyowNo2y7KNLnn+5kH6abM/nQUsfAbsiTjqdSv2HbHR2qbgqolUndfjpd16IGM473YWyqqaYk6Qub/2IoFHklSKRUjY9rgWSXiZQfPs7n+rPW62zB5ry3EdwwyZcEdHUlw8t9SnNKaRBg/g1OVnrs/a9Glb4e4wbpxLV+/A2LeV0GJpbhMOn2l9nCprF+k83HYFtkiABmfO4aOr+mT3cdun5abcy99toWgxwQnaXeGlPM3qU6wxwLCm6mVzepCMDW8MJKrq2LoIYFRp0QEAUnUSr1ye28jnUn+INmHi5457Xa41QdM7w85k7LC5wq3YJ2I0UK2kx10aHwF4wtwTIXdasIarS9ejoAcRcqn5JQFHxr5F6NipPmh88Lbhn0NHLW3ynV24JA/ibKJwJfGnfqWEA3zoy0/9f+S77+pnqp3XAcdNf7M7/9JV/sNL6oGM+16vs/6/Ct9Gf4zB+YtvJSZ/PQ49CkqeuAivabj87sfw09n2JBz+tPtwM27dH/rJj9r2P93m9/9nNIXzL+D4JMc3++vadPvxo/8vn96K/gfdP9GLvvxD5puu/HyiD6kAschxmqeL6FpsaFNUltDKYm/XtF8/2Lc7KcEJCtTSKq0pBR+vWodcrYu+msl4qmt+CXQJvP1gKrTFlyvz6o7eyLtcXmJ/D06Fi3NRr2g9NP/7uhWelS768XPg9COW8J7flb5z18VP+x0/GnZZB0zuooQCdRMhAwV40/Sl/BV9r7hruWwCv1crQuD9+wKiEsKF9PrZ4Fv56x+bq8Tm7h4IE5JUOJdHr6XOIi+eG93sXpfqe3rcIU+IL3ve7zF3N8Y9oq9n7KsqXd4MfFF8eLxZNx/nseZja3/+MkshJCJYjTiBTz8o5RyC3e9+1/HsAgbj4XPf+qfBC6f+boh/jl5X9Gp8fhni34v7ktePl6OshzDF+UuotT2PAFBEUuvvubyNoIt63y09z5D/z2b9p6u0n17ozS8uef1FDV7H9H988OXPz+of919t/ffv4dupn9tL3/xXjzn/azvcPYnvwnmpLfWIzXe+Gl4gyi6jCLbUDdxELQz9ZXHDsGSYGHNf8TMqE+kSzWjsPdc6QEwU/Vj4drbgyxFIfnWg3YvxK3frlP6q1ICAKkFSu6DtgLg9Ut6a49fNeunl6UHTikzw8C3cKEiBbCo7JMp6lSASXQqzN8PgHJU6xC7pOtnzKwlQBNS7R0PZarXQfxmKXf228waedWgdclDqxrWYsLJ67dOUrUu9Fl0awWz1xbC0hK+zydHA16rtrJ57WV7DQgyrv0ZV+Zo/5COhhjskyBVz29+Laag+HgIMLfmvPhK5I92fq6EUUfCaugo0+TCk1DdLS0BpEQZqc2FnfMrGHeTZC2BEJK7wM52ZgYSbaFBIGRmESCGsAEE9gWDdeEJgpeYFi7FowCRjIXA5+tcHiCdvdDYhqYnR7FK0kmixvpEWSxJwAtirMPsk4cadq5HyW1wtsURQ4ZbPUOgJ28a1FSu7i4+Uh4ZaCRzuUWLRYWrWvERrkTqhNYBdVvjaCrdJm0QppMRSEg4jLxUOqr6tObOYmIFMepSJhaITyu8/d9ZQ4h2JRvOn1yq60y2bhgRoa8WQ0UjPaHvT0hNf3qAKOhptiSsl/a6ijw8R/jcvvL15/k3NKc9WoAyDj1HfUo7nLR/b7OuxOv4qVzHCGxQJFrYUcRzWqUIAHb1V4p74Q9jLFzs6Ow48A8pce7OXD/TTD2MF80RPQAYayEvIOhfrRTWN9xCAzWeYO9fYM259lEDoKcJxDPnbYWpa0cmBbjTnvMBisM5vBqJI6ioIVZiqhRPX6Jgcw/NGbnL3d08HJgRTlooOTzI7k/7xgm7K304plSM/h36wWpr9jmBtEeUf6+lWJtWulERbCLrt+5BcwrTrfBE9PmijcRYwFbqiHNvv35k7H92v6jGCLlV5yFGgBkLSJ1i94BhDET/3fmIA5PMfqAC5aPb3WFLcUglc8q/WciwsrfIXJPwxzHmQhookalCR4lyhIw5nFCGrh3gYb6sDrn5/4UxQhyC4KTDEyEPChGQlk+wiF8ibABOIOoszwOwoZMDAcZNDf3jKFcKENHkI95PIJhAoOJXEjqErWKRuwPQj7SGZT1xK5cCsw0sSLjapW7eV8xXn0I7i7NU+DpKTgLFmK17oOdN8StrEKcWSGQ84oWnfA30W/fzKT5lnj7YNtr23ovkInlxhk3hCtWnxA+BgzQ1WfPkNFUZgoOX1weGBF/fweXLOe8MANVamQTleoH06tQ3oPtkQRUMEvcw+xaoEvChzppnKVhEuFBJenFlrgGVv+OOfdrQRPqg0SeUCYfaB1wHyAti3aXpjBjAFOpZM1fJJtUIapiPki4k/n6gmhnP0RMUEklARdZDUgiAKaSdeINjTqIGjBMseoN0/bVoyrQQp+6cleFOlncAxBayBNYGlIKClxr/TenFd/A3qD5PAOpfXpsAQOP4TAf9EHTVr4wfjpoTYcrB7emBVV6FPNM09W6VXhbQnPdSwo0PabBHkaebtOZRbuJmYyEeNx17OJ0Nue+yVuf8zVBO7gbYQhmxrRE1sNFROrEhBVaIgftWaE2AmqBBUAqFlYGqyhbESf/CVRwTek4zh+BvA9hnr2MGpIid8r8yKjiEOXTiq1RYuKVF86YoViilfeMW+jzmCSFqPuez3SIkiAUAoqwZZJI0HlF2wCIBpZb2c2VzkoQqa/KARymEV+rgPhg3QjQt3JToVT7Nn3jv40ZGjGS/jXGwSRlvQJjdc/LCPr87lZ8ZHNBmfuzYSj66sKe7fkJ5DB5VDPCVpPKWljNVIjUAoyq9RFUNsdPBcwDs4UkvqGIJiKKw5cUdVh6xQZmuabhJoNuTNLntAK7n2XPJB3eeJEgVCLCN61EG8c6wNPQweLu8wxQNgelhBeWhhefTiU3Clk98DyG2kbp9E9yliuNn/pOy39Op9tsYvHe5AJB14wIABbI73By5T76D7g496n1WVMcP1Bv5U61vt/BtPAe3f+GfW95jIi8ZTR1qUJkKDREVz0YbddiUiSM2G62Z2lG4JTvJ1wxoCdU3WZHB7uEaaWAMZsLDkqT1v4hPO+4m1P5QpljEM1xHDQlTgjwH+muTORCDXERclzjceLRbQIpK/EFqbKLqgMNMvhmQ93g+IeB5u1FrhWuLnXfXX8PHD/bZJP35p9Lpdta4+IuSFBrrsKg6xpGzJ3tw5zL3vGHKSBpB8hHZWeCotHRjjJJdk3RegbUSuZu+U1kfQGNC1r6JOUS+9sqO5o6ZLfZoV8nk5WV1V74xgcjJB7VSygPk0c1qroOK2tLdYIcc8dCiAKJCU5J4IaxmVjQzItVIp6PbvbESNVFz/jRoXxIv8UscpIiAVnTmsOeMy9MX1MROOJn48N6wPpjmpZqwcN3WwCnbm1FeIrcqRn6vWREUG7yrxwF87QilqvSrqYZ6vsu1KyLIAwmtehcNOAb1VnrRVDKcgMDz0yJ8eTVteO2DnnUMyPaae5jNktAYAxktL9hClUKA6DDbmIaXOlopWL0X/2B8OwTDpkdrhEw2gTz9ta7If2OKyeoJSRBCjkabJrT5C2wuw1ivlbVTW91s0YSmJcWPQAVu0DkvVD7QeF71VcbRId/SgwebzbS9cr+F80vOfhnWp9jkCr80YQ8UKoJmd5Spg5gG4jOR5fxT3bRc2EYVoTLVeGEnO+h9COg+5MVqLIDWlwECh7sYA75+6sMQv4ICP5+RBgu5kCwfBy4BIEQRUWdQxhZVqKcSea7l2Hm1FOZmY1tcloSb6TnHG6jXPzKANzA3Y4Im8EMa/CvzwN7teFcgnrNyE+4Ag3FXKWCGXE/09Z8uFKkcNgvZPOk3pmNF9GhP8CggH0RWZSgPg6V8WHbRv7c7/pX+jmEBQa5k11Id3zN2TROXXcHp5LCAMdcx/T1kqFAHGlAwSrlBe1bJQWNrEQKeZnRQC+CEDM8JksU6vi9Ekap1PpfL5nGaSdQlh/1dhHycQ08THlPWFsC+zB7vOrTQfpMd27va76U8jXXLQqgcqV82lrY7WZF2fyjlLSJmr8O+r6UEgCRMjLp1LO6ztYUsAIAYqLLI5RQlVb/oTE9VuEBo+FDEey2Nvar75n0f4DSlpHDfqWFTAkpCiniVuBspXOPsM0mhif/LxrjeE09J2yyG3tqB6/8UBNoUfIlBlk92xeXYZegD0d08rtYBUMVqzALf1+lskhrZ2Knp3tedvDEreAez5ES9dxX06NwoDsOljS2mX3p4CeL0E8+3h849fI75u7dDAj9qnlItDGz50wYVroRGbSM4fb7uVdjKreHY6wocCUyGrDaSyaDzCshofLpHfMaCEHfwm6VP06BdDUYJ9MzwGNFKqrSB/QflrJi/LQZLrXQlLYBlPkpTkZqgmKhqwBltPr33l0jCHDTFoMiz3EGYRdAuiqB7ayyQxqjwqhbzBLa+QEugBYHQuz80A23HrgUeKFlP2R60l0Wc3d/XPJTmv864dji25pDZEuF17LTNRvDAEKC1BSkVBinEZPZo1a/6su7Q4A+f86mPWKTRAgnyCYbBtLe3NJWtyVQ7ejeEaEWJDb2WVjIcfBQACrncVBzMMLbdFQpE5fN3/7vvRSOGcVfbnbHMWY7TiAJwrdRTI/KBPA6spIrQQJDXMEM8V5wa92CKj78HeF07xp+Jzc29em9bueoIS5/fY1uTyxJmzAKtoX6vFKxf+MCS/9eWzoe5d//kSoUarK5g8LD6rqln90aRZALCZiCtoiJR2ULoHPWx3gvDk4/wZ0V3Wt+mzBW1QoM/U8JOEqiUsIzDgmGVmkxygRYLwhgtrBtayIvEz0rMWexyMN6CZO/DKzBZtQAp21eFXUR1Ob1S3eHzcJS6Ph7Vnb6/K+c1gXnn8bllL7zCM+dSkgCEl1moIRNVEvTm/8OUduARI8hKozZj28m6S08KJ6z6thYpI7DlEhz/+RgUpAUd9tahD4Av/etvXPTLCT1gR1xaEhQ38lyQ+wwxbu20J3PWESQ53S1G2W0NU7GJhkUCZ4+qMpoGBDUI5JnuHGnodqg7OEWx8qQie6VTjcYlS66mRndkCdOmo1ttvFwpb9J9oKYNTeg8IngKkRNUVKbB2FwwPwhdc4zMdqdoTVtyITqUVxk8IjuKUHpub+moKr2DeErRFcwsMSUAVNcxU7MZqfO4Dz7CoZbDJSOtpiyIUqthQs+MWo2vhgq6j7D4mUYXrh6gVjz/hzT/VGPdr1fsofLN59WdTuQlWL4wDbAyW8q0hXDGdfFolG2FKOiQPqA9JNxpX116qNIhBYY6SuK/IQ6BcquZeNFy4WJKfd4JWb8g8NAB6Jf1bEWDie0LvS9EYW+Tm097X9wv9EKW4iOzNDwKrN1jWADUA1aqZmwuZaKVLOL1NCEWDJU5fFHL0uK3Vp27pwUA2KBYGlsAF+NwHkWkbDLLfbQxi+5ysYIlYn3OepDRAzdyL0jzwIG+tD6fnFkxGe0BHeN8mIq+Xb4/VtSl+8i2Ky8OLsh/p+eUuM++NSGeheLiw0qEQKgMTvk9NuZm3y9B51JZJ9dQKx5K73ZoNst5f2iwaAGSKRjpRLNeqCiiIjl20/30stOfIQiM6ayHSBZ9ahBv9Y5p7LDnROzoQKiFlwg4iOy0rWWxGdhdMbErCS41mj1VE8LRnMQaCLiag8DgMeDFKxc+QVS7stI3KuytBMTNg5i0Ly8jA1K/RzrUsKsox1rT3qHwuLUEKgXaA528TQCCbtNtDm75Y1p6VFrA7tCDTxqIhXYYmsU7s2y/sebMRMN6/KqWIFdK6ETcTmsK5+QKF57XEC3UMcY5oFqAA4e5nSAphlICvUheJqBLKbf2dpTuC+OlO3J/Yr0EDjyE+KAzdHhaSL0Wt4KKwEJu0LmzDtSPszOiAuDpLEHY85CgrDCnF+wujR/fedDfxBDkrahudPVkpFKnD5x+AgCOQJcCXkp8jeRXx5tcfSsGaLy/w4tNFBX26MBLJHftONH8vjAMDJAFVo0QkayeGz8KcCbR664E0Xih/vZXdGbbH9L7SUFqVLOuKAv2RDq4C1uwchLutEWDtsbAxfcvpAe261dwoHXgCqSXQOggT8ntHhln5G6zMR3Ze28L9louIiriOfwMJqisVNlgoq7CixYwl0oyr0uovDCL8y+bKj8wv35avP/bOp3C2qeTZY9rzSTDfCmxAyR6xMY6laqqA5cW+//lrqtdBy2Tx5gkR8sUodb5p2FMjHJC7NZydhNZhDCYV3P07oy0UnAsCv+mqtd4ocMWJzWv2g6Zgq8Wml4uqD3dl8hRX8dPMV03UtaDKOQZgtC6ucyXSE6QdjyGq6qo7SUFuiVJ8mqGRtCSXJtKd/wrHI6f7sPr9lqh7WqnOfG8MG0U04vxrjcwLPDkcsarVktEpBIdNGht6hbRO04Lh9N9Zu9I0ANdowWvBZcbw15YgbWuDKCYtW+qzub67COzCIKaK99HxmQPbvPKwBB5a0V8QW7OTxeALvBSxQ1h/gH6nkgNUwP7J9L0WOXphzJ2jdow8tgnHvtvt07yy3xi3DkT6xtDeqRyXiZqcS/feb0s5wEe+PpUCS4sKDQrepnrq/j9yu+aPYWZTE2v1TwzLYsiKqB8M/wv/72t9tYSGYGQAIoDDRuRqriipcdfUtfy5rjxU0u0u9hUtZ6kJ8STpZsRsnJqzz2/4l+n1YcqzdIsla3MMN33TrzaFHm/cGu0DD7DFzo404frq7J8mbNdMPYWAKIudHnDehQUH/SJJXgGwbMKrdRTZJ8OtC68yTAw1vLI+M/JhPfRYaZ2u5uKonGRTrsiUgzMA4A6koqTLGEiGFlAIbQr+yKbPtzlIefxd/X6Pj4hq65deJI2CumIyvbTXTmJGVZqeJ7qUB4vTL5972+FHh+UdxjYkV4h0iM9RPfT8s7Qd8h3jW6BFa6rhcvdESd0Dh5ZLYy5tKmv2MDNnhS2DjUBlS42PKB+pTcVABatYjPioBBQvxlJfhffVWiFL2Rv0EApzzghYedbikSGmqLtVA0obBBFYvvul8QBYJItbjfY2qMs+1Fq+yRbnv51VCaqw+kh0SU0xqoAWRl61/U5sMMypZ/BfWQy3pfinre3Pz4avozgXYBsKX2t29zuEtDM4ZPqynG5XwWXXyobF8H6WH2vggYFrK+t7GB9eeHuzVbDlpk5qUY/8HPjWcLn5gplSb8rNbCalQBWq4JYxuxZBaILw0vI+9C/b6Icfy6ctsbsXOQaaE3QnPVObB/6j/2+aVlFioC4hkuBZNO+qHiEvw2CmbFgHmv8hnh63KbGvfbWKGtadlD6gWq/rjnoTLs6t6Q1cEDzTSCBZA4QAl+HpiHbtbATd9sCkYoAqZjBHSA9IUv3un4y2nU7rqXZ5yAld6bST+vgGLB2fMBOAef0+F6gszN0otk2eOxb+KUPgDyFoNJ29/Rd+4q+XU+4f2xXnq6+cOrF59hW7PTDdEi2Oc8lh3FSRttpz82maAtRAMW3D3Zo/GAKNfpPKh2kIk0UW1ameqpVKRLhrX4wDQAtwX6/XswAaTM/hu+OSw9N67xpBb+l8fEX5WCFoeXceocPgXcnK/B2CRmw/STyCdpjTI1SPruX1CXNLGoM66eOaKiwX6cw28awJkPypwmf9JPq4S9pSG+Cin+T+og7/2tXVIsNFJY+nVca4JEev3Gb5OWd3iFlkQ2AgoUWw4tKYQBuDYgOKhxy9aj5VHS3MWbfBM5FE2ZFkTWSU3wAcynZAG62/XxrRgFhOxx56a5rtSJ+epWTerksoR3GV+AWHs5ZYNk/r7J8kXXW8Htv2unLNQesV6xmxQ2sH3PS6PbTlhd3w8hwYEbL0gSXbwsVYT+TvgMOmlCxJAoDMlmx7i8nmB2/84UN2944+HqEOfa35k8I0oO0PFJ3ZFSBjDBKECmAAGZ6Hv5bgNxjBZvhTXt3UoekFUj8PAefYMy/l9HVh+nruaDum23ramMxrIoHZd6rh+rqqtRacs5bMPdhR6gblzwgaBwbdubMam3iY1ImcQpPAcfLy8p/6/dF5Pr6+DB8PBPIHl3gh+hGWj7pduLZV0Bd/a/MRYdMLTmNnjWAsSYCa2QzZonin/r/Wxx8mk9+ZD38yPyCDDI95nniAW5iv72Sm9KM/CwAJKcKpHuUcDqvag/YiRv4e2CLU93+TeYWhdeHWa4dday4rYu4g+fpk/Gf/W6eeCoJEix/yQz6rV4hMTDUyWjXmUxUd2e6Rr3O7VlExvYtJdTnJ+G+E+ytJdxKG0p/M+Bmvj0FT7Z8r8A4YUqRgQ+TTuZbn+jnyeRQvo1mNSxZSh7bEI/jXaPna3gPBE/BdqIy3D4F/mjjd01891W/5g4HPxlLYmZDqYqnWJjW/ldzfuji3t4C7eIBt5IDTE5gjzG2D4ivKr0pnsH2I908ix4eIfmbffcznlowbucbKjHLlz4T2t3pV94p7UcWnS+WiUxM/JDOFuyreXVZNSacbB5wA88Wn89cxs/0v5uMyn9SFrlWFKStVu7SvrCvN3DH98TmkP05HiYgtOWDnBAS4PZJ+3mz6PDk+ZD8e4T1icu5b3UjLfv2f9hZvRTjDpRRZFN/QS5kSu3FaJIAslviEL9StZ/iDZH41Al+MX20tfu8Zr0X7LEIK/zTy/7J+z1zDNdrptxP/t5JG08HopfzNM/vtpxiXkI1F9z9qsMj2r/zh22R7fwH48+XKN48y/k8e/cf/Zv3rb3Z66JoJzFynygHVaBhC4R36O2PYmorb5r3+fHf0iqdae4TP0VB8HycKULxRBfI4pwFw7R6lNAwuTAhxakdgbzuk+Jb2w+QnDn/p01OIK0wl9VKOx9XbR+9tXRDkWeWsOyA3FFVc++2a1rKcCUMzFT6wbQU0XVacgk52G9AYLqEytQKtkgQqXQWaqrIAMEap0uGQd4imV6mkdSAItJZaP7TXjK1hc4hLYEC05RChMKOGd6xWLcrc7JIaqKHfIG4T0rlmNJbROVdkgjmLMa7G/lvo6fPYK+cVk3oABnCmNEl8OSpHAMDlcc5PaIWVZRVDG6liA4Hqkc/cd8esYOFg9VcXPKAgZGBYg5ayCBoqN1ERQIIIwV5wINkJBgfXGvJgQVMAB2hH4DNNqIFqRQwRslYEs8sygPFQrtBcwtF2ynKU+hKE0bQXuTlmI/9TZ7VF9fiEkSkzvE8d6h3mZ894bloNIh+TK7yYQIGLeWvbBbPZ2Wxht0QJrMW0WHdnH/370jWP95OalFI6cCE21ZvZVpBGMcxE4ZTJ/IoVWJqtmlmvQSxgoQuDxUhFeyyiROhBtX6FzzCdYz6A5qbQamB/pPRfHVCPc88SKPUpUtmqkFczzcQFsO7927ZG9/DEo40ym5SjOIyYz98om9wTDOAU8s/qWAn5H/d660LCO9/PMK4ET8idmNwoOpFiq87wo8x+Fc/nQyRyQQFQaLkEFQI8lbVFO1sw5m8qotznzwepq8VWl6MwuRkJqxbn8Wgbf6AeqEMaQSU9qxXfQCspL3gInvnTS1bVejzuOXdSN0cp5jknzmydmGoDCFAHkQ6IzGjrjc0cC81IUgeUE3pHOiPM4512/6/5ru0xI1Hf7vzBp4JHkxMaNCfaJ/cCABYTIFORXRFFlYmKEdO+WHSKoERpUOOwCIGlTyz/TqD1HPHwcWrZQZ0gwopZmRQqgbsEjBJEMjuJ3VWCgCUxCygfCwbgppAvnWbYZglrCPHEykNu96R296LcnaNMwI3I1nfzvTh1n56NpzUDsDl97FRZYOMHCLXRIo7iKpDE/CVZzjYvCAuBDvFPifDBhTORttZC0ESxNhIRRjr1mtzqHkN8YN+X2Zd0tCaUi0GFEIb/NNlmyDV6p56YCP2xEqHVLWAVQaawnYAn8ZxpSUSNQaAlLlPWSatWvHVajmnNwkk1a2hOodC7vt2IMQmqgtT4nMHuoy0ckpq08x+dnHDVkYSWqoEmc3TLCPZAtMTuteEj0JKi7bjk8+GxDYu+auZOeAhVRXoLhA3p2ow6GUS5rD1DUdKKO3MgLYmogMHOsKVO4Zg74OC4UCvn5ijjZdkWbnOHQx2gEjRhaMwuGo4c9nW0TknRESikULCF3+toaTW1fFO0RPji101wLjbAef69T6P4MAXA9krqaUlHOkKlVY/ZzIYb+d7iiSP5dkVpq+IXc/f/Zm3XFdb6VitMIflQ1Oap9XoiKW1AyEGEgWwGvr85ZBhgVdoR9hHUOEfYqGY0oxgrmCWvqtBHEUPPO1GGWOJMJ1rDz+1KGXAchsDtlaoEcAFETAHUvc5X8YHuWkd8Ssm/W8nVsABBwqXjbSVCuSwpdiF0wWoZEYzYH2v3MTfN+Wyau1zGojp9WGhdkLYhisV2TJ79OSc/s+jgQj6tYuEGQ7Q4TcuCtQArE1ytzbKJYxmLLBizK+NbG/i+Ki9hpv58YsqlAY92yNQGNYD0kZmlNEpAJi1buq4m5tv0O09ujlRhD2xdjJNl+mENpwFIbOmzme15EC3s7Ns6xbJjR5yt5YOqqQy6UpVqsRcbzBTXs3IFLAYnqDsKw8woNVHJ9IGxQsKiuaRhZ8RYtV+spah8jOYua+7MxXDHddpGAJI226xbm1I7Eme8TlYJHInmSR9ftWQLQrH4+Wg7tvtceBrMxzyCVZeps3nTFe+SnphqDA0RzNMW14m2xRYd1i4lhwTEnfxQpBVF4RuAk5joa3h6vcGM1xwdMi6/HKA8sagj+DBAtCS02w3tFKt3qYF/VRIF4ByL2NoxF+yVNL94GfkvvkPH99/svWXZe5uxK4NNMgDiLPfa13bOLWzQCL5ydERTpA3ed6z4gbjY17vcECpEg+qDjWcY7saKApFNU4QNtYri3ib+f7vWFZgstGqammtAvdaQhe7ugIBNoCUcZl9bFcnG4tzFKgSyjDwkbHVlL8o9J8RQLdgpI0iuRT9umPT8Fj2jSTm/5GCxb9an3ltxQD42t+2FpquPUZTMIwAJJjlFMfJgGXjtPazNViHIOOOmUgOShcTWh0y8r41fZmNvPpJWl6xchuMZ1XzFIbfZSPtKD3tPk42TbA7iWQwZ3q4/4Bl+Ib5G+yIdVquBuImCaJQ50ANr/v4CdvZBB+uIc1Ydic1s346OHjvSkMqwFluAiWE9FFW65jmwlOxZDKfNcDMM7uEtKNrMm8AA8lhcwA0Q484tSl46bRzXTH7B4sQOTjvke9993LK5j3vfF0XRIgwIfOtrBj6o74OkCbklE0rWZteThyY1ATyuwmOK0ybobuASb+3UCAthnJPJWwDzmXotRckxcBSaWWUsP648M87AvqJeBl1BzjZqzBdEHgJB3C0zgEXJLdjnh3zvE6KBJZQNlLrRlz4JxO64gCyHbMspZPgRekyARKof8ukxd6xbewEOQMgaUwyVw4pPlYyaztT24JLAxO6exYDp9SO1VtmHlHeVVEMArUqAanSy5o+BO2czw0KjE6DohCliK1aE2TnADdsiC5YDmaVt5QfNClEtqq6Gtyi7Rm5PG9qzfrU7bqjnenX6djN0LA7DM1Cj2qGSSO7YDHrKn/p39vQ9PjY8fjpevB/ocjAoYECESIgTod3MGk1thB58IHELslNr3ODMtQD0zFdTyPh0zgP+RMN+Nzr8ymtC7raWBI1jYaMASZEQZM1hB6/ZYA+3rEWJdgFYgAqhDWqLoWanr9ZVJDngsZnmZV0Uso0tQUzn3OUF4+h/7kmoMRP7DgCPdF3cqgGdyAnQC1o7zQqkQIpyegdIZP+LBah9ZejBHppnnRsCLzQNkR5i9iGKHzy+eAE62n/RjntxXoBNpcXwbF8Aha30aAI1ByMhSyMjmCLrq2L4RsNHOwtUtL7FFBC97Y4maSkMRTiSTBMlYKUaFqdradqCEwkiSt7j/FqMiQyC62SpfMNxYzXOsiKvubiQiggDFelugoaAjQhkaWjntR6F6x40XmGyOPFcNI3jgEmhOU0q0b54rYvnptJutx021BmfeKXxDz4pl5yJ9hVC9OQZIGHxl0FPtAZP1yodyoCVgATrtKMU5qr7AbxvJZ22dyHYZNcU+fPJjZEnzLVw9TfIL1paKsRuNpUTlkgm223fTYmWS6gGhaEkIqJ3I3ZPPqLO12TubUq05iQaiPrmN3CFjhFNpcWaFPm5Iq91ZTM69mLDMUPJCUJi54iFoDH6U6L3ShMx5GkS7NXUeuxVEl8Plhxg+Wvq58i8ZWepMdH7ymIcjFBOuN3JX8RZLgijkSvFAeIh07V52wpHeW3j1x5jR0SOOVtnrm0Xyb6pLOEjhJnDZISMhZXdnnMAwAYbwRByyFr1RlMPMcRmY+EwYHWbVoOoIrk6K30EAXM0O2iMD+0h6ZB4/2QSu1WiWfe96vDqQ1WJSjEU9z0JAJCBtXl7JlJofQSGBRfuYzcNWpQ9JtfOVAGg+kbuLrXEvV1u7FUC2yBipZRsAilJpJpwrLPsqJMhZ6IMM+f4Ku/SXKNLU7qQWJJQJyv1Bq9yT1Jk2E2Z900NVEA/DEkPHojXWcUvhukOzMbu8sotXm6Nr/v5eNbVTiaADGw8QXKRBVgHAmgBBEFWVpQatALBucxD+7ND5yz7/GcIw0+iIWmo1EH9tASgIjXDJfRdxn92M18LVorTGApr0cUEK/CAYKqElHQQ/XwPYgrcySDqUG28puOYmstR7puUnYoDgo3iU59RzfPb6G/GG9fzViIXNZKtUX0NH9eB4NwD057+BvlrmEGJSD5DG4pjrZ2vKkeGLsaHYN8iUQ0nnnidV1Pn5aUvqhe03/J28PDCApjkS1BkOTWuMAStGwBJDvao1oE/WuqPlyO8f2q5FLDSRBiCur6wIfd9C+z7HVGH8sYwquWxfXu8QO5GrC0rP7acKkHAM/wRCwDtJpWTS9gN4zVCGKMYs+JwOzevkBJIxaxi253I7jhe1/XXGgYfldiOV0ifEY2vWMKT2Wa52vamgjAUQ5J8mKIiQQKMY7iwBdOlAKkb4DdmwfOqzC1o2rAH01hZUcs6mOSPwF3aBgMVAmdtz6NkpevN/MJIUcnm999L+Z4QvhDT0esq6lKLe1F2iwNSKnIyuoUgANC0GKYzzA6nWMs5HvcMdsflXwCRCNGz2vgyuz329+srRnYl2XYZU6pombBmnPJg4Ryohkarll7hmN69thSIhh8ZGXEHWmizRFG1GU16Cbqjv24SxMqQZ9eTJEHg28ZPJgca7F5vS7Aez+GDBgAByIu9pCBpLctLxrXhWiDsuPUou+hQYEYiWnYnGljvXHxTbezSW8PKDce8AHenuqLF0IFTvKKs0iBjskuoLMzUZDgiBV8eil0/ss6LsZ/mI8gkBGLdqynA7IZ+U3gAHMK9oUm09NrsLm4L1GpyVdYcfeYhJ7qUBjxCIhQTIpwglOpE8TkLhChVLL/lgFayGcwUTrnUKe3LqcxeSZrbk80W0ePWBOIABd8LmHCDzq6l44a0BfXLWpfvOVOHLEU5feIozsA0RznOS/qLTnF2kIB+ljgBLa7dhWBZZGcuiqAAJidK34F1mQeJzwBvu/JGvUAs81ru9uS/HT7JHFlg9db8APlaIS3DMviE6F76EDJPFhSTEk1+SEd0hJSUQ6i+QZVQTPoG3DsIgvzbfMt/lVYyWmuz0uuZPf7KsRDg9rWV6eVtaMPIZ08p7j7uxnG6++CoaroLo3bD7Nfj82NdI1sOkunbc66y+4jtijyUC1JlT3y2mm3QcEQVEBvqahUKSrWCOY2Zzqgu9D50gVOc0myDFA4z2GlfNK9q3AaKEaoIxNLfIP2N6HAPw6BSsbIuY3pcbU5VaR0Erpg8ZI4YYbY2zDkMmHQcJxQZUzbV7NZnbWiCdo0Yrh9eTfUB3Qcgla9CuQizI90eKlZKf6FXeC3Mw9rXxPbFJUCmMmeBGFEZun6y/1O0b63ydoA7C1ZT1e/2agp6FcHjBBEK0BsUqeylWA1zm/1rCKuJcxK1HiiHUnAIAWZAkoYwDeFulLL8+YrSZrAn6whhncPZDCU3/LXD7XWW5UVoWz5LCmVTDWexH6CzvNGgWiUXdpcAkZ9/OdhEjoaNIUUx3kWS4ZxzIifjTDICcFyDtAXCLvg4HVsbiivH7TEul8d1L74dwi8RngE2hAUxPW4Kb0X/j8xnmIW1mTyhglVISS/1WyNc2kpeBsp1K9yBHTYuPY02/owqp07hQskgSwURtZ5tD/MAMuhjqG85vC2yCi/I3twT+XfEYdUZaIJCT9Y+mdWXeg0OFQu2AGR/votpLyBNDID+Z3sDI19725LQhNYp2HwopSAggTwqA1W3TGjWqF+vAP4KTh7J9SyjD+2Hee+ZNACqFDEN5K+WNRhVa2sVz4CKzrYOME0FNDgkREIOmda8fygNUEsRo6kDQves+yGCRSJILQbAFvsV5aNoc7wVrxxGOEJcFRZAqBVyq5KBNp2GoYMx5Trq6xDcJ1h3xmviH0bQu4BJpF7pEE4yQSqjXHwXxYF/mbP812UdVi9OSkFqxQphl7Mke7eLy/LfHLORKGbxg5iq1zmjuo45kHPW3ekBHA5459JRFC1O6V22ql8UGWLofrOPFRP00VHhiQXEgIGnZISmnPfWjuQdiyYpwnrbUd2ZbnmhGZVfL8NwlrmtcijxJVe7TiBJjpN8h8c4TEVDFG6peELrR7D1sUaZwcIUNqi6i+F1jFurcdnTrLdz1u48R6TGCoIygTzz4VQs7eLxca9QkBbAq0+8F7ULzDsoi0ETTRhjrQXHj5kHQwQPyN+m4G1Fs/RpjaXUHAwRYjnyv7QDGgb20i7VjQ7DPe6oU5WTO1FbfIhhZ0TVge8LspgsjvaT/IfMN+j/M/8z929E9Mv3IJ4krwjeWTkX86DiqJSOc7LhKpwHYNHrW3jvtlJzzXjvyUk+zuumAYpiAiF5x5qIuu69ytDnF+lQlqTfySr5Fb8HpeZGr07lyGD0mWyWZH6xi/RLMKf4Q7b/P7F33ibsPdCSmIwzQ6Q5M2JaCyyBud2qk0StE9gkS2SvbN2/1BL/K+z1njx1VQXJmmir8ptM/ph/jEjehhkLLJahwtIJHxtFShjWgqVOAeu4cvXIh0zjXUrkSDNv5DTKfX02zur9NiDXI7Xj5PiWbr5gOPjMycXovcqOg6LwryXHLiz+62nPIisFaJZLZCkwvnlkcOKnf5vEfdazS+Zb5N5t1FapBXSAwnbfknPru98hnJqcJDi6mzSLD4E4fb8pFFyeQ6zToX7PnSP5dYYvlQ7hdcv0y389EjVwIonyxyuKQsp9q/2mkw5HssVmXWDdShQuUwfgSMbgyEK7YtUeI0iC2QqAXCNqfWPofOY6r1Sv35XT+5NNXXsL83BVoCy0QCJIQ4haoUIiaLwDLMZF87zKtXHPqtNsWjaLXVbYmgD1Zt1u02EhHymzmYgYLzK7yCS+ZvjhNp99+Zc0/cVVk8yckLVHYI6cIIHyDtyO7YJzicH5r0Vu1B/pvILzs0/8zhniDcK+dCaS3hgagUf7fHV+FI0/TXcsR+/hfrmHoS6B7/pcj8+/vvteid6HjuKigfnOv1buSM4V24U34vmgqRhvzD81R/8X35f+Fy38Z95F3txY4xnQjb/9ffETDD4tPU9ADxaNSbBX8PKe/OMpvkfX5MVHxXvJ7YYZ8bBJpJt/tRJF2n6GcoAGp+v7y57X45vzPYKCOW5FeQ0WcbUgulRiOBf8CKa0eMAYu5+Mmhb7m8fc3r1r/9ZN9wff9/OK0UrME/dIK6zaVqyoy4guVK3emElI/CzgyrZvWOH9jqyb9A43Wfl8mvx56C9V88dTAqO0PAXkbsjHT/z91Pf1ERLTjO3dtucPQaFAXFTpciv4JRw/BO3jSNAHI8qR3eeMH7eMT5dL+0WY/V0/Yny/rpZ/PJDbviuMkzGQGUyNa8kLyqoAE3jgXPy3t/gfPmU+mOt1/UEMpYj80fVR6006TLhuyY+/GHn72Lb1VpyFn53A7gtQFdgkudp/z8y5NczG0AbntHVOg4Mf7FjQFsEAEGisDum5dCJVjfhGO760aOd/33/T+9kJ9E1skBpYUYL/XId19X5j23pWXPFT/c9Gt9VZlHEdqklpmMtUeai6vtR9kfdU7kYjMc6KXLERGToxf3IGmCiyrFiYaGJ679f6Jd99C88f3nh3MN947HKEwQgyTETEdFOhKcEg9282hKazDpsaluMoglIEZ2w9Rl3RdE118z0hS/shHX+ciyKsx46z1jDO4fJ7W9dyD8fclm2wOicKj+N8Z49+sh+RBgBwDq29Gc4JJTGqGOPYDamtc84viwvqnnB8qIPfwPKG1nZXwW/fGGUFKO0LVsJAj06slzCU8EkUKtZESqjns9DM4PSi/PiuBOXDG+lfGC1YKE3eIHm7vNPm9/fNU3Frjfmkl2X+cdtMv0jQZlYTFhgmJv/6ltr2xTkkDmMBkhKFNEWYHsx9Fhzq8sFhX2BSSSCaSBV48RqRngKdltSjxys2X8Ja4slRkyNXfGVOLw7ptFSVqBIYkfFOIGm4JhzYtcfS5YF31nn5O89CuQ0YViQl390G0J5pQ07FtQWDQGdmAxbF21GLRTQUyvoDYQURCPGBOFGlqMgaJ5+H3khbRVHELFcuJ8Wk3OOoGvRQd16ITPv+HanFTelyOCsCKxCOMaJvPUU1AIsT/bA/fOaQcxFgrSxuswxv3uGQQF4hMARbwDJeFJMoZHBfTCeqhaFicczCYzqXCshJVPW5uXnftfqzhqVxyZd9Zfozn3RoUeZ6BApTwVLCl/IFCADl8st7Wm9zvm4SoNyPUo7XLqpSbIgNV7MaSzen3KDCd6ISf/snQSEWbdoqlZ18ve1/xNRd7hL/29Y230KyizmMnAQLWJRIla5VYGX3yHDCLYlFCwcl2F1rOEFVVvHBcPYNX8GrxqeonIVrWPaqha1PqeABBOioAVxOmG5Lp2/Qc/iYFe30dokvm/PxY3N1GSFnY2Q31+oVYwYQVUJtJ89QAokSKEQEGeIAhViLQj2A5DgNl1daqSmQK3evAbzADemgbPU+u3xX+vF3W90XlpMvS1Ju9krbwqLTQmtnNTEouMJCqCuW5qFlZwAUJE6RJB6Vm3yZx+VW+cy9juU5z6Z+JjL7ZEoN/bZOx7W0CpoAga2tRq+6dErXaV9m7jlfocM+5EB9raoKoClsCJkI1XBb+y/4C2pBigMT9yT5dGkDajoEEELj0hcoLPpwZWEWaST9ai26OJjzBvQEpATA6oFFFowyW8VnVFj9hutR5wD14gEUoV2u2euyOqkxWE7r0HRDnXRaojSCOWziZLG7s92M3YkWukVtAsjcnHmVUdmotWXTvPTJa5kaQZP4N4JPPhfrfAlFSO+m9yl986jBLIJYaKtWwniMojVjw+OV5IY++IOQ7N+0Sw8y6yT1s5TikoUuQaQAlQGtjrxmy3NBj+MBQY5si2hFb+KtiANUneacGeM/nHKViZCFgMFZpaXXBFgZc6uoQg5ju8hHgj/VV8EfB7kHqdMjWSZ0DaDhGJVUouARXRfcfG6Jy/RVDqFY3k8nTjyyGtmgEx1793gkw2n2qNgeAraBlCbclAebQTXweFj9E/2H0lMGHcHDvdinXTujDQRDMpVMRlHiL8+9XZ7HtmL9i7/12wIogI41cfV3GMNr2Lw0hMVJ28fYMur8+zcev3YHM9umVn3wz/3NNu8YpCZa423mBSPsHh3feYsxXIhVAdsDbL51bQuQJylkiatLsGs3VwU8V7xMdnMFqGSjVUlWRSIkXUqj1JonRZVmJGla68DoMMMXji73Mc+i51m9Am+9CddCYPc5CSkmFNj/WM2F5EL1EZFF2QF7G2k9oREBaqDPACLmZfOftX7M782LwqBFFgbPq/+NkT1BoQKsPzAQ1GPVv+O+J8BE/1wNse4dKE2flTaEknJpdIDEaCMdvUkyqp6eXfjFp6hB7kpagOLU/Mrx2k/Jr+9ksQLYOqoziUhLRBLEV+5hQbQgf1J+NQTmgZ5d0BvgchvSGhBZM8ESRPhmR6rT+YoG7fifrRbmng96zneczPnK3Ux3a53KVR7Oe1ctbkv0pZ8LFf7zKMSGrx1vFyjNDCBz2DvCtNs2a0Ge5+dplPlkIs2Icy2VS6XogVThdisZ1MLpkjMYsFLib/Nc4qn2AfRtkKRkAW4USOwOArpAfyBtNWCc2DV1aUnkq9zdCA827++0JtZVVN4oZj9wIsbVDsbKQVILWDepE+2jIIwMMajho3fhapZGhGgS4CVYa+U32diuFf83oHv79/JDMEs7nisYYYBiu0L8eCXYzU9QENch6q4SefgOuihVDN61B3VRH3Xet689eBNgJdTc/++7Kd9wIlDyQHBRcjV053pVB0dzmzitZl7Rb1Smr5g/mporTKKAsk9bl/DS2n58cBxtWH2FkkWIFvvu+iSZSMOeQCrXU8tfI8owc43vob2K5FNY25i9nlNecM8re+xIzjxWkkFSP0f+LQ6xJhQaD1bt/J8FqxwH0UwRQ9lTfPJQ5CR0SfmqZ5spfQJSKi3UmVU6+CjkkKiWQjv0wKyHk/xT189QofJww+R9C+0hs6RVqevlwv6iqKeRXSNoenrh+IaOoKJKQNEEkFrPRPd4dnEnhjmKPLVrRKs/WW+RqIvaScuHd8V2Q+3yjgoW9EIWeAA2dgCiT2hoZ+sBCKHjxbC5wfnErFYX33vovcxIo3dor+LltfNqZtrSXu74+QG2RbLijF8FYb3HrbHyeEQki+Pv3fCJ7HefjnxoOjTETklATQWxeRtixj8zUYor6CS8ET+omf2bhdAdq46J8cdWc9vIUYAoF1DbqTtXLpBAyaUHu6Rd25rBgIK/UAg7VACIhfPMfchmnoqlMZXXxIyGQqygC/lBJ5QDOJFJ1inagyBhLLqFxlL0nstXyiiXQf38P8ucVeKi9e9/QDy8dIJKUUGe5EeehgVYlYfUQRINmg8lXCrYiSujSS4iPa5FQXIxyKOer2rsxFW7t0PlDZ9R/FvvY/vc3pcnF+kfhVwRHB86m1v3tIC6cVzZP+iDFlxBzY7AG5KLTcZeJ8xrgyFmsmzRfoyZD0Q9hqH2rLliAz6kxAjftbpDNs80VdxGhRdZqMWUvtwb+lfO+9Toeq4X2vySV7QapoIIQXrwA+Y66K3IccXmykiNWNt7RdgrYIjNrXkzED4YCeFC3RsMBeRZdWFANMqmTw18hDw1qPiAFPLArJJRdPZ/y6lwE8lc51XaQwM1auNELledYl2ayATrs9NsUUA3NZoOUG/9ENrW5MXdSHaMl0OWZaURWQvsod7KSb6vOkZjUjG9ybVGOZW6Mjo6O9gx5VMl9KlKhKrSeghJt3v3hyUDCN0a1nQzL9nwRz0WJb6h10zVBGmOYp9oXRJWWAVTYSgbmGt+XBrOZo0VoHCccJMX9n3L5FVqr83Y9CTvct1OJ+8nOJduaQwUHUgCNKO5ve0jR82N2rK7DekKXdNSPIql2NaiXjZL4ZT9hIfCLlyXKorRfZrscIrhf+993avKZSo/irzGrgxVD6l+sBqiqWn5zHgd68A5tOz3POSqFvZC1eQ+FJT1Y0Ca3VrfMfWWBXzlde85d1JaPzpQm6OVpaSZqKqWVlibBFVNwja4pQfwnP7MJAO1jTCW73TqhB1SJW7RtX/nHF8GjjlWxjQ/NZwC4h2mJZUphTO1bUXD/UiW2HVTekT2kOQgSxd3yGMnYzSvMd534jgnzqzzQSx9Jq6S8rbr02RPpNXnP5O+R+HYms46RtvPVogJUHXKYgn5NOSluBy5PGMDNv/UVl7WlUUYlyRhYNi+R8zeEtEkNHpUegzaa+JPt1MhbZDeApQELdK17o+GBM8q3WfW0bUGM2NQ4ZN69907OqLcuOZA5ISgqC+zbjI4sRJLYZ3T+bZE57W20S0X5gtNExpCIdXFoL5cmvFSaG39rBLQJMxAGsjxALYPFgUBgOM9739PUDDSHiHcxmcN4Xe5FhBHcHoIgQ6ESJEwGzkBjWg5ogopEFre45pwN0q71iL24lh1kY1Mq8VAbJl51U5OT65qyV4B9T/HCZiz109o1arP7o8bwEyXvhtyWd2kW2/NInxANHH3O2ROBvfRszM8ZvDIWbkSYvcllSILtE7jOhB74XhjwinG2Dpr8u6hNkYrZMpFNTTKdAyUKTTBWKeBjoFjTrQx8r3VrSubTH10QqM9sbXd0iDHOg56Y6i9yAqjsY7IScIUY4vs34EZ5RK7MUf2bfMEwI9Q1kCrTKqUHbdg3Xstv9XYApJmsw9y3OFeRJaP6n4Ny6/xG5aZ/39lgZiATFPhaMJTbw3mWrRD2ySbR5uSpR3a5nx/Ljs0KU35+zGiGEmhbdg6I76uQEgWWdckihaT2J6/In+Izd58w3TC6q4QjIEVoOq7tt9y8Zbr9uijHh9J2GTw/HAFQKh0jnhqCVKO2QelP9lgl1aORhdeI4nOZj+vR3JY1DVAfCCXT3EK1XAqc3+Njzy02PhRUQCkmcV8QRgS9DDVi/ECxWWmnEIWPM3AjHBl7v5cPBmghKAIZPVedv4qzk4lefIl1fQDDkUQDjVWLJRbAQ8PRONCMS4d5MDlyk4rEkzlQMpOdlEKNU1V6aPUAT1MMHgR/mDDq1gzgPvd77hlfKhMqzU614omqNDOoBb0MNQ9IYBEgg5Nj16zW5cr2XYXlvL9iRye4oPKb4u8qQ9StQhYQ9W46kmY0BNvN5n8icmkj0oIuC3akzZRaVHp6fjedhloELtBnluuKSV96Ufs94eyxYc2gQhAPd8IL1qy/El7d7SOmZS6j9EaqfNCoTrTcoWOP66UmzIeEtMWOsQQWCbaAz4Y2BrX2J5EUjqxp+KhbojevFROvpcW4AL0rTZcZ4ewjexUxmPfRW/DtjbcZ4GGGaFlFqMHPJH+Xjso4s0HAUuxZshycG9UeEcb/cvhJ9R+huQPLJvEXFyA6icBSTgpE34Wlrwpq3RkMG510lpqa7RHkrJMLFiv1MXV5oE4IJALgRt5vF1JfZIaCbWknW7Mj7rxhO9BntPF/CJwAbb2j8o3usfqNIUOFywPDUGY6q3Fsnhc3maXpVBybL1FllmrXS1aHpHzaGygkFqjk19J6pKPRuIwkIU2Yc35NRUOYlSmia3/At8QS7JhJKy+5IJ1SFMpYUD4WWWW1mN6i2AZ1qkaSd6gkwhY11cPZLb3SKGSYxiyDAiPekAYYj53aFfLSbmyY/dv6zEHhCqwRBC6mDR9Zz8z1ihMLqDO4nAfNfW9yYfxmxFsmREbhondNSCPRvpfJQ6/roxwcGFfDChadyOcaPyoCgAJ10QIprPGJEyAb6aKkL3QO1EPyCeB96LuAMU/6vapmowJKZPISUTEB3Y7VrPgJXUKRFCriF52XnBNX3rNNsp98/t0V6hrJ+pAOg1txuiuXfKhGw+WatVtcCaMhc4o7fxvJpb1XmheukSj30uPVgGiFQtXsuFGWK41pltLtrTHtpDc++ZNfGWL7psY2r+5qRSkqKkPESG1l3pso7VpI5eVbrWsgUfI6Ke+xr616f3jAXJDZlBRyDAPP/Dz6m0Bhdr8GYNy5ocvHUpOA2go3qZ+nyv/sORJCKy/CaWmkUEnJJ0B5vLfueIPduNv5SMb7AdtrDV+uGTOXoCWSs1eht2FDtXScUJbjY4hmCaIv9goOWXHMi0OE6fkQWFHOE85SauC5me+iOixQqqMMUNRSD0wnSsS35IUb3AojTZvRGUiEaZFDGMrk02FopKG0hRbGE9rm+dy9WDLhZ8qVKGbWFXhirGNiv2DHtDADm0EFccAhOZfqFWhboAecFXuhQ5VFIrSOONTtlTTapNQwAEQDkyOJRQxlcprYPVHDxhdV5fGflsFmtYE7OSe7pxXUsIAVCQQBK1NWqr4FBcDY5TZfQmx0RxB6rXUE+nv4reSNt0J1iGB6TqGP9rzx9xpBs6bmc8cFkaQOJHt/zxg6lwpsxe1KXojrKyuUcQjFPMIKSdRT+CxzHtz7+E+hntm83A8+LOfwp8PWmPwbuxNiyQdg9KEWh3hMgxr9513MaG2IJnF2C/V1acenMQC+Vww+6rFUrM/YEpN4cFLfO01bYbwdQ+8X7isEjo9Hsb+QuMg6vYFYcvIlwQqEUlMec3Hf30nCN21i0kZKOwiwWJXhCy3vtyinQMQLYu1ziHZgvonEJgXhHzSLw6yc8yOhjjygINT9axzNttqs/704IObmLvXmI4f7wzBsUY0C0jU9u8lt28HuYQwpCpxFDUEGiaxteIAawY82oqPYp4BUe+HHAajqEUoekDqvdO/mvpdpf/WIX52mGAud74pcCn2kwqsAufh3EficUy2ZUzGxK6Fh0E4EOTNPl6EicExuaJAWh+QUtVTFyLCSYoVuT1BJtLqWxiJzAG1eeeahKHYBiZ4wXIkMcxQpFugw+BOTsZG1VXzGpUmF6IIYzd0IxENVqnGt5MOMvkawY33WmtvRnQemp5wMh1gPekFQbEIKjAqwiCoyL9DQNGKdQfCHiNuCMWFRGvA4sDsRrnOKlpkZycbpgdNigJxFbstgh5pyD47Ai+iPCTIrgrx0TFtNG/5Ow2Hc6FFN0ckz1r+HIDHd9/50LVxRXVRKBLzWj/oKqh4wBBCyVp7FzGfnpvrFAuqefAaJQorFBKUr9FBhx+q6THGaI69eDwAd7BG4+CAS2TET9bzrK5yVbthVBRbRwxwuFa1VNbyNI79yjOr6y/hPFY7mIujOkdDc1859aHTNmQrPbZCNDI8eptGFqckwFfw/RQPD6RchXfYwrnU4gGVfywSVtM3qhnXQCVUKCvjTLptzl4AayN2DIwbLYU5DuUlB6CA6gPZGz5tPdY3IgwfoV5V/UpVNZWuajNJXM+LdFZFzP6sp9AxBL8Pwh2ajvtR+hyzj3YXGp45Ky6hkyezi/EK7DeEGx8it3yEVJiG33RtHObswjHyA8b/Hu68fIR/eCn85BDTIty6RNSA4tVUy5W/uuBU7Lpq/wli3+8+3oDGPA+wSN64lEAANJV+pL8L/wHtfW9PQ5KRiZHYYOIf/FqMcYzEBYMAVk5Tn+s2TyiKGzBvyzk44z343GUren+xwnU4l4fiTsuUDxZ9rwybERKV+oo9X6JN0mbtqnZHLzfyYl80HYyRNVXxo6Rflcf5RzffXJYyRzCuJnenn049gSb3CwsnulgizzOzzvSa7uJG2ClUuxGrMnY29u8S5XkgsrP4/OY8Of3wPk6EcQs/IIHvGtc7rs3M/PR+zl2Tq7cqXSYGQh2os481DDbd3NATFTNjbb0MGdoRzN6g35Bl+VudVhr5yqa9GEt3jDSIh0fwux/tv4zEl00/do4nhmeBZwU2j+EOYlprQSkY2GkMiIByoOSoTAgqaf2G4HgC909T59oE8sEuWvPlz/s5uyoi54fEqY+TFyR8TLvIJCNLMqdE00Iabq6oiHAcbDW1dGPSfb+Qa2MD58/hR4VRuS1T1xLdmKFtYF5yu9fwrTjHs1E7HFp+SHQN2pbhwQK8vnmy6W8L/vRP5e+E9epJUBvNhFOC6QLyLi5PBc9tk8dae5cVMGRECU5IcxkjJdPAONDYJnJD/TgXe296z28a26bEUmYSI/QpYq/MAh3z8CNZIxWGlGdTNTSz7Il9qP1SkMNwKM6r86tXc4xrtXC6C6I04pGYrgk9RtNDU/uRDyOzekI9VS2+dGMKNbroUv8liH88Gy+Prd59yv3lq3a7IFCffR7Sa8j9Ck611pJtuOuj9GqWv/dwo/UAcNyaanV9dQNX6j+JZVYDkzTmDSm/GskQCEyNgyBc3RqguSBVrIjlKqni45BNIAdAvOFdORbcPOrbz8uG9FnRg232ptfcNhyssGqqEGtAJMQkwadsYn7H5Z5fAonQUXHkAKO5Vnx/9asjdAz5eH33TcOMHVKuj3C9nyhk8/1JNA1d5ch69g2V8s983WzrsTH9XZeHk36esNSavaxIsu3OM/jdUR8D5rXigc3nP6pdn2lt/nkcrfYmY3LRhAK/fVJeJJLYP4OV73Yjd29xIFFJE+UNsbue70SIHkd/El8vTIpgROvVnnIoNiQ3xsDA8Gl6/aD+1FH7ewzuFpnOAm8g3HHWaI6QA8AjDwiAmLP2rJV4UGnzEbCsOO9/KVnJoX30bpLc6WMN+0Nfzv42f8PzQtKhJTHVfOgZJsMfgqeyLVoV9QEcFQ/W2d9/aASKsDgAoA+nwWhzpVgW6ci4/32lXwpPbpLS2kWa0/vI33pX/Or3Q4XmZQ6+3MEzWCJSpNCo6w3vz8b5wMv/fPQX7tLNN823S/JEcgqYHoELjbSWjGMvsw3OsUQYCS0scMQQ6StT3KV4a2ZAKlmrghrNcUYuwADHYQAZiA1kRXCJLTmDshM95w491c1t6bjTsRCcJsJ4n24T463Q9kXvEQIGiUJcuOt/iTX2+kSYzFUco1NtcxE0b+KjoJEK7LRqNKW7QLAboQkweVelNAhafdXiWtbbek09g2SHrACSJQOlvsRfLKGuUmSyLMjE1xHqZfaDRifra1cz5N2R8k2onHosJBq4avIZHMlKwTv+B0c+3dBJ19Wc9m5XwGsmG9odF0AFCQjNsIf+u37u0SG/nL5WaPI5xRRDaKGqCokQIDSwUNczNzrKQQmxgCiaOgceRaAeW1VmO8BOCnEURlegWB4n4GjVUvA6O9lbAyXSvvmZhVnTmoxUMw8e5U8tVQpuO0qyQFKEzIIy8fBw0V1u9sMlep2gjprZA0fQ1Kufe1FvGgS8mch8NtuNDKofEC/C7v/07jysIHbenBQcZIZ2ZsUdeOUT133mNQoBA6vswxyuVedRKtYDS62glkldD+12lMB9eSGA7lAFpxY5rDcil1uIAAmdVELmul4aMu0YPzlrV6zvQNfDTW/Gl2O3OYo5cA48zuAttGoCUuYKntWaT7ifyH0qxH9z2Y+fRr+Rc+hjDV3ARcqLmwj0zZuRN4dtAGB31wNxBplGjANJkA0BWg6j2E+Vwe6M0OPg/u0sGraLcrphPctMQDs6Bh54RYHFok2UkgNwKEyEVKRJ0jmvdXgvcWAxUK7qFEVTiX2RTKbua6ToFOBW1YfvRB3x5hWytfvHPNWWTlPE6oG+O35Muer0ak0NsqTsNHmsyPsLqQOtUpYr3SLy3Isb+ByJA1pvz6lHhjcIiHAGydP3+W371I1OSaNUgTl+JR6JXDS6rIqWMQeIDkA9Z9GuJq/rclL7nXVqp9UmVRmaBrXoqkIJdLV2l7LVqqAuvYJN95fMjIfIQUqaTpO0yr18ogL1qAOTWw5hmdUQPqIGEq2xYEAhgJYQkw8bIWo0Iz4LbC19sMt2wsTB6Go0cRfBepqBhTlTGLJJ3Fjt07bjLw90PMi3M7mjMXVppjRU0evOUhiSqM7bDYJWfPHOcPX+/yHKDwF4ST55qndPYuNofMSYaSTWrb67ydXr8JAHdNi7S/Ma8WsjrV0WvO/Um/Z90onN99NO/gGdTvIt5lI1WRgwkTcnlaRQWXnDsvdGVjwlo4jfi+taoDREnYcGnWlhb0u/YvdiH6TUdHkl9OzOg4UfJdibGCaswfM3qcOpMGLTu0/j250+U+a7rNHpnUrBtnt7pgQLJdUw7TlEzDlmR+Mr3FI/a4suJBr9CSEtwgjlAMshrG2dWspPc4FHayygXo+IW0KKJxNSkhiJbG+x25dig7q9lTdNQhyLbf/vkTohD+aOu58Hix1G7ihqUUPSYpMJQczoPXzjxo0HBkCBmqwn7xpu35GOA+yd9WrkloRmVO1P1ZfwUH+/51iXpdZ1dPsD1VeFiD9DjPV++G35rQlaUBF4zHCKhouac5X/2aZexYpLjmXW6TR2Vyrl+Bq7jsHGH6fQYkIEhNu+3dxNoaBDNfEoKCCcn9FdPebeqlvozaY9QzYffD7+expkDWzy7uze4lDJcmAskLgBzhivTqYrWZA9LtBs9gDYO/mye0CsWV/9WeiiapMdA8JCbEbntG1D4jGnacAgo4wcRCXQGS8TntdWFzv/sZtvWnBUSKIgI5zbVzZOoiFY43w70uxAZghV9/8z8QOQusSbm/G4tnALT0TR/0SOzv669Z/bvg13b2b+BZpfyIzV5voO85OV57578p64zH4dMw9pViAFspgtCQwr+8GFmaSIqvAb2X2h3Z/ZtKHGwMwd1y5g8F5rVCHot0vKr4x5by/WqzqwFX9zkFjuuRdPR8N11g4g9Qal5fX1l6P8zWUissHZz/orkkf1Lr0og4YiDmRkYmBl0BBTCCDautGwQ0mRweMds8oo2GKdDmUBhFqWzzoiQHcG2QPN+U6zEK2UPiegugMsiSwnCUsHZk8S2q7dskEOgMeaQ38nRIYaRpe/ts+Pm+Y9/xjyiWpFt1AvKQGgAV19XK6uSAAkKW8Og4FqqcNBOiKbEqbUjptykUugallre0Y/axbN/p9to19KdGFqXTAD+PRdyPQ0dde11xI75thLZK5VTUKDFF0OjVXpCFdGUDgTN6kvsnYjT+BOBlYJ8Ww/Z1h8952oyDkiA+5Q7jDbsw6AKCBDJWsxn6CI4ZUgeFBCFE/aTrxHAWhHHSjAumVw8ZiQh/7X/CzqhToBIVsoTa5JbIBwu95KNanZutTAjG4xlKt+BMhAqAMRAFNgIaCFUeFagRrg1YfFh7n102NzT/dL5QcDBZRB3Xw2jwS0hnpQZ2QXNKcjglYmv2l+dHKJSoNd8p9LR7WPJ/i4YqFcouznYPClL2foOhodms1GJyvuIarGgmiNLWzj6g8/jT9wk5ixc5q1ZHRwUeqcq5eG7+0U/3lIZKRddnd9s8VhcWWbU8w2rLlgp62ZCYVih9N3QCG3615erq3B1NoV8XlgjFDrO8kK3C/IeMX04Mlc/B6R29O5Hy3W5/epPw69h95rtu1SbiGgISPJKnNKPTibqSpGs4j2agK6T0K6QhQaQAZaRMoxB1jsr05K6Zuy1TdKh2p5bqcp2adjN5XP1WujZe06aHD4oXj17k+v5K3ilwBDhvoidSs+zchcm+V2lfLJ/yQ8qIyFCzD6MIIbx1pnDTsEqT1VJGz2DofWoh8bI8ya/Umnth/Ggu9cYlfiP33rXoYlaLqCOIa3nzin15kUIC3tTrPvtub38k+PrqJpHUMFGMS6WMsXOhCMCe6KCdxBtDHzSQwtcmHHJzqYod5Uuso3aopwtDpKqg36TmYEyB19c3Qs9Qj6IvzHNltrnJ+MkRSfF3cv0HTNgVqDafcR30jQrrojmmyIaLZ11yJM2MmebDRljbTpOwAyjJM6CahqKBccLEDCFGYeIaxwx8CuRnDX3lkF4IA5N7Mzvl3Tx7w7MhWW1FJCnX6vQwHydynRf5cKGobgspZwrUwPRj8u9K8g/MIWvtX0LcC3F+2+4k3+h5vF5mo/q+w3VdXvLvze9EcZWWCTDeAiYxfshm2/12g1NFeQXBCUtVScioxYgig/X9nR7+mBBAixyiEI3YY7AN24uNmXTNcKTi1dNTavPRU8t+LYuQ72kxj9CNYBf8L8wHmuvfuaiCvDgMdJ28rd5J6BpShwI0lyiG6wT/PjnJEWcEaIYPZ4eHmWgtBR8JGVFh1QZJ8ItRHdMT8OgtFCa1sy0GHRZTc3+fO5eXZ3y120qqKjcge4150OQOJwGjihr8Lufi+YSoq5V8rDF6cdhAU4IJouU2cZ0Rt5Md2aiieDIQSikFq3ZR24q8k7tVQN7QFIT5EOwmrnDvcHl5WODaetkmrx00me0HjqlT6om7WfuN3VsJYaJ0ccg8ZEP07wbmnTEBiYIumZqVKzFyjSc712uf5R3u9M5lI1pa8yt5CrNQRW1SPXA8ITOEH3aPfW1Lw7hyBg++bq7pnBmPh+Nn+I2oBPC08G8xLYV/kBKgKAAKgSiob+INS5nrW54NCxYK04QZHJ5EuTi5EfgMqGKj1oJpjzQvBDNOmVKzSMBYDSPex93PZGCLSegOYxjQykCrWz2pwcoDoEQ6n9HbnZE5xJCArqa/y3QO6fhGDw41NnbD59DLzw5/YnY/gzrgS4OdUu1DHFke6D+O8250uUfxVlXyyM6d3n/QpAPvsoPyi9Sfu7n/Y5btlv23jUuFHlRJWA9CxkAnKBKnw1lTBL3cxixPiRSY4/Nthemn+wL06fh6cLPR0VEN6ciJrnpuXYrB195eJ+19eH+QL7rC2d0xNBRKAxlaLpIh77s1gCCa/Ag1bkySDBaRPMu28m7Bazjk0qgg+5UXBPDOeiRrO3FJUPAHLG/rp16cLMoYxSMIBxDErNItZ12A3Exqhv+BV0L7eWqu2TGAOnoah9p5d5eA6bl8irFHVFiUA4IWNSe4xPirol/kmwRGZehIK1OaCe77xlDmK8oDDei3SHYtNr+mArM+1jWyImt6+tV7iTlod4lg2viDvPTo6jaSf1djn8u9MGhi/yl2TESs4Vh7TutOFA68XSyeKlRBkKRQlUiP/cuJ4LGi2LVk+XVKfqzDDhH+2UO8649I4StB3rwQ0DsS86+K73BSokRFsdM1JUPIY4Baislrie2JwIBtOBL8cF3sXk3H+oYGJbCDvZbUSilAKTtinMyecYrU9suQAE2DrmsDgfAX+M4UCox/ar/DyRAmKflzDkKtoEpuGxWo/nyu7sGCwt4qgbvzSDAVS4ZlmQrum8/kv/cGgvW/hHeY4/+jj0Hck0k8q8FkNjJqIK6oIMHaZehAW5hD0FVWIMYPLXdp63yNav9Fq8o87kvA6eqFUVkN++70UIaSpk4hkgKMUEPt5KxnDDEVgPsPRF4wWo35c50RJxymjXttqu8kjxk880HjVX5l5cO9MDI4jmxsdWcz62XVTv34OH23rTq/k1jzYbJ8PoECPdqC2wIKRrjQJ++K1sD50FY2Nqz7ZqFJdHg8Focms0SFStuha5DZwP6GlZBOBkUWxNokP7uUgTwsugvudI6loBgw4Z2OxZW34iwdoaf6FDy1yxMpCIzvZxqOvUO5gR5Ca4XDgtQBXk2ChKQfsSz9Jtl92bmj6syRFO/6L45z26bL4aySqOmnmj/mvfUiry1GQASRHMQbwN7STxRnDCSI28QqumFO8w5/zZ1EssEe1plvXX/EaFFQQ1QOMB3JvLmULWWiugCN+DyHt4X3DUyB85RY3xElOo80TnBAUHJk+QRPtbB8NptAOXJ4JEXMouE3CyUTOtUD/bLTW0uHnRHG2fsVPjUSBkQQK2vbujoHOE7PqG0Hkkb9pCobfd8bBjdsCWfX8S705mBgvtvQFUNjNcQJhFQkFTxtQvrtqrRDcIBWn+l18q35nlwYAoUmW2ShTCpl+XBuRsE/UM92sn4eiDhYTglNRoZyJc9vxoTdUaMa0RsOLQfmudAXzJ9ns07UM7ghlV33B3ZtJIOpAOwN7wAsspUkZIqaVJxlK2sGat7y2pmd0nvY1Ab8ZLWTlcRwUMV1zPtx23iqbPudtL7P4KuOL9oWeWJlPm959ePS44rUtajKLfOJyr9aw5Q/YTJhhzHHO6ErZcYVg3sPJlVKgnokawqgrfsOOTNQ/XHCuCUK0WKYOqd9/4LYP5AeGWGi7jnsJ8iW6qYlfxo5i7sGLOwWyyAEB7Tg2WNEALwJJoZw1yIxdiyYL0RsjAWjKrN87Xfy9ukdy/iTa7czXdQfkK5HIL3TwRctK/Ufy7NemNTg3gCwAvSuuB9S3C+4r9OLf45sHG2MNJaixqJSmZTyJltQpcLQMyEoAqHX/RGHBeIxztPksQXWstQFZSJ3BaHuB9joYzXFSSoVcJgcgz/Meg1RXK+eWKPSCoDUE4AWihQmpW1CO6xC5NNpJCjj2suhw5oZ0m2qmtSSVoIWQUBGMFOA7MzhYkBYnDoXrg5Khqxff80kJPB+oflOzKaeaBU26v29MBLQcK+4ADWkNo1DyI0mZtVrjxv+CSVzrw/EB2sX7+Ki+j0qySVlQWogSmN3fvr0862JSK+riKTqSTAAbJdcgpWpwuSvIJ+qGutmvTc2/SfPoR4y7FAp9Wxmtxz03fxQ4PE8dZ8Epb/QL+wiBRVKArUZ/03c8iRrf2O1IqumGuExwzGxe4go+izO1P197tnF8JTxu3k7dY0dbbL0bxWT5OV+omODF1ThEn1+0V8YsurEzKNFFHgHsGkOPkQnuf6l719yFAik9gbKy15UAIBvO74+ZDrtkjETE0Y3DAy4U8PRqj/ICwqLKk6GOdtlZXb5fsqbmJEzeMPW97NljVTiAUU1SnvQOfNIO92XZy5+mJAZoebyKnGSCxA7AcHH+dEChc89dvwdNO739R+vqt/OZV5LPHyqfOvCAtFggWW3l55jsJfGnTaukCwYEgFdUnoDlMBmQ+2qTXx0zTTN/3PKNca93JwmerrzGDPIZjD2uFebwBvKkby29UHQjZhtUBRqHPthC1Hs4yn7NOzFTcU1Nt9gnPmb8rVOTMbrs94RzQkQPE2ZhW57MQQvQb9gaaG9IUhoCTzWjJDAD6lSYik51AZXX7WC1nmU1TiwQEVgp/zNtulsFai9C0tqAJA8dgtSGNjBt4qE9Ekgto1mlMnT82O5qcEfKQUoD6NKQIVYMsi3FcrGul5zJ+c1NAUauLlPgkFDQUBecCPP0urYpgiEnkuDVJ0wDmbbHxOJIUAtzuol1x3rQOHmIq1696nwchV5zwaZnb1plrz3tEvs7WPSI2taDUxUlWkZ97aaD2HB1N5c+HNl5VI8o1PKs+Ha0ODb3mTw2cKwjX6LXsK9clCdg6G1p+xWk0am/kWhNjX8dUCkBzsmQyNkS7yaCdAYJbUwNgtuk5Jrqn9di/Rcf/Ueoutdrpqfmid113dpAKOFSGO9MroiOEyZ7xDEY8qHc5e+677enHHPoAPvUX+P5oJJIXSWfFQjE852OSbF3AMCzn+bzOnziPlMkNzEuqu4a+2PUFZysuwXxhrPrND1p40vFOjUXakgjgim6lwqaieQMVXhB+GerTYy/id+EXRXoJ7AvC1OeLfnrQxyFn1VWjrxTLtOYSXLytOwEIfZC6LYf0ZuvDEnrQxdvohCSllDVOxlYafMV9unklrTSq4JtS3sLHw316YR6xr8FHYDSooFM0eIRoQfnpivAe+Ks8/v3sL82fFjOjxnfzsaGfgBxi/eNUq8oBZJlAlgoYl5NVfcVzpbYLX67Rz6DzmXg5/BbP8OeVFZNLtOl8v9lYqbIujfcf1/onhndV5fjlR2x6/lLgQxQt1ooilrUmw7FENijrHCbISGmQG1pK2WwOu36Msi7CbdwjPXv5CBRXn1fmzDy7OlkP/Jl2p/JwVTxC5wxVhIKXnBdQ86vzvi8q8fxow8+Bj23wo/4qEJUwQiTGhCZ3EgwDIbPbksCli4D6RmHNmyKjUvtdlptCL0mHeYWvTz+6MZUoF/YJnevDNfhqWcw67+ukv2+JO0Yh+VLENpxWilcO6RrSK362d6D7LZGfjK60HofrsW32KOye4A8bvu3Gdw/t5ePc/uJP93AkTaIvxpQf5PV+La/ru3kN51OBe+7cuaVANUNevxpRKfY4aMQs50j1taEQZEqlT+U0NqfrfKAyDmUmcLXHU+EvOX7gAXJ0eFX1ufYdVraWWCPRBNGV1MJSl6QDoUMSOeqUYx652SwZ8yN0bEmiaFPYAUHBpElpSkQedhQz4BxFT+YXjKellpEhwt8lbxS1IsBeS9VLQ+gKRYWQvZEC2aPWYX2BmteaG14axRUCHtoEP4ikaZwueA4PNMIWWCVy/h0LLoQ8muYkPuo2mrlaK8laU5HrYw6ghIqquWaqlTEbkOW8Eu/p6igrzmIfM5qrKTq4EQ4dC1wLgflvE+nBnYD+kUa/68ZH5WqJsuCcNqg5K7ujnHAfKk2Kfd0CNssI1SLWr75hDFKEz5ZtNtxXqiQRXu65yXWGOZpqcpCzeX3c1zep4OoI2ogv43+9tjzXOov1hsBKTYezi6ryrapIAbAFW0C0YZ/p1BDQXF8C3IhlRUO1C1Sl8evMdqdF1ebgdJYIBNgQsSJ/5+4lHccJqGPZ6ClyH52eD4QKuW5wyOnV6loguq21NmvX3mTNakh6I8D5HRhLFxB7vzslHMe1MB5QwUDe2RANW7rdufRxDv2B1CfQrfnrxlqFoQjumu7WpuZPOYB0za08GDvAplTaT6g5pnvLxL2SlVrPt4Hl6LFhTImqeB4tG6gf0ZPoFv9G6pXZ1tZWoFYie4ORyYRNpukmWOBgkcaJlAWAT6HW0AAZwFr88E/JWqX0VagKxaUJsoMIjRAlTk8sE4JDOakYAFAn9Je6/7/XIeLJgZrAJ4ysNXOEfU+oVMh7ekGPiSDpTJwFYZUHGQq66mpMG+l+95aMhWoCEAGkyQu2xGI3pxKUe0VAVH+GEb8l3fcwk8HoXlLyyOdpYA4FPk6yYonRrKBXdX0uDtqYF6oSyl54ebOsCosZjaCxwID5FN2v9imXLUDmdCqcllWDfscUHV5SKmWh0XEnIQ5T6tg50ifnLQAGV5qWUcvSWUuz3IRm7u5pYYF2zmbYPJbSB7jvFS2e3shOds9R1XZy19vd2LEqzFEjxxzRT4zQUbXume6n10sQK6jxFshEI242l5dogxg9rKJKFUUgdlyet57sh2s4Q7W0DI2oASgIND1UeiGX7LvI5ZiJaE2ylJ/PgSH6SJ9QfxrGNQIt4UXqnrICkWrKslJW6zj/BIgCMpYH+uwNG0rUtnolWEb9mJLQ9Fb0JM7WtNu0z1HXpvG9zG+R1WKNeBeGrBlJADXeanibjungXiSQE/cPAncPFzY9y2Mnb7T3SEjqm9prc1sB0BwSNV50s7722sZ+YH41ALJmzZpDuG/EnNES0AAEw3IEQ+3jdNQWBhhQ0Z8AQgCwkfXMYj9gDu2dRSYJypTQcxCUU6SSWXYt37CAEZrBX2K1GXU9HninsGGzHci56pcKtaUf9NYcF87EhGIjKBlXXPyHtiOMyaf038E/Q89mSCEBydqen8Y35SByy5UVlNlc8ysx5DdG6Ck/EYRLAQa8RKJGfwWK2n+ZU/yFZOKvL3zg4BhFF3iPL/Sk+JXOXZ4c7KToX1uD60wY6AKEJkrlJEGgYVu5/tVIMZCzBXLnVwaGuIH8POTzeD+5TMtVUOsrdA9VHvlpieY/0VYC71EwQ+g6CxU4Kh1l0KHlaHStEO/4KN/nzOQiDXmxHYgD4b/9NQqRPQacoLwYq357NM2+6eITz1ftO52eNo5bt25pMpxv7rgSU3VpGr4qoDXlM0wlRnpKUEirsoZhwr+zFocWJRr74Eugwf6Yv07XHwAfzAlKbDURnhKDhlhmF9usVxtEPrd/aqCDXMYlC6OHU+v7CpARV9o+/MUIXFb9heLL7LuAmvgFQVVoTXH5QIGV+MF1vy/5kYBKJY94uqD76mfEGLXfiB9UbyT2uXWussvAo79rCDh9g+LNfjFDJbNarVY3m5gzRksjgGAQcY58CY9U9A9JjC0cdiUA/uFn1KQrWTWlFLTaVGmKwUbeCjJxFJxD2R2ah5UDEtgdPVT9+wf2Z2fIo4QGb8z01cwQ5t3eClLKJV7tSUzhaxPdsHlJjtZeIkBjteH2Ptip6xWul8t6bLPVZ4snwlgIdiDjInzdVY/YCA5o/90Tf2liJq3/Me+S9uVvCmzVCzYwh6K+WnHgTY3x02/hmf7ISa03fSwOMaQQWQlZW0QIyNschidUfmmvmWWbqs63MJyIRoAsCpVYYv35qwJSvMvlToMDRqBp2pi20rsitss2FpfuisTkmtO+itela0QKShyzxplhmVEVfRq8x32i8x5ndnVh48XwUGy3hNCQCKCqDnixSqWcB++rHjKORyAMihs4kBL3Showk5kB0g9K1Qi5Czsn2a8Vb7l1eVt1/EnRzwb9TOTq2/r6lJHlVBKvTGDbY4Y4Sl4GBaqT6GWmj0zdwi6rQUb4RjQAXGCY1kuYN1beaJFFf1vYVLBKbpIpLczrYkOUC1nk8O2cBWXK7I3Yja8h7ykdKtcLWsUIFswOzAQ2sCjr+XR7upUAuGHNmooRERJ7GxgNn9CTwsWh0ZKFpn8xggAAIuWZt4bla+urBvAMtNVaZIULvEiSfTRaBmEHPtXd3GXroZEkKsHA33B02FUNlU10RxuhmSS2TKXr6t07LZuJ6+NRwChLB9V6njNLFyg8nQNUi7SAmvGcjM0+ZjcdqC1Xkdm/SrmEPwypXjrYcQ597Io3Kyk37RNcO+e+I99Xi5BhSHE0IM++LOGfiAzUjnDrW3iKhQCXZSSoVMvQjQvSMBIrrM0jMVXTxHywe1H5L4Y3TCbl1+WXl8jAh+STfL0STcUg1J+g0yWLpNtLQSYGXNqNbjrQvCssRSeAfEBHfnJp5qH72kPoAQi/t91AV4zyGKDZL45/dBO5Aqmu4+yCGDcqCAJ883B2oRVKNSYMjEw8muYmLIwhOU2mDSjNBzwC5ybIsJvf4mBcxsfsnue0r4xttqFPiXRqSKwCJLBPaVK9vzaRcgGhbVvs5TlxkVic1buROKzlN1Wp9YxBpX+lgF3qBFeZXId16SkGfFOoNo+aQCEYysVrMZ5g+WtJixd/KrxaGc1Tg9QD75l9oFtAOgY+/+aAwToVsKoo5DKan3l2lfOgeaxrNqw+TNGIKXuWAtJase1vNk6HmFMXWOz2F7M/cLVI1R6wAb91Y7PwCoWodlWbwaxn7O7EE9zOsmhp7Hw91SFBAPtc6NS1WNRAU/o6XdvFejkksQMxlonaEZLk+H0Q4k4yDWrDiSWQ3Ru2zud4fca103KoTlxJDoa5cdKq/O2YZVGuvKs2kj8tg4b+WFWhgDfEP7L/C8MZcwK8YZSROnv9FqrXidqJGsed9dfI1AKYLIhYaFPLmqUWW+S9kyr9lem1la9wQUFPm2aBzGVaW++rLtDf7ZTHYFZHF5C3BBCWjqeiGfRijuS1Ra/CATRs0c92knzC7hZ3XJ3YbOvtwZEFBTrt7OSaaaumu791BePafX38whWE/nJVvMri3JFrpJVhoNjVBYfrUlQp/DF0JFpd7HjwBKByrK246ldfC4OMZ2kHqBHqAHuvvlN0BTfoyJ3MHLkKIvnammAZvUSRLggWP1+Ju2BSxKlQnmz/fj/CUuUVPXDqFkAK9D0e+GvIHVGJZauIVkRINA1S99ClNjO9FJUsKAkAEbVEpSCiYfIm53+JJtXSvAKC0frkrVLbrc7vqzSpJi251vxQuzWrUCCraM9tb7jyCR7ZVdpUIU+VyIONFFDmDGDeRvqRvf8i7tOX8/0wS0RdO59EEADvs7cs01i5wlanNlk745iN3sWZtRSRgmQ45yykjIc0Fjhq2rsNJ6M3m9MPOKDpTXlD6lN9G2nSmwPnmgsHjuQBNolxbr3jE5RvI5hWDPU6wCtywhIfyHbYgNXlctk+ks1IjlzWqg8Z0TNTX3PwzZViH+mvnBJ/a7fdELRWm1xIBIAC5m83ReHng2Q+JaAl0C7NHqq7cl/MGBEWc1ODM6y1NmtbZksoONP/Mr6zciBytCHjpsHM0gPUOaIzxDWpSWguPb595ifjsHlm8MjkCc1NHawREoMTIG6dAsbkWl9nIQAaA48sc2yvrVkYjKVjVufJcYwDmFyEdNG4WaSyTCqgzkCRHOJIESgcNn70vuWr8NyKPcr6riHIraYjak+FHhLvBSd1Xs7QmuX9U++8t+jcU5fGuy+bjzHID54v6J4I/Izx0MgU4I+HsnoF8Zmc9j1YV7DIXwitxT9DHBq38NbKe8M6UTzE9TS3qbMUewNRaKrPXkJC8vV0NUo4a7PBjc2eW4J4yDDAmrNyEC+SC8KXORoqTaBQ0AJ0Gr2SZWvkCk499ZAd7SVpaHYzuHi0e4sYlOPx4wvGN3UHApgAiNGTa82oMpIxJ9OqyijHSNZRXb5tfUaq4DJQqetuAGjs16I+/29v3d3+QePyvNp2SExUrQaNgJfuUMr3ij5ESpXe+cnqnae4DXWK859vrj7KAY+zsYqOJ3X+akbRPoJRJBBLELP//U4sC6tcOQUygkOrs1iSggH9kvea1Qs6cS7xVwrcv1BtqM2p42csDFQ4ZQFiE3YYrRl6KEvuNmCLDsv4xY21sA/sRslSymqmA2L2etvXd9T8DZYVcoL5PMpXLQ3lc5d5C2FvqPRuh9wzOsMHW8TNPQbgLBQkJAPmUsEZvqWh0Abv3BMiGOyzk9tRHO0zoyvaHMC8Afd9Dg7LFcqzX1TN9P4n/M4h0ANBClGMcXe21DVRb3ajwSdADMJ7dEQ4X3GziT0BfeSZvkMrVPtceCfoAdYhnJtUG1DV5UedeVRr3ee9y+mvvXORKaculTLV/fFfOq1aZupE2dzhfQkR7RBqLdbTYCW9HejU6FTHyjbJfCiZ7CaS6OVNsn2hCALzVtcDMI2hyJp1krq3vi+z0b/oLXzR0YG6OsIPtO4a1BG4oDMcvTm5JQSlVpM/WQZvpCPTJ33NAGVL2RIn44DKPXj/IueQc2V1wqMAnOhaTgCbAPUlQTOwf/yLtEE1iCkZU5m7imx6h+znhWs05nW7RYNiUejiQqGT9+l/6im3uuq5ynK+kGE51FfXjHvtLxDkQV8iOE11KuctQiDP4A7LiGaUKbnGqe1zZv+7EQznwb/px/rL8L4p+jxmARZiKc+eFrFZLZe9CBjMXMHIxXiY6KXqE8sOm+xnrKuU+FuzE8tX6FHW6yLPe4GkChIJamVG6/id/z5A2QBvbdJCA3zvP+N0kap9hIKg8WBbsh2ZjDBZggn4IHmJAgsIerQFLS4dHKiPI/datEVY53jL0dIFreslEGz0Lmi++NeFgZiatmpUCDEjO7kSYJqodeUQxInXqlcoV3UgpBywceLmPSafyQwbGthLUWYzQZJKYalONPdVGaMYCAdQ+0FXn95qXyNrpQK/S2kKtIKlNplTezD0qPoxRR90QdCPZbnqHrlJyM5Tjj5KOCGiUcHk/kGKQ0H11TAxzCNl+fXd+hfmrjWwauaS7JjeA8ms9wZMgI7yVfapPUvgDjHmHxxUGBgA4l6ah7mOfbby9/5bB8NmsDurtx7rd7KXuveJoxvXwBv2FRRLogJSl/pnxp5hSRXfgIlndcRO43lAhAp96tk6W8kgcAPXJQiM+Y2AVQBYwKaKZLFOsNfKRE7ZjItgDkJsWl4F1Pp8a/5pNoVJBH+v4AoWrzfjKc94lEeMyH7xQKcKBgwf22Md2cXEqlMJjV02YgVmPr1EVSQe5aUGHS1+rr3WaC/uqgPhziEA3nag9XCXQ0ogrV8zJFEowvTOEOXVkKfO+nKG+aRAxTJVWMxGa3uuPVecAlZi5ZyQGefBpiNoAA21BbvC6FhF2YrypnJjrSYblMEdE1npmg5h/ToQEkApYtXmDuEqZCw8QX+WxjpKaBxMmhK0gKOMpk4RbbpKjta6jcoZLlkBTPcPAbSpB32KdT+E2yM6ecvmdiCADOTkytmsOBMRqjxCez9ub6DLI7YKABpUe7culYrWCg34HSOQbKu1szqyk5CBBlVlujo4E4JLGp1PMUAbXomFnkk87/ZD1FSvw4gzYwyPtRBbzCfbDFjKmoK94/h0blzfZCNG18G9Uu/cPQL3AjAAoaqQPWefnbuhRqg65Ufv/j9P3Iywp7ALdvq5u8un+vBZcRTSrX0sXcn/HPf5j7wXwRB5OmuCcYkpq2fu1Wi+W5qc9oc6ReJEu3e4K/SxtDjdNcgWXWUMarAIEgWsynzCfQG52hTwNmpQl2EMtjGjzV9fwG43RGL8BGLgHKCxTtvBpoMu1j5Su5nrVhZiU6k9Fre1I7QQHSc9ZMVRhZZWIPKzWsgutLTfp/OLxnABqKO9QB25wyU+slfDunK2iWK1pnP3Wb/HoWcpLVdx6VwlGC0d4kGVFZyLmEwWBrjmFe4To/4RocFUaorcp5FdHyLsv2WSBRcBahDleF4UEe685pA7w4DBYFmGkZy3WBCAN34Gh73u1Jupq3NVcTE2W8Huc+BG+Smj50hqIHYUvjvDtH1gQ0NlFbcEWCopt0Y4pndLpuESKLcIF/UGcsmjIeg9qmyAVeSGtMm4XJ8lO+bncFIhFt2bAaZGuAdB9CByzPNOinvaonn2x29sNaTPnTrwdbtA1kehXMxOLkyjsbESIFyo8Bg+OLHjqeMPyzGoBIFWgT7EjKokqkJTrLXSFk5Eui9rnQUE2QOnM+e2ZWexAsS3NzFx7RPqBh4Vq0bVGH3M/OMU5jrfor7KtOr7n2REmrrw1aRE5bzm7RxNpvzsfsaeAtUccrsreS/lJaCAihNR6BIqQ3SuMKuqjkr9Noh2UcKLnyPwHuHA+1PrqVlR2pSBXHHkoSf5xbrPMykU4LZWql6mUf6lDEcDJKW2TH4+A7Y0NaFrhAte8Uo3S77m4ZJVGIy2zVxLd49RSKB5o0w96NAccs2uVJNR7K/srQVG5nhVM1TdXYDz3geaijAM5y7dnXvn+QlNgfJVycPOw+O+2aNmbFTLLZE3XqmaTAl9dHeBQIBWF5XJtDB0WXr/6AznO/aC6fT42Xs94DpPPXCrRwxvHDO03qVPFkSbaKeKJ77zVa+cWEqvWba+YMrHpNI2CCwWEQAhddBtjqifa8+KhX29r1pZKqfB/oYX/zLU31C1+wvy8BXMXzntMw1+a+lO5qtyCkRuhEj/2qdmPFVNltLCdcRnOYAx5qnQoYnCnGPRTs/4k5+tgdyKctyr3w+PF0865Zd68b3Ai/Zzp6pr4R0v3a6R+Ymq/80T+PYLMtyppQw0zeeA8FH6K5RhyNH2XPgX60XapWfanEt0/yqZn+ZxR9VX/4gN/EvNP0SvRavJS0+pJzWiu/vhJ5AC+iV5pvZG3FuNH1tfPyI9G2ckH0V/xGtagjkfI9vIRTi+1Hq08PFL14tpWJJ3njW5jCLINzpocPFGxdpisibW66hv/Pu1xRaCM0TXUel9cheFm1BtSOnsE3pKmLf4nPsutG4SkJZpBOYC6E2cp14cBP6Z+0Zf8zLj+fVV4NgkHrVj+gjxFX3BdHB6ACrEOgOfmKZ5kP3vvjDSLbo/genM7cviaTG++RSePuj1cNq3K7ZkshrjrfIvZPNrGovOfnZAC7AIiwKe7DOHLKoBrR3xi4Nb5Mg4HBQWEdL9NSkI+hqhkfi/MfDLb/hKOhcM8XlzLUklA/w+Q1+uaz+z+bN0b4p8QqA49w8E9Qu6XlKrw7laaHRjKtwUXKxss3gXCM4xaZDCD30PoJ/whAVJy9X4yvfzsuh8UR9N6Z+uO7wJ08wcN1Oai5zO57GqMgDOAz8ZDci4jVlL6bslk7meAqjb5fHfvWv1hM4tFl2EUgSRa29+Lko5aRWoQLQvUUvDgpgx9eTdB0dOjR29+za98MMEr4rT2zC2ISyU1+W66webG1fzqNTSQBtQ6mZk5+tFm2Vyx9fKAyWknapZfDZWn9O92lRvF/LmkF9RP5JnpumudGzSOnOG8Qr1O17LdzdQOjDBQGSiW5Aak8ZWEELQ7DrMInVthlSLXL3nOIpvz1G6g9Kx6uROSZyQn3eLOuM6vcKPaYGlZuRiy94uudcN1Ft8jX0GHdVB8wGaCThISaOpbS+WuYu4QtIby4EolIA6sroeHLMXoAoaxbk4ABfitwXSvRGm3iJSSQ+o7ElrtM4dXLPW1AVasXluAXkmieqEVJh5ukC04TUNhAo7uWu9PbNjui8MbFwJtVfHE3c3g5p41XjovK1y64hZQiWSRxGd2iHbadJA9wAIbsGH8UDlxk7L0gIIjh9jR9T1EkNjvXKuKh0T2J77UvKAyptfR0JRlRFNVWsHQmkvH6k8O/ErbzqenNxf4pOHQMZ2b7Wh9YMVHgw0hxF+BwjvqzHAIAnYJ5/NoPhXF0nTAswo3MhsziLRHsDjvw826fDlPMO+vfv/owZc5riTgoCAqmhZ/AtptsQkUZvCqw5p1vg9F0N/54DUWfHeQk9yT8u8NcjKY71FkQx7BXbtigqrqj+Lw6Q700Sk5HG+EStjt1oA0hiqdVabIveEypLdSJA4zvqJ5eRjHopEVh0Ts0FTBF0JgVz3uS1KQJlqKmNBSpw4lTbGj3rM7P3SRv2I4iOiwuR+AtiOWeAQgrZzYhU0ykqFUFgJjIFcmxy5r1aGs6EzLxAxMitaVDWOW2ql1FacNPJIbyvwMj1Hdkg374J2st9Zmy6U8L9H9L0mtmY1QFEjuaTZb1hz4paqn+yzoHOoxTpSmeqpSV8XUsBuuFsAwWwDK7SDMpv8R5bUDuncO1jnqjk6swuI0fIEsRfivr53v3Hroo3eyHIepDTG+TbTqH/65qDtPV0ZsCQ9+UbpuAFCkJTKzfLZPZxYl1Eho6XwzEJ75zQ3TAdtDvcQz8qxDvE+PBCHBUDII4OEbiFN27+1B3nUL/hgMYvdk2skgIoSe7NW+B6PM6pZEXXFXARRQ5CdNHMwamoNmEnc+QjVcA6wIFErRYbXBWwgocgShpLgAeRTktsLW5/xKO5ksFZYcPcLV55/XUWGzNLGDoMrsZnGThJpCO10qEtxto5lMgwWKekM4V2LkdQq3jvBSbrXov9BNd8H9fNTnGiTDMiCZrj1y8FuWWO1num20gL3x+8QsFblJhmYCCz59FSTbAwrCKxQU4k4EAIFwEDHEilQTc40nSZ7W9hLNzehiEaq0Ok3Sccge00QTSnGYLUvdRuBy0jtXtMuee6aesWy0mntAJokNXBFZtTefvW+QS9a0P6J1dcr0hbYi4SdDnhw0EiQ8XCTesfzbOpyN1ZyPTJ7I3X7eJcnIHwUMmb0WNuhGYNhp/qeDomByTLajpyoeVFkolXeFWD+1/wWP4ck1A5Ze1WNRsAvrPiqG0RQCK+Cy2DvB3zWVKt2MOJAm7eS3jF7x+HtygpUvxlftHH29KKyOFChViBoUYsFIZWjtLw7ioIbVgq9rd/TqhCBHVMuEJIWny4+BLGN/xTigFh3u8na2p/2UOzul+GrGk+i87IyVYmCcfwQLRAr1LQtjKtppND3EEbkoDCOwLlUDRaM0CLJ+1+K0fpQbMEMkklRqWCogKa3O/SXUsyeKQcFXbAYAe5eID46vSFdCMjwoJMMUAAjZCd7xLbmsPwfdY1Nzb0OZwF1UpbPjZ+BRTHEMWw1ULfNeo8lBKcxKJaIMwm9EVYT000KkGY3RtUJezavS5nE1R/XFrMmCAwrmVmBKFhOdy+shqo4ZKuM07WY5jI6pvPM3Xvp9vCeFbmKt0eVRFXxZuk/ku1fjju8mDJ9l3HvulxDvlMWlb9U+rmBb8MkMjWoF5ota0fDsw8seaRL8Nb4wbt4nX0xVpuWRNwpmCeYCxWX6EIIPcqWv80PX0JKX02bVt7IIvFv9nmUeiPf5mNiaBbZaKFRDvpgGgIal8ZEoAC4YrOSEwyXq2dojWg7SiSSh8mDA3Xp64+4xnT9aR9y/UkrdDHLn2XkRK6JcCM6TmqgirP/6bExWBOtg+D5or4LGRCk7hmHc4btAJTQ1bQR6raKZnlqpdSwXtfOYy0wLmg4xoQLgSu/LcXFApKpth2E3Cz5H3V6g8im0CXhs0RtQFOPoIPEGpFP0ncKyXiW+6kepU1EXW71RPNylCOHrirXBxHSpFi8GSAkFRhy4FfxsvUdTffqQFDI1asFUSKKHPE3WNRnU9SDtoXW7FKcCO6Irufgq7k/l6D5Op9MYOEwp69iynAkcDbu8DZx5tofNCp1KwMcPNUkOLgIE2QotpYc03emebW96kX4QYb+31Ga9TcDgDh9doHtM4yj43skBiKD4VSvRud6J9tuMADagIgtwdCeV6ayHFvFbs1pRnjahG6Ua3qv9LZlsdp20bO5Iws9c7qq0RZ6H8+9YGxq33iOyo6Rm83a8qyajU4tg/ajVxH0ZRDWGioraqTqqsrJwJ0Ta+pxMYpuDj3miIW8jNh2SE9sBltTPbB913dP+D7GKsnqb4Zqy56gq4bebcH8pdHPSZ6jSCSp9db9YG9upfp3EJxR9uADmGnyds7urASQZaxMmKHK5FiiUeRbUUsVfyYJ9XnXrYwtZaEXxkJ35QmdGBWRRBqSVWJGG8GSbwhYXABU3gqOSFZMN/SULZ87KSKwr/oymAwNbkJvdW5zzl0iJsaf8oXA/aVrlcuq4iqPjqUHgMPFGp9uv3e09CYz9Kr3x2ApIEdtUtg+i8DF5UsNgSYiQPjteGo6QlaJ5LRBFmglOP4mD+ASwOm/BXCSlfhrqyyO+FWanzX0mXibAz/l5GcbyKndwW7eet+VsgrNpilpyo3nJXqe5VmKThKTWC/q+tflnPQhVDyzSPhG3ys0vpIAdg2jA9k8+20ecoJqqgIognN4Y0vfgj8lrL3JdHwVq8pnkFwK5T33kytogj7HQF95cFT9aAjwvRvLOWM1WUTNRw2Oi0LZ+NnDgme7ubUM2BxooQF8K+WAP4vOw1A3K/kZxe8OZzqklXVNsPZyRMzuMRo/0XgCU27iPgFDGvZAxYIVo6u6cwCxj1YfyG+10YrYlOQ2IcrrdVhvxFCOjYAfPa3tnQgpM2nsKU7PffCSlj/w4SVXhh5xeT3i+2OT6GgmBAUlaE46BhlMINUH7ONVJSQtm/7eXMzY7AmLK5c9tITb083xNgFYWbOKTrgNsx9mRN8o5bq1dn8bpDVzb8Ux6SnhkTB/SfyFAy4TcHltjH2QY+wkKjYv4Nb0Dg2Pqy5h2LqLzHXfKFJXtVApQkXJULsUAbz4M0Hgf4m2kBdY2Wp5Fto6hAYfz7x6sVWrHXKqT1nryZIHFUhLphAPeORS0xVPeSTj4haZRShQg6wSMDD4zK2e4vYXYoAC5zKQOjK10ISY6N7PqrcC7IGAliIMFwRu6wC9BChDFDe3WeqmLhVVE94v4xDI5CSc9EsGxPrEjqOWj2YWnIlJjgDgHz4pg2BJf8Ubz62m9/TqL6bx3B7k2bFjnRdSzBDgthX+UNhfDO0Pyvuo5jJVH7IpGcIn/iudBiIsChcAqjh/lwATgtzmpkghYy6ZnUCuAkEhcZUvHLlB1s4lUQ3h5Uv4lz2QdY2z8gO9fYEJVmg4URvTmqrJ1biw8IPzceA1c1cYgSI5vllIqdBRd4zx4iNTY5kPILOtPeJMniphOplwVUkVPXlHby4jAY3NhNKsvq3gVVA0iC5h3Q/cFvNt3ej6itw6uQum/oV38Vo/LpSKky1uYEmYy0zn6Rmr8uLxOljvx7nW4E3jElRhqSs8VJzzjXTvsFczMwDFMYOknB8wIU65dM3gkMA259kvV5poTAZafRs+ZGmuayXEilZqYBSAuL8mQmDBuq7fVGA/Rul4sd0x/UYa5vPo37rlf7jCsyk6YH20Blertaus9un9xJjhmsMqXzLiwiak5h8HFyBVxmsBsgoQUA+xpYwJNjjvCReMGz4EG0IIxSkZJfauSxDTvwAmux2RR/5HTTh89ohHj3k46hb0AbSgA+2CZMGqO7nA+5cGoS1BsTSi2Wmhe+6jHthmXZ/82rW7dI00l+4G4WygZwDpENVj3utYMXzIFJoP+tY78RIKTCsoN400qjkAdYK0OnucEM+Vs9k+oTmwpfwkEwUEJwCikvqOBWGKtcSsnXelJjGLACPQMJLgUsSCOQhxaNNpHG2GpIllNLp92rJaFpVcYetNmw0Y985jD23kZIHB5YZkmcaCIBTw4ELuBUK+r5CakvgaMeTBSDl1qiaILHYLZau/HqSKAtEyXUlcfeMz/WlPZcEwwBiJ95AZFVCZ1DhDKxUgmUA0m8YeJgRFT7CAFliL1uFjIUcpBVskUbtTC34EPWPNiYAwx1q7WSzvPkHDj0JxllOhaCSZQRFRjpae/GTsmI6UhcZxGUhNLSFWxfpNBu1/oSd9XEKTOK842UgWpLY1Spk+XdRg7CjyiIUVvt+KWrPoHSGOmji2OFXNCd+ITwQe/0JexpASznZIJ+AEQ5IGfDlFB+q5K1cKMV2BK778+Q4EGAsPQ0hFKBcBqQEVqFZb+buVu6nOl8gCWz7v4+mm8HdP+G/RuCNshrtucrgp2B+G7qPh6DX9y7DLx1dWtIZuYRalpSS2kjsfQyU2qNr9Cr/feCI8qW4aCghMnXHrnqawH5TFJ3hWongAhUYWScq5yY2fUTde40FJSf1uzD5vEDSXlTHUaWtai5uvzi5cTDIKWlRmvobb5Zp9ud4hsxLToDVjbhaJglD6WNNys9rmaitAKtvxmMJj/0wDtUYYVED1ogVkj0iz2rLZc6cdwsKVGL/uK2MhsDfBGcocW9oJW41Y+E5LJyGFuJKoACVQdVu6rQZjyerFBtkMZRkMULUsX6StwmWnfTNandjI1t5aZq6gzHbgqwx3MDeN9IEaFS0RyzMIideEKQRjAwBksDEVW+eYxlomzzxcWEJX9qpSPn2ttcioSCQRGpA1I9IbTZxNnsuOoFY4p3WkARXuVTxAP7o37IPBPBRUEhkEFsTQpNnUR0Za70p/pCI9Unm8kZ8jYsAarqJoSjSJuvLOhc/5Q/+OI1WKxYJr6EbeB+cICYaFiVGukEVr1MXWKt5KNBPF0ITLnt07+eoZmN7M5LF7cGpAlGGBtKtV4bhuBtIMBeDq54E5I2ydl+9LiP7uy4i5JC8pWGEYsdheIrB0z1xHXgikSMwwQrzdC1inbyjUygOUKslqVGwBMB4ke9LbmFcy5SVbPor3F1b0uyd2tfDFAuR71UjpGNlphpuXbfwaC1Bl43ZLtD1UAUB92Ti1n6MidrJ2DsucL4zPoPc6IMBVxctNRjVDKboJHHRNVUSWiJHglL/F8z8zdL2njY+zzoprefirIukLkBPTRVvo376wXpCGEbi0EWaArDOp9Wh1q7zFk+xMFj/LX8VRnQDlLkeIaaD60NHx86eQc0RypkZ8z93udMoBhB0in7+3zeaAKK07vxWMWUCD8IveNuKylP0CJPIktKbQSTUuECXyWN17+qoU5HafBCAFaIwajVJs201G7yuzcHsr6CHcjw+bYhpEax9WCtaE8oxaDXc6CNWpOVDgMuOQASr5soFe9Q7KGQ+hgkpywUBWFgkoQEPcAqK0UBKpBaAUAcYCq3wWa5GEN186PilSIYWfgUpUB4bvwipFihhj0DODpax+iBPgGTAM7YqsNYXjl/HESEFE4mblZKkHCd2XRNnIW4mX1EFFkEplqc4Kb0FYnfEARYIFJkNDKytpmRiMPLgDGmCXglPloVY42abSCBNlpdmdE2tyNUQDorMry0dmgsa1wLAODcpFPqqxojoLEaZQx4NR7w9oIHYTJbGcxtwphiR4ndDT8msJQqq3k9AKmMW27QwEQgJ3aDIOwXa9D6jMteGdwYWNUMHcRnHzAQofG+lx29UMvltG/vJTcXmrLv+AXQbo0c6Po+TZYnUKib2w139FDBWDZvn0xsj0kKvbFUCCzOwurf5xIdr9oP2J5Go/eNIX+0UVWjVac3oRIrKmShJCgYhfRJuuhFWxDd6MBCFCLsWXT2MXH6C+LKyck6LA6AIDXJxqTQN0BuAR9354368BjiwNPC9gi9CJZi9SN/c22c4+cCLiYGDSwkdd21kHV7+1aWihf4CKnUq0QK6c1WnPzaLX7N6P7coC8ngsiQpjrR6DFpCU0YRn1yN9lK7Rvt6vEbKoIKCYmrs1KsiKI5woc67N2CxmlP5j1EGf+dHJPDVywRNScnRNAUx+UkOK5ZFDo4xqwEsljcSaBffEnsCFonGjNZk5c0kUhCnYrARy49d7Wz0Ed5rNhRN4EL+zo+mUry3iLWKidk3bpTHRZ6JURmZNxJg0VEWl0oZDQ8+IAUlY/S2USkTaAgstvffEr37t6dJJged4FFx3qdkBDOECF6E5XRWE+tsRtYK7TPtURcyySFtgtYYTr00uPAYEvwgQf3y9Z08uwAKknsZplVMDjAhru1Znbb/Ch5UWTscmxcNxKvg0P9Lk0F2sno1u24sAE2AQSTCBIiG5Prc+QzaEWqcRnWqO7/Fu1XBhpZAiPotaFRNpipOQqrGwyeZGkpjTPR1/HmOX8c2SOXxValazMyM8IPmA6SHocjiB6RbuNzyJ8zEJr8bFpveqp3sr3SOU4myZENOZZjGcxaHohYEN9zV3lmotEmQEwQ7c8/4gi4yFSEwSAkA9gJp9kOvH9/AvJLYFkdsiDh2qxih0gw/OXdEEuLxO2sylFrojxqupdO/52hcf9sllWtIHtpGDtYvUHQx2zLo8f9FshEaZ+yxcXei3iPdKB5LW9cC9oe4Y7EggrLVAfk3Q5N4awbRD+aLHW6hjey+Xm3U/UGgmiuBEVMVIujVr7ViLHys1i57JkZxFn5Q+NiMXjEUQ3po9KwwAjb4KVGCUHX88QKe8U6DxNujT+BUDbYAUoDJBnqOvVrnWvEfvGL0a4ZWiaY6kBQ+54v0QxMHgJhMKKyTrqacqJBBi9H2ryKrrORFaoBJAK95pzImaVOV2yp1xDVIEJWmYSPs7A7oyy8xxgPE0hfhpHXKLkDChlMfQ9wWgAdDPW3eE6urYjaws248N8ZNyYaVqCEGY1OR99F7h3wRAb3aVJbC5Un2RjKwc6rdePmqGNU7+8nsyky1UQjaBUMWhqGpYhVkK6CGSiSB7JtsF+xiTzV3iE1igbZ1JKrcAHQgBaQ4nWx54MAPGAG8uw1V09PSd3cGwJhPgHlTiCLdsZqfyolRaWwyWSlMpxtqf1mRovPZiKTQdxvkCy5j2BFOfbYPJKBzB8GvZXXlw1QD2NnBq4xYtrKJUQzdb8oWEZITqAXwb6hRjh2tnmXHLHsRmLpQaNBbQZd4yGy9yCLE+NWjwXYOTgTBkmFAFYHtK6MWvOPmBy0zTMVT4vPjEKjpX92jKLbVoj4gCv/bSyRlitKDCsHEsoMY6ZBJTyq/47q12P9H9bdORV9IT738Ix0H64OtHnESd4QPMEIZdzYQDNd1qt0/85i1tiRWiEicoDl8xBXddd3GCs5pxMyWtBr7c22f2z8b2z56gfjZuRXjNzfdXDRw6rUU9v7z09TL+AuodsBvJG3dmgzwzY+y1z/2bEXhI7YwvnKSJTg4Wh9u7f1nldSjwhRVwMeIGfsqkHq2ffcnbJxxF4vCb+e7Ccka6fW+AD+SvwA6BEdKWP50XvF37v4X4WPb6NnQp/rPw948+7n7cmsmWcKU6AJ3SNdluvphW8etJgn/sebnRJiXTBdE98Pey28miLKYCMg9G5EJ3uaCDaA+LNd1GXzMy3rLN14BG5TFoPSnhm1ABkCa7yvBlGe8O8/W0xk3hrTbaWaP4cQpLKivfR/wMXdIsJGry7ahb1P+HEXDoQtezfMv0/x3+R7BbreMsnhHkjlYqzv+oXVr9PehM33cTukeo5O4QwxkEYPJXwUCUS9Mf6wicMSaPNDwM0H+3TUOTnzyc/GvF9NXWQNXxjfgLjzJ5Z40599VFqUx4H7Xvu3KvW0qxfc9xa08fP65Yb/0JV9CaKpsTAiNtmHHpz/4oV2zRxxMolt4/dc/rGAkZom9o+WX57SOqc/z9bP7yUnpDMN94qyeF55v+5Nj54qcizQFJ1P6Bhv+Tv33BNh+xeOn9VjuuzReCFw96/2Pu8KfK/gzrX6TS3eD7Hwfvn4pZ6jSXk7tN90fx/m2V9H5IBLom1vlkONJAoGhxk9NNh0TkofcwfqnkZYSNsbdYNZ2Cm5+07p8Cj+r4E7s5081pcanQN8f7PVci/JHfWzyvMZevxa/kXvrLH0veNE8cr6va/5PmYL0RAKVcSlo0WjdkrPNdJxAoBHtK/Xput5jATfHfGHG+DOBXqK/CoryYIZQILwBXrsgCgsRgR7r9yqmfo6dm+Cv7egZUDDfC1L7UmCCFIuiQaXyyKxXxVNjrfNvs9ZLss/aGOq49x7z2lY2vMtYqZ7+2L1tV0UqNKzh3Mf1Ouh+oCk/46QgBvyoeAKWQFlJJgQ60aITG52D5YQY+ox5OO7FObRQJCmhjofFGkE1SB7LjvnWASYm1zlIoCw3dI/K3EZrM/O9f6I0tEgmx00zUpgRcyV0iSACJJM1Nla6xvNZ7gw1YQ3L8zAkzsRLUoDJKSQ0SIZYCo9miE9vmRNUAdRoU0VRKCLwvZ5VclJDg8A0DqKQYtkaqUNHq595gE0SVSsNJ5CbDHRTiWhqUjqZnvG/+tRVJ9rICCKUgRjmXzCZ0z/UO+WsL7igRgWRusgEc4INH1cbOFKN01NplGo6y8aL0raMPmwbD9Q54+dm6ZZCLnUOj98uedU0dtxD2fqaL5n6GEM0Ve6+Iw1ou/jRdwmGbCMWlWnMj8iBiWIHNrffYPoP6VlcWFJSfN8dmzTV1TL4vL5uEjhwBRQ3NpL0Ycm9HpEhzJsNfA3f5c4vTDfyoU39A82JImcP3Wvz4pbn+MtVX3j9LbspEnkzDSe/+/NQ4gvMNjDvOwxFEbyA32PVUm5QnrlbBk20EEvW3m/VR7ZLf1+gx1YuxrQGMCCJpMnbe9o3Xlv+HxIt1mtKEBPRoyF5x0Fht4xjn4il+PtnoIT0e3p4sas4PQf/ZOPuJpx+ZHlTPwp3WABu8gC4hu8XX9qCNGinlcSfMZsJXu4ph4tby0h3hCcRfMKz+85R0mWP2HKPsNLJF9ihkOA8LM8eakTd/kPyvZ8JJouZroyVQhG4wG/cuPL+AtyruxOuUtwJNiAkGO55Pret3GTEjTRvuC+htgianGYwwj2cGARvnQqmQtCK7IWUTeMDs9pGCxVloPmwptIFdLZpz9EBzToQCepGi0r9XWEhf6npAdYJDmYsQhQu6z9n90/RdYgdUgIr8DmWoTUS0pXQdeyoBmd5YtOkFaJU1JBOvLtsdu2SKY+KbYHFxnkHFroKSGyecrNrCPlWnQhWKHREXsIbFEU/gQ/74zUpYktRuc+nXLt7kU4U1gAQQLGM/XdiJ7+QjOiq20tExHcxo7F0d98r4WVy3VJ+b9ddXCTD+sK753t4uGFigq1QtbfzJd3VutPjOjBpY3UwFvSg4zDWCqCRqgd0LexqJZsiMMMpBFQlk0kiuLPcY0bawlawgnrHdLixAc1nZ0K8tG656Z9UnNd2aFy8Si21TodMrD5LlAvQrgYnLFq6q6CigAG9A1tiojfX3fmulNqV3rZY5l1ZfSKLypQIBv4g4OZUZ6SIou+1ZUo8TWNBqYA8Ql5sa18ZpDdPgO3e663kf2T/IxO9F4njFh3QOpSdwUu7lCUIgbQ69XgfzrUAMDSRAZlV34rsdCovT7A6o7EOJQ0Ij/rxbjFVyfigjh4ifLx7f03qsFBpQa7KLhCSpoTSUSZAwGFj1I76zRNgwtPHBauNJzVE7NlERr8g0p2YVJEqSkiEbLSUnWE7FSHKMeFx+cVuoYwygJYbKhSo1ds9Hfx/5PuuvSgRj2GEVXAQaX7MoqoH+brozygNKT+C9mYFHqBnh86pSRxSwhpav1KjQHHfymm6PP8MCUlcumzcU83U9VHzl7JXj90Pv/jf06xv9+fgElBNYC9cXXxaAQ4JTN1VLZ0PzBxy5n6MOJOEuJygQhIg2EuIsVmZVoSlWytaA420CJo27Qm/hw6Nb9a90yd6VP+JCKMI/wffAnVBgiS02e8/QsAaiG+7mtcozNTO/WCAPGyBfza9SzBEAEiCz6Jf4ZOtTW5++cQht7RUdsIZKDHHU6CPjnsDh9Hdb4et20r7WD0UHMIpAqlJH652/NfAY6CB2Y8J4dSzVKJLL5N/B0EaFNRpxDed4R7+MarkMjnsbt1SNrVxZnwWXNgKrXU/pApEZKAvBRcwBNwx5c/O3lDvgoGmfCBQRoODvVRYTX2ggKAuUXfWWKRXU0KHR2G34XnPeh5d0JIimR0J9I0REECUF8Xnkb0XTqjBlI0IUsCtZqOk1rhsXTfMATG2Rmq250032ZzXyYwv+QRjzgytHz1kDZxEowPQQ4PR+w1Rb9K3dK68ka3wFagq7+8da/clMgHMBghik97Cx7XpVaAkbLuL/QrgvNsGTL3to/w+4fAIbvbKIEnQR3CF4ryOHVkaUU5WLCZCQQrK1y4QHLlaA++05MdkCGkT5hnqyjoW0YgpL6YNLRiraMGtZedU5iFGtsSmdGDoWkHQb9jbsgZz1JKE3iGoVoSp38UV5oW4EkQsQw5vUP+ne+Ok2CS+RKNx23KqHw0z1T4d6KO4sGMPtZoBNMpECaHEuyKnUxiUjR/v83auEYBqBYH0GkvODw+wCysPwQhhPkwyj1wWa6lPirgEQIZS9TDITpgXtAqQqW4BGcCmDqBrund8E+0gcfHlDLKIiJ34WVZGNSm9vKM0lOUKXKyOSHsQSAWF+cLz9RlTgSj0RJKEg0dO5p9QtKm0LyJKWj9UoUnH81K+brx4vgceoVUJhUf/4aPA2sUw1q/rrdoP/+6YoZ5Qro4NMbS1WRHXWDeTk2jY2Ed2lVsMfIf+ZJnVbGDGwYwgy5vyh7koly19dea/RHIqXEeCXG4G1pFvFVl58QBGstwSXbm1sVpY7v2DVVjQGAdDEsspLEYGpa/C3TwS7B+Ih46NFPWQNzm8BzDDvuu5uaXJsJEJC8fBGSp6OzBVn9/VxLqTlsgAKZH8qUYNXQtfHJ8M0TC9Z9qByUvANvfsRsknXYzkSn0AzFMht//hAxLdq04JMCGQlqyoouR90xW4Dps6A5NiEm+PxcHgfsT+fXdiJ//RQ3V+Ng6+3yiOaPsv6GYzWn8FNs6VVKuPXt5dja6itDxW9bbdgoaTLJ4w4sK01VrzEqo9Nzc68YuUWlolKZaU0EJBjWRXjs8wEwZYHAPeS6C/huWJ9um15nqUKIxooTTdYMxAWE2VOEVJDZcrChfavEdg0uP5ZXU48RLkd/VcfmtDg2LRsKFHVIO4w24bar4QkYle001hkNFQXgYuQFqJW2wj0uGlZ1cIyfIn2hSAeQyGlufLxOnEYwc99iasRLUgNskIgVGCMyRVkiBWcbATU+sSBANTCzDApr3CncAtv8ZNeeYiXKJQlrzjUPDq+i6w2ataMlGsuYKaHFaAp0ahXRM3xLsDaDMSvyq/hWopHD4lToCpBJoJ8OXoilyfXerEqIV8arI/9+8dN2BlvjBoSsyYvaRxeLWpB77kgsNbNGMbaFfwpb9NdgQjIN92B/+HEWHlxiiJSuZG1Kdlkbd8xptYgRL1jTG+bpLAewbIl7Mlw5VA+9s0l7WyR6Y5PZRuz/Bb1Bw7mwf+TdMJFLAKNL8pwkrZheSHD9VPTwm0GF5S7Vt78ZWCjdTD1IuAgtKRCAfxWUEF0qCMy1BBQl2NpWHAAt+M5adog2rOGXP7TMFZzuBY6w47H4GmwR43JL193n4W1YOJaOi6RnqjPUBQ3vhMVwa3x0q1iVrGtgYsWg0qxq2RnYJjIe82/OmoXPqbA3MbNlXB+brwg/eLB4L+MZjseHNCBiLzyyrrRg8bYvnPwQhRUZmFuZuFZc1dmESqrHjizF5eLVklVK+jU1WZhWioMhBh/d3eimdGMTQzjIJd0LEmtqCi7fMI1WgE9x+C9oT3YnirQYygEBbCoPKi/sFFDdq/8+kEKAAzt0x8rf+8/Z1+X/c2GzyfOdP3Uhr1hdYTGO48Q73cbJ8Wpl4aqubBhbz9ciFpfET16bnpbQIm0cPsUsEDrUhWKAggdZgAOdJN5RG8hE5HcDpUQtHqE5sR2DLQJDiCVX7HwQJhGyio59WoTTY/mCBNcBbAyAFBT5UnPZQ4+9wY1I41Qq9UpDdT+pQk3sGneOHHtKAbN8i31fW58tz1V7QF+XzOlupab6kIv9Yu8J24inqLbqQAr5ADfh/enwG9J/czorvTeb7CcHocjqBHxBTJ5E48Er0FZlcTjA/HmlmbImp3H/7hRLhJBCKAEjLU3bg6Vr+N4cvC/NVY5uGCVqWiJwlJT0VGvu9To1+/r6/sgBjcGX6PqTv9QYIL0PwaeXzYVnpaHP1AwPfyaBVdkOrJ8evTGN/9KHKDkrakZw/cwNT8GktoIyhtUee/XalnigTCGRxwkVdenDADaFlDNHmodIMmua0zo9XeyTpXZXyPT3dnTXybx2cBCcxvRPlmLW1+ZGzwFjbn++hoJwNLQBUCpQFOFWN3KnFtiKoWZs5JSg+enO8Ih0Ba6aLafz2k/jdR4CfIo7PNW8iX35iz6TjKmLTrJBPoDu1tp5EZtVswDcrpGi71+ZaeFVgiarSYMu5oMys1uNqcbN9GEZGtv9XSi8v+h/dFqpGoPGhp0GLpHrgF/PXqFP2f6Tv07Te1AN+UUmFTrKpGqA3ewRil+U6AZtUkJOL08rCeTH81DW1ZP8ikC/fSOOfLh6P2Z8LiOc3Lt5lL1WFoI1IP45rbCm0Xh0vzwu+j8Zr77PtgU6QHLCZZN6QJBhBaMTmCgGw/rNasBUSXJe0OQpEQUa9IAVAEmQg2i5QecrGXow7/OUDZm43neJdua7/gfe08SAO8SSwLV6s/+swulM4/EbTSZestRVapiZqCiSlXlVQhU3ywypqk0g0jWN6+P261q1G4gQ9YNl6ASyeVWhT2a+1aHN9En4nQ1y1VpnImKEO4y02whmaaXqDada2zjyRHDqEEVeib+J4BoQiMFFIC5DUKD+Kfe2Ni78wkU46EBdtIS1gaVTTmNPEeVPfi2Td/9C6n5dQ+1vTs+o8xaiG+4yD1M1FL9g0/Q6LdvF9BEXv3Yy+n7aCPEv6XFaTqi8n2NVPE4lMp3gfXNzwxjxXQlxcixBkqhym1FVeVtr9u3VtgsfJYJopaERm5M7zTHznfj4ba5vS03Wgwncr3qL9gpxhJkzoNJBQJ6JsWzI/BpDUupKnRUeo7s5mtnedVLWJkKvoWh78sjDn8M1n98CLz2w80L8P+mUb6Kr6F7IydgmO7lK4FLR1741MDWO2K9Ow1C+2xyT71Dx1EdFwrCUM5K2UI5h2p/tH1l2Z5QD6VbXU9yablgBvvtFE6iRo1q8oDZ3TGJWAdQqX6bVoQmHV4MvC03ISChtFhKEkrWChyrcpv5sgTOzaLUYgbedL3JIVTrWSkpyETVnFskn2l2fwbHrk5iaQYdavpr+1AJUQiKRFUo6/AbqzKvb/udRNGM85mkM+YFUFPUgMWvhw2hL3OwN14ATe4J1JVO6L1uWXarJQTMiRUAU3BxiOdrPJym4cQMCH2rJQggp+TkVriplUkR0woelxIc0IB0/ubBwIGRIltQe8gOauh7ziCOGZq2bNM2sdiNXFCIrH4yCJuNl6VIWqkE6EJXla+mrrVI4c0IJs+oES6NrUp5VznWSSfFCViVqo02P4m5e122CkWQwHBQpR7bizShRCIXK/pbm4pNg08h7X2oORuuqmAiPRprxM2kFmWr7VAKw75y0X+LphdAYR5WAQhIrz7VPP8+zT1SKji9/ZspKjyrk76z3RuTBBmhlgnvNUQusZKEqDwVsjdHp9qH1iY8EqxC0bCmQacoJ61aqWU1CNZ0O6CzUDg1hTpx6hS9mc4EV6/cEBLjcs69jCyRptyATN8uqV7I1oHCEh1qXLwKuzbQIfnignvlQ/wS3ML+2Ch4HLw20wPWS1Oe28nRXZfnR9sTXkdjb2qF1xmyes/jkFNVlXEDerS2h7mmUecUeyrJ2WxWKCBbcElFuWVBLMT+ru3qKkf2JzuMWNwM/ZcT1pK/TsA8mVa2Yk2FeMhNnfcKTgEViOp0YfD6AF6pptwXKKlK6lwwIbQvOSeezrnU4xcS13P0m296R09/S/18jGGP8MozwBIr1v29sfLwhgNcVLEnSIvcb3UfxT6WjQO5C4EXQCSq77uy9VQBbzZwvOXlLGghrmRIFoYMTq9Q3lhphDZhIzB8akoywpH0me6BFHdEVpAQGqMalb6fPqEeeozQqNWTP7dHJv7/qMYD0OwjDlS5XBpQp3sw5NQaDmtD/+fUVTQgIfaxhrZicWhvUgWOyDiIM7VTCbL+7E2daFVbK4Iq4bg5/fmxar35q1BhIkykYlaTzzdx5zsOIXRFMEq0kGtTIRx6nY2gLldmkPhMvRuQ1dcH7h6ANADmEGn41AFcbxiKQ9exMO4QryGrFlMLkKXXex3wq08ZdPBqV8c/tblSNe9xf0Cvr8/kbbZW6CwwvXl9t4fJ/Tw9WS3g4f9FWd+YPgK+/EQKikwhvDl1KtYR2h2Jgm7jIsR3UfeAVIQHtzB5SCApFt0EppPRnWpIkF2aspDSK48rPmViOYo36HalaiEthalQTs93oekxt2RUJpLv2TWwt6e4Ez1Kt3DHWsNja8L0Y2K46YLB+fWdz//zSv6fcawE0YLibsdu95r9GIhSCAlp8yl3XOHlrYYO5LCXLyONYqlnZUloOE5WS6ytB8IPGEteU5eHGzXci2Vkm79i9ddAKYCpW4kc/HebbzZ+ZKj+QWm/UXN4c1P2TgdHBmouev+D+pcNq6fzkAKfjcCZrZeazTPn26/6H550PnaN8kHh/nmTPyThwt36GxliLGtuCiLYniQZiOlWX5GxOCc/eXz/XF4CBYbr99Gxd5w0/82ix03YxsgUiQrpLkRKgEsDKw7dJZ5SYnGm4AIMk9BwJQWqv/lTHMy5eKocW9yVVBdWywYEU40dwRp2MwkizsAhKCmYJKRLFKRIoEpapRlQNOAVsfjyquKiFx+Ci0UXbEYlEwFN611ep381FwryVqdPynEuRgVmD2mvbFU2qB/kUzSCeTcc0YZTHNWQQqyIbeJErDv0jMBe73yKxNBjaCQoWGPdSaU+ZMFC/qMqacXW6hGoa5Ohjmoejh9vzpcGTgxN/7I22eeAf7icvyQQYeM+YBgM8RfVkwG+XmfD63Jm5bQoeA27K+fjAZpb8x/eGvLOCKRgShPA85h0gh2ABtCIqAxviiyNNKA7Aiaj0QYF6WEKOsKM2gsZakMHCIA5XzGoE06suyrYHNr4GJD5met3Z32XhnPj5WmJF1FTIaunvU1qvJsCH+gwZ0qba+TNlmWJQnBmi3oLt657V0Cn+xrUn/LGn0bc/PwSGb/1zXv6X8YNsBc/LWuk0JBS/Gu0kTQKcGGwYhK4PfF9jJir0jbs1o8SwBYgn2kVAMqNAgSI2lK+GqsS/UaqB2lt3AD6UhZNSBl5laNs2ZCY+mdSVkp6ecDBbUqVh/Z88/gbNrKoiYNSErKwsqbsYSZ67vcXalFH8Xw3v3eEf24Uf2gd3zX+CeP881eitaYON4P3fdGRfhy/yo+HOBvS90vS+377ITn9YINFkhhZKvciHzvJC4Sbr/Ete+0Ah7yx6Cvruy+RqLgdhqEEBxaf8d2j9sZ9Fb0ETrlhVCvHe8Oqa+9VroRvH6/IN3X3NfnDEgCiQ/ByxsRtN24qE9ZDqUt7ZFnN6rJPlb2zJo1DrdNUmNMmmedH94v+/1LfE1+RVVXJuvXck2pLxJRWaeCr8uG7cMEX/az+nfx9qCZRAVYiRAzvVfHW5ja8Ekgo6p4KMxYdOr8O0KN+gUiFnq261yvlJsPj4/V4wmjFLCpSC9HsvttZpJZOpBDBVeXXemTXNidPJGpPp79NGfH3OXIj9daTUZ6Vf2PR34Kyq64r/bLG3me6ofDt/aUJrG8RPnfA05kglNu9KjIdqGu7j+4FZb1KXqUnayHa1zHf2Zni0Blt3L974VzfOQ61IqrVKhwY5Ox3O8wkliMydQFAgxZcsKRbVdEe0b71i9joZGeG2NvEpj50CkIWWr9l/DHs2eTSyHWsNHEn+eBAkS9G5inX0Ybu0nV+b/Ktbjcl0JCZz4cH5RTdk3WAGF0QioGaL5ns4fsM1aeG/otq/QmECD8E2yx7xp+kt4mh/lTXNL2CTGmeFEf/LfmDNK/VY98ve6/ANm7XREs7nhP+kkTxTBwU0llGSUGq2m0OWbUZ1/XXqut+OPGPC9Dd5yO8XsC7a1kk5gxSqklmeXGje6aufJKrnBEOUPTiiRAHvR5m+qzZz8OPP6b6P9PlB7He6fXOro7u9YD4k3H6ZESN6kwQAkFtsfvAnXTsbyS+9a9XsVmyf3cBp/bW6R6a5N+p9wQYFwAmqJMigVPcjG2pttZXLBuJkIDlMC0fkD04HI3XwVnxXMYZoFrWeTwcmq7+O5pWlVdHSWWx3s1+SyGIT42vgiXZPvjcmYftJ6+r1brVQrQbF6A28vfcR2AH+QFHaoXsn+l/mv8fxPkqr9Xziq+PZSYT4sYTVzTa+YkKc/Zv2FE3FC9UQE4ikQwdq+xu//6W8Mf1yHfVL+jlzBW+PBqFZN2cUEXkNGpgymRHh2vQe+uYCEOVPkgFKHBBGrmFGG0LtFrfqpq84gS9c+27GXumzo2c7kLMHL7N5HaWPzt8gqLL9gqv3vdukbC8vybQwiqCXgJ56UJVBlGbd6JT5BlucItC+bWHSmkF/Eo09Dtg9650Zvl4AnIDHPPA50091zmMOM0wrSNuYC1SDVOtlLUhQq+NF0KH9VBkMplI32p8LH1WFZ6wpUYXoZ2uAjsfOvSHTOLPABo/41+/lY/oI3fShtaRD6L1ophuqiqCs4oQm58PcOP3XUBkg2p0sYa5d29EOe5FIBgBVA7VkwctqkuTLsS6UpfyALKfN4ibA1ajtq+lm1uYgEDkb7O0ZEZJNdAA0gK4pNcF+gOhwCYJosk4PdfTg5EFrUfQZokKSwH0+GD0eYJQpyHMX75KTqUqkHhTaJgM0oggk+kJOLmL6wSjPoG3YSlrFDTAvKz6AVFAxpnroL/HEA6rZ5OLb7TBUIqJK2DFMRACgpyxmrlibaVSklqCuQFUvc2ZUMCJb6s5ExYZKKxrRJx65n7Cc5owI2vp8uCcDnB3aEp7encrAAgdMR4AMChqHRTEUlThC3vhYobuAIDIAEjqEa4WVAoanRio5gMqsaNTh8KQ35m2dFE4FQJ6nB3J3cHbRBKmNm8Cm2cQGrBeutK38rElicYC0asgoNEKUkihLbhB3bnokmpi0MmHVq4ub3/dxwsRSmohFO5PukYpklEHeFto/k31eIhU9jKYKzC9qhDj2wrwKx1KBnMGY1Pp53cNaMFzgvqOC4m9Q2o+MsI0qnM/i1w7ufEjjRx1BECqkhoHOut2YU/3M4Pw50tMlXPornSkRFKl5asKQYjiPgqLOftRC4ObM2jVz7VuwkoHAa1hWVlDy6/fgIrzC4KXUztE2L/RUSwouIPWK6NJgel810JPfwWS7ol7eFGlm8+kQMwn0TuSg5oDvUkEIlpKSFi08z3WopALjMHywECYINKS206iiFJnz4ZSGTSY2gcY8526Jk4iKDHVBiQipGBP4Atn0fbTu5v2lNVKcw5ZjseKIqXBmME85BI1l7PB5Cf/vuPEET95y2lN3mxKKFrLmVOf8XSC5WkV8EyrTXPlXRNYdsmllCgrynKCIL75oOjHiZOmk8Srs2iVB+Fz1/FA7WQLG2ogO9Akk0pYnmcf0kPaTGH9commUKCmuxxIikI95DuKcNbCiEcZax+FinVBGhJTGyuSKyMrtAYqQZcyTYFMTN0DPUARYkZ1aY7ylEO5VwsmcJ67DloC3qsy9KzaQpNpsjnwXMQB2Kh9L5APYREX8x9L1eRgO7Y8aDlcWNzeVkOGy5sXIsbskBWJWG5oEnh9O4Ag+eW/DNmbTIm2RqPlNTd1PFnrYnJxsBp4az++JfNbDG8hvjOkIYR5DuPsxdcfSH9gL+np2VJGxyAAQmGxZ12JhRkLRFzuQn8+tIJoBTpwLb3A1mLKO4OKp1YtgAdAClBfJa6S7xVJAbABeq+hcHerbE5kd+uoMxZiGzAovPsrpq6frvCesWNYXXtG5GTQhPCZoPuBmzFMbNaqYaeA/0X5yn6xI7Uul0f7Trkea0uZ5SoQVqwkiN26u2cSLkCiB8F8L0tRcCgZ2YAic1/R4YSgsOgJAuV/gwmxWA0RlVFwBfOG7HavagD6WK0WNax1ih/EEVCohKIlZsxpbUBjU0mZFlQ7VlOt9LHglCQDksjAQzjwjaBL7a3pJT/13cMRUEWZHAxNlSNjedPuqdGkoKYEbVhM3/qqk5vmvQtr/iQqKrv3CwFhaoFEW7VcdhHnUHcuJ2SIi95dkYTTUEa+pVePqKq+5IeJYNd0h07PXT1P/Sw+6QMqVERLmy0LRhkBYvW9aBFLCpDE/z20RZ2cqsvm3B0U9AuXESmgmiw/H7BpNGNiIGAwd/EG3rJ9wBKBVoF0n5lThwP/3iuGqwkN54D+zfQjtwz9LYCYURUYCuCa0grAG+Ao0xstKwxv2LwHTs+1qX8FouvIg3CxYsWHEOOibD1Z8CssaaPIuxmY0dd/kf2z4uKVFWz7MgKhDaBtCxDqmbcSp6smGj492wv6jCMlJkEAzSqopTLfL9wZUQplHiWEEiOuAKxiXGWO5Jk8nLhgHwoVYHn51k1TYKqQN0JJ0C5ZoZ0g9K8lYNO14aMOSEI/3lXDQkzK6E/VY7u2UY4xpOLiBXls95RuaPlUlNC9YanA/8lJSUTK5/MEgIF0P9AKbLignTOXALPSjEMFyn2fyaoYW7MNqskgQOTuLDvOMy/Pa3uthK8TSU5CzW30i7DHCPVa1+Y/+Gb/VZvzt+3skx1Ak5z5vp6BqJwW9AZeC2mpEEAVVAWgf8G12FQ2ylfiOnNG+4pQcnr1eZpQM+2s68jpmgnuv0KXaBEKpxAFREnKihgIaVB7GST8yC/B0MGVv8zfIYlnU031OYyM4bIEpFyjGmI9BfGq0I+YoiLzBAPpki6SleIUFBQQsSRIQkblSB3zyfChzJeN13L7ZBCYlAcL+oSaU6qJ/cVGByGQ+fw5dBVfam0PkzJ7/Ye+cfdWQpVdBGCBjTaqIbeBzXm6MXTx95kqZPRGcUFVKA2Gl1GYzp7+sanmB+Xfago7wFoidRoMTob/AdNzpM+xTssEnkFzf2r+5Sz/s+Tng0RZbFs4Atpwexzas0tTMs5wwmReJbzzL1RyC0AJuYj62/0DvNe7KiPfL9wQq3iVgymiufqzqhQgQ1jt6rxCeSuSc9gHjN0CWFU3pyxpIizS2rOFTOmMaFew63D1IDPQnugKA+Vc6MkuHO2LUWWNYj9x18bWHCGJjPnQFAACAm6YvTa/noCWThDOWm8nBcgSGgDa3s6+32XNNtsuq++DfNifjM8qWH1HpEBIw7KWo9H4o3a/Oce3oS5k+WPmkkxuqWWiRGLhd2+x4Z/gLYkpITkFPwRyNKBak7Gj4rMIEOFVoSGG7JI+gb9iVokKP0AFJlm/0bMwiAr4+n02XuXpfCy9Q5Kg00Lr2kkqxkjd45zTpPTcpGaKNbQgQQdDiWFl/vJgimbPCV4dSZlymNpYNInbu1TdpE44AIbUX8Jmbw7yUryugIrMZoFcTxQ4A+eJwKUKyllkkTMjUkX09spR67ZFZfXKHomSOJDgGNGRA06zIbx/BVIaAYyl6BSX7TDJl9FtDKD6BxMhXOCE9fnTMwrd19t+UaSQjJlO5UBhfIOxCS9AfhfiCb1kzkLhD2ZsZHz+XRsD5TBy3R+0wbA8p8VxckBvDVBf+aTf/ds9+RednyTXBLZ9NQe8a+/yK6svKngko7qp+e+a+AlIm4BLYWHgj0OCSASZC07kYrIxrMULyhWmsZ/XYQCgAUFDhvGJWB0iYtT90J54UcHKVFI3IDbMXfKCpIvkV0n5/S1sRB8AuxnSyI+qpk+ATqV1CiunUxH1ScYg8jI+XqB5PMCkESsHrhGYPUR09/LuLkotwbt2u40JbbvgILnqNka+6E9S/f7nuIkjCYIAVazPnhBYqdr56Wl8KElZ8mXwSyMWiXXi/dq8KUksoFh901GqamxkpL4puZo7Zgdz3PAHJi/hrqsDgsZEKjdeMQNkgaUo9jr1YOSUxbQrf5CHNngoWZacdf8mFKlY2oBJpE/vtbNMihZZxqBM0wPoodOpm72rMeDLobv61DcBwOMMFcJaSYqWkGvBwoqoANuybqGixEx2GOcPd+HCMxQLyqw15Bd1maSjNnvqtbUTpPID8JSg5P30UFgVRllexwAz0rjd9EOn994XBQyQUdYl3UsPsVXF+qWRvd5WiIeQ4VOtKFB6A0BFEEjPb5+ypd9OsUCjXHz/s+IByjljW0Wel90O4Lc41/GKXhteNFj4W9fegZwMlPWINY+7lIAF50GtlhC2AqcaDKtyIRqttynqNRJepIJ+2INoFm2fCASSAtXfATT9i+dHcqDKAmegBgNEl8xwuxPsw3gYF1OwTPAPLsoIJRL5MHLfucnlx5Px44lDEA2U3cOUTp8G4gnRSVmTFZCT2jGKXimQWBvuqiYJS9fBdGG4wTaSaLe7JF1nFqwCdGvzVr/mDs2x45fR+S//qDUrXflBVhVBmta42yahrwlcKY98emsWcC4gdI/6VFORQJc61816pvs9FPXjhbdGj9XP9d5woVzAvsploTnHJGYyNBaJPFNotahuvCe9h8RAqWJTg+cqCKO9NrlcfrbdOlZDcBGqNUEUy224dkYluwu6ZfTvmbZV30g1VfNX8aHqIokxBvCLJoSeVMV0M91yuChS60m9AnKFFvvBAba08/NREmihPd3+2Lgz8q5ClrmcK/Jd0G4SAsyHZEXaocCq3sqGBvdMNYJVVJQNqLOUqxelUwtdJCSl6x20FLAF744U/xSlFTeEM+UZgt4iLogvJTbOawE3uKeYH0ubn4g/QFidZdPWyMqvKsdXvwbl7R0h8DYoKCKC76LxG2jT9s2uf9yNtIuoKjrHntV4yxAddoCdMSzwPArYIp6aBowEE/hOjdIx8Y8LCgG0RpD8dVHwcwbbmJkbdSsgIreR4i7nw0OrCE0lDipyrbCPYM5lM6KPDvXHwP6fp/H180lB6b40KToD043ALgEYHdNQMHKKjFUUCoF6QuWzUO2us+qwzackfFKtepKyuXPPpMXBwYj4WAsN+KUZzMjQC0FJRQCSD/zxNTo6MWTxdzN98CQ9f6tfg+PGhSkAK3S7bTEpCg5DqBfGr9RLwo2cSoVz+F1Gr6bbVs++/i3KNQmRsLL7XFr+AnDD71IWgackpe4ARGocPdAJZPeSILihB4gW7vE9wnDXqwIR94ezzQN+GI27ZEkVNoo/TTqUph6AIcW7qUMafwmDIspzR8f7CrAd+VYXOj6NBGRHd996gaV5qCaCOgOqHXYe5ZtWUZvar/HfQuthAvMVWG059q7hBD0YiLmz+YXPdGrvzEwgq9oFmm5d7MzzXyn+S93KUDZkeMf0+SXmiRUK3wtvSjV/n4N1gOWOBnHWnTfdaieW6/CZTleyFZgF11eE+GHJndd9m/ppefeqr6ZTkNy1BSKD0ltxC6p9yqHUTWhUZ42YBP8EfIZ7RKQ0bO1TKCtJzKRWxLSMaZGKoLLUcEBthFVkd8AsM2NBsqCBtjedr6qco6JWqSnK+bqMdxVqLXRBeS+eCmHnmJAC0FXgzjGYwQZthFaitRrlKOlKO7uGbU/dDoCk+pP1iGnAtjtVhkLI3V8ZCZRHftgHS+E/jnv43DHVz7hwNG1SN77QWlrOfKKewas/OCLmzG9nBEtthBhUiL8JW+csO5HU4q7QAmF3jOzjgxRBjXHIy3RI2EQv/MUJU8AGYHwYP2hoq6bCBuEEBArx9KX3MrIlSVqJ3DF45DloRshkKugBDJzy5bzsqG2qA4YTRlV74+hDC2jtsT5JKiGPZLeiKNJvsfXRZYS2HYpeCFW0pIGNc1/u1u+p1m7Marjsqr6Q/LUjqBvlwXvtC79APzvUXiqKtSiTDXTI6gh0m3Rok72SKZX/ykr6+KqhBDOCSSJ4QZIKXG6sTSjX0QuTqsonrFwWrCTpVwbsZQsnmAGLPhNrKnpRv6icongQfN9g5qsxDb9RBLD508+pgFeq5lu/6X3JtEycwAMQwYrIUzYUkAqg2pegA4MmzzpjDLZ1rdAB8BL5yj5VYoRMlQAid5ZBqm9knX+KtbU/Y/3GvgXeYtIQQBWMnPg+uS7eLSFXYAeiRKpB7brdFGEtKp6y+0KXzq676WFJKSAA2V6SOiXbAyFPcBibKqv3/GU6R3WmhD6Ed+nDZwpsgur/+U2LmbJ9zTZqBsFVAkiFQvTp7Zl2QViGHGPbDH/B70DJKKAC1sCUzkJDodInFCoAsVgk6EJOewOBbb4xnKDJlAFi4FPQKQmQtfIcG5LiWFjn5gqzi41UWQCkMQzkCisNnYWFoBFDrPg2CQMDUIU6TrBFSFeqjgx8twKyLYd2hJplJkHQ2LAyv/AuLLiojxVqx2xB0TK3efwE5Sf1GWa9J7wjxczOE6ZWESLuY9QfLC+VVyyA8MV5jkj4teB8e26dTTKVSRT9DfCP/eKzv1d9gc6zACHLe6QLrkS2s+7BrWDlLDb03ZR0QeUe8PFjzsW/R3dnLb9WzQ4kkrongvSBRu4QmK1aPXKDzd2IpDIA8qcHVldVSLvPzRyh4I7suukv2+dq9+deW3iHNR0zwwVxwPjuMhxniISAzsCZb7prF9IXSErJ8fqDeAcB+qLFaZXeK62TjFkvpdftiiZwCb0Gcae15Vp4rRlgqlCb3ZxSRkOkiBUPn5zmcfD189MO+SAeyR0x09LN3mRrrqqGEXJGAgLAKkmdLmZLuakQFOLun/8mbUpBbDhzGGFS7wzIsFEVUDxg3xF6ncJmLVe1nLJ4/P4tXBN1Yfvkwy7HyIumc7RiDU5UVDTf0jmGxiF9vHMfIzSqzvpWGMWi2ZGLG+dDCd0YrdA6y8dGUFLSLZuGFTby5pi0Oq727j19YfN62/t6j1wZ0tM7LVgbf109vSJKXv2DRGtoXSZTreWsd/I7z/UiWu1UPCbOB+VizW5STl4ZLzpp6+TlSpuXb44y/Z0nxlT2mgqwrGFyIMtBx1aG7pePD+e7Ef6Z6tjuehgPngSYPxiTMgI5WGRxXROF9bmT7y8hcb4/b3Wu08+yeA/53BvbWN8qMv5w1EGL7X+jzqbJXhKpaEiLrBUnkpvP1N9K/fovoWBdoCIKNXgWb3qv51Rycbt74SnhJPEWVfFqEqU+Ln4n8jKk+3U6vlLQWX/y3VnLext/BPPV/CrofAPtDk3EY8FdpsMDFlFP3etMgxBsxAWgIkD0C8/vUCga6KQVuIdUDDKd0pSfj2D4sZvenLXxfYz7Gno8f0K5fPZOSyROFsRpt/Sdhj5UUBlfij8hH0Pn0Pt+dWtiRGigYIrNlhKznK+IbiTy159upizXO73gDm/nckMj8jyar0Ay6SItsDb7QB5AqFxSvgJc3Ma1cAqVMyvdmJNO+NNBKsRD9T8blB/A87fX/VRcs1FEqbQ28lVsTv5BVZ8hL9Y1sNu12+02OnttSbePoDahOA5lozS72fgDHOUaaxKanlM+eN9Hw99T3z3Zy7u3TR+bPkJKSfvZhYGRrV2HQp9fWIXrvx+8pL5tqo8vADnShD+37JVda9FPLQ0HLhpKKNUKdZFWxRfMQv4CvKimBTRVAtXOyf3jds9fzAzje/PHD+FXYz74PLFH7nWTiDmrkYh6SCqs+/0hz9D6rPvdsFiQGlhiLpWV67WfPL1Pi3T0cPE+qq1o75SNvkdu57b7tYJfqYDcSTlRr9SVfL8Ed+nLybkYm/L2fBgOgiAoKcWJMC3g99GlR6YuNfBVle/EL5wH68NbRS/gI7Qe1epwxu5zmzCv/SPL71QL/FcgPjRHyLhjzcWs1Q2h3XbXifSEN/8wbmYb/VkL50L6nWp31k7ATWKHtckIkBieNhTNC/bJGUNU+LmCv5Pd3wP4PSxHFO4b9TL8MMqnWzie0aR4HmgL4j5SUhZVS+PkMiIDa3u5HL6R6phAtDa5inbVpMhdMkEjiXafO1reS+7+fZS9f8+UDtI+ho3zS840m3voDbcISBaq4hv6E5TDz9Krsnwlal722xp02OfnkcTMBaSIRfofl8lOJ5y3lXkA5wBU77HxK5a5A4tyVV0bdaAovohyxV1iCc8pjk/y/Xpffee9nmHT1y+tr6DmpbmYr5y+dirUypCxWCrkO3Oc4VR9Z90gvhMhcgMjKpIXwkOzv2Gp5Y4HxUcxv7BU/tNP78QkkoipXGB3jsyMa0bvlm+Weql8VWEBLEiJBEHxnAIoYFEZd1hgTJKPHv4993GDtj0QY9z+66RGE8ppUaP1tyMhmMbunvEuhlOxN1vfI+Hfp2clGRd0Tkv5GzG81+oSho6HxBamIDYXVCa5/qJ3PUYrjC9J38Nnzl55KIjg9RZ6Vq87HFj/N3q1zWXRtA/LCusBy+BrF491tCqpQkVMzLWnrlj3IVWhv7JIoJY9mWIYswy0LM53zWm3CIGWlMoYXJT0WKMVJRE0ikwozsV14tKlK40IohTy2wBkJAUXU17bG1aG5LdJ3gmuzW/N5KEw3ZLqK/vGvKLsYL5qxEjDBz2NWaxBBK5O/0IbtHMiFMgoLes8wRObXmLip+j3nUN9CnZ3nb6oWEMzR2qEyjWxIsBFcMo3SAKMbiaax5IbEq7XAmzGhoCp+aMERX2gpUo8AhrjAY0tjCcHmyv4EiUCg3C6vW4cjyLnUg6YGabQ2SB0bLbwgWQD1YOG7WwaYxBCUAld1ADfQ2RNIBLcC076F8PxC9avFJokpcYxMcl5oNPUmjH3BdDJJz9OO16lUSC5UwKFqtx97YkCNVC08gC+y6cRVukEjujkzgMKA45+th+xaomNRk4TQ75MQDiNma0EHC1SJ9DCpUCG0tIcLA6aBGmtEqTDAO6sHVqI09jSZIjE9iB823BGpJkZBgjy0O5gu6UU5S0iI1IRqgux+gou4zeWxO2regsXroKYtLrVgqiWqVdfr771eiDrJXb9zWvMfk9nfgvXl2TAlNkKr3L0P3MsLtJVjgoJhfPQKhZzSCO7okQCSoMLA8ynPFRxiunWXXhpZ0EKe10BHps+LW5bXF1gFMZfmSUCpRS/4K3S9odKg19DdBSK8LvniC4wHwSuCs8M7r43ivfYPn6r6nk+qq9YIu5BZspbCQplT0SFrYgCFCgoQCKCdNYKUIVbyd8Dn1l/LWbP9UMnxbOMYcXK3EgHDoSmyNqWTjTSNggGcRXICNivEuxWaj4QYXJDTcZSQVOOYMNn93MoOacxJLpRpkJVsEi7JXkq741wQDkO8D4iWx3fmWoCUtdx+g/cYQo614mAaTYNQRABdadja7VO6yCH0SLu9Orfo37+tXTmhvVerXlGMsuHQAMGv6ilhz109JlH19G5zyM/prsr0E/ihrdqVlgjwF1C0BZJCPhyPWsbS9GOTuV4ulJBViAZGuKb0ktS8TGxmZ9hIlE2nIUXOVELAXuBNYHKs0DBsAAYuL3rvFbBJlKk7OwHljjGemJ7bLSyGW2izQPXJ1klgBur0J11FElcm+teDn50oOI4Eeeyc0rWZqdvuKd8tuclig7UWHpSp0b44dO929d4OnAucjorpWTMHemAqAmEK+5DJlgzP9W++eJQ5RxoK1fygJ8ICwXdWIRuBUw0+McTgVPxoqQM6IekvXRqAUrclR+a4rfIo3wn9NSeQXavWJnE3R8nrP0VIQqqB7Jjo7FYZCBAAOPPgY/FHnQsUnOCEceRXB8jUJxVcrqMtI5Sehm+ZTj18JX6bYGEwp4oVpwKc7Vy9NQEjUhe8rpcu2FDbuxZn+HcIUVHV2CZCoAIveamqhVSN2GRjm/co/adGSSyhMuG60qTqnrlvRh6xAQ6t+WyFXCzq4bKjrF+5s+gQKFzFgGPMnaBlErPVDHDjarS6Bv2PdTvu7/x3SJpIWBh9MlY7mygAXlVhfSxcxT//OSjjCOiooEsT30IAuPOhLOYMnnClw1URTFfhNUU0GizAGIXN/JiEMyGInkX3xXsQS2zzCIBOebARcBUecOToqbcNgUItIgXkAoAq0CKi5uRrawDfaNuHyama7sANGqdEVFTIYfT/qOzJVq76SthGjSEbNWWrPRqCzVI87YSJwf/QuB9je2FzgVRfdbSWbN7gcPpLqkapYOAA1OF8uQ9zz/HxQzr1SiOjXCNAQjV2oBUxzGgBvoyKoA6y9hhjS3Z4xK04eektvaGS0f/hDL3pwJ1/+Yl7L9D7UGbdFOSIGghgN9irAAOfEAhwWFRsIJOudxL3g/FCFVt3VkSaBDqXsEQI+lIvm+FI5KmGigXQgPUogkQFFcOW5UYCSo/Fdu3muhar78ALabYSXi2VhaEEu9EEYc18hy6Y0n3Nw6QJ8Sd29UdWYQsoC3FwEnYBCkd+ZupwAl9Iz1Rc82NQzANRMV8SOd/QZvTp1JhB7h+TwnYbEA/HP1YsmgM6cZ2C8PC4PGZnKEwgoDKoRvQWyqiWHawzHzyK5Nf/eYkhF2IKqlpPDXrFae4D2Ppzul+/ywpZ8REz9KOWh/lSQEIF2WtKqc1ivRJeVz/dEyasSQuyiZGU24u1h/3x7xqtn0QOQlqkyUC53R2gpVTKnBGr5aD4bT0WuCap4uSegBSgYRQLXRlJXCrl/vGPFbTACRYwcllJ2hBbXLK/oHRk5AmbCWAAxBAFcJkBBEc4biUAVqiEi2OHZDWotNYfVg0PNlKBHygoD+rRT1C7foK5xfRWZK04NTyAKQJjSJVoRogRQebz4KBUpGEwqIi/0z94NpEfHPkqX7P/gmSCobMsFPP7yG+2HH3G8iHgRNJpEVxo9Te/5r1+tsgPgfOy9bQfNJW3QvwXSo6iG0ERcINgI/iMiI/3gBi74YurDzPWOTEzL1QtS/sGOZMUYFSyuT+MKP7EQ1FIoW5k8BY41oCMWlSmJnbsWlGo9f3t/1csrO2JoIoFV3S7xmC228fuwvVRSZiLqYK9MbeUWMeFFQ5MEEnRywBSKw7sqqdZ8/8iKcwzkRgzE0FT5DdQGgBGDXgP/K9Weu8bRrUPIENsU3JlXTTCwTAItRcFHJBhpnLFChth6hZbDz8FJ8LjwWycpK/TNhXC7g3TgiKmgNjU9F/LVm3dEK5s7bXopkf8pv/rn/U4z1IZGHXqkIfMoYPfvFwzmpu+2u0cNAkgF1a2qkQxDB7GPC80w//gNvWgCjpmK6U1+ePVkkqKE0ZdQCg3gR6UhVdGcvSw7R5ZeRqORhfr7OGfPZqPEmRHzRKyVeoohJznwATUyrFmvL4GyPFfqJhQfQqkI62QLdDaqcbTeMWernOK74SvkjI0yjbt0nSQbWE64tgibCHQjH6y99p8fBq0SVMgEEiBLwQoO09MpMPhFT0uAm+RGRSJGBcDrrTsCTqh9Z8p0loCq0PB1/KYkSVlJd0mrqfoe0rLy1ifxt5mmBx47n85SMcCA0QfHt2d0TJ+UzubBPjq/388Q51h9G7qndaZ9BqcYEQUURgiqvkJnR95E73GBul8KCg5thFYUpdZfQoI7cyqYoB9Y5aldItkqtpTUhQ+b6ellS5uMtIBZfjbl7l3fMG2O6DkUahOlfd1xSOTZQA/VMhaUZjpcZDPwo/Mw0tVpPDhqsKy++PhYw587D25uP7HhNi2ojDJBD6kIUR2WObOVBBtbrAImXEn7kufM5P9YShh9RHWS8cKNUUR7E3ee6/kEpdhCIoTomat7mVublKI7Uskpp0yr02IidULX+t7uOI0mKqLC98+LYn78VkUsIe2C1kEZcuUiVE/OsXb2D1fEAc7qQqzcANaaOSU3LdEIIwPGSpqqbjJc8uWQWJzWRysgnvMQ9/UUyVlRO61RALKgIV0QOgZTHmHtGdfsuJjqEMpTABjJI8ABOcAei2Q+gRHZH8KErsH+7S/GXcztGSerz/CCwhzbiztkM1VgW6HtiLnabC7AjhwKhgh7TphOgBV4cJ34AKoje9SKXuP0sESaUJ87AWL2lXmiRqBIsVxu81os7PP15vMa3hFUmtdDjpvlmXBt1J4IR0ANo53kpaX7sr5S7ghriXGTMAz3Ru8U8Z3nVrbpMcCMgTn3bUXaQozuh65LjXtfmHph3lM203tfoGkWCu4b2Qg26LqgOFQBQlUVUXWyw6oYB2/+u6SaXfVjGEu4AeFitheG5JXxSuRvtHjpQKu/RtmXH152YCCq/Q5i8ZJBs886pRR2JbBq0pvQ0nEJ2cgqK53hBlI1wreY7ka/TYEx4xZziix9AykDS5beDQROiRINKlzkCsAP/JXe+G/0CilCzYpEZWvTxjt2W1HE2B2hvaXF2FWVsIZXHknu9YPEDP/HMyoYG1OQLcnSZeVzQYUf0r6pPe6I2SzbO5eXjxKGmuJzCciiJg1+WJpaUKoiYwBElKdaCW3kgQ4tYI64xmKhTAGSRZ5qJNBPHQ2EpD5LZJBqiAaqn8BDOd6FIUFQpjf/uximCqBImbIbEVdKW6PtY92WP42HSEl8T4jvRop9Z3nPN7krdCryPClG5dANvI2GKRiXo4mosBd86do36E2EtF18zW4ZHyvg2PKs8Rdn4S3bkkEQ1iGcBxT7/HunqwDhx0iioMjfHj0jCd3Q6O037yFm0FkiDTIC2OLSV+78mbB7oNIbYwfI8qO//SL2NLpSKSGqOdYUrJD7ruygOWgQZ0BlBC3LG9rMg/mLm9buEwgQxXygqsvCMPqpxlonXu8kJvq+FYSyYtTTLDJ26FmLojFz7khLPOAGpIBcwNz2XIphEo9KoiUBtdPAMkGl4pQQbB3IgRHZBqW4crU8wmb6hNnJ+ECgv6LUxeLxAe0C5KE40Gy9NV5+3hR2x7+EVDftJ3fq30dQAQQldS0gWkSdCj4Zq81U3tnRrTbCLLiDA0Q5ZAGQCEVcsLPcgIAi9TjdX89lh2m6wIMhwe1d5+Fu+nhTZX3FukauugPl67ZnUTVPZ972K/W/IELQOZfkB1xi1Od7vs8waYughTDue2Sck1cQxzuL3bgimWNFQoDJplWJKmITsDBXQgY17Fme39JY4IEghvBg0aAzgGxvM+Qgp1uIqGolFeyiZjRAJmsFsj4nDN0sBUOS+Sd/oVVphmlbB81XpR9Q6CHr33vdeHx/aWcgya28Aoiu/I363qGjfT7gQmRwhWTVoNUE++aEZvspCtNbgq7n4E5EQezvEClwm7wfKJsmBdcBfk2Nrd3iqxm7621BD6FuSep3bcikqNixNXVOTgkenYAnn3Pu7sTPtVk9v3PpUxQT816LdcfZkxsuYdlEZKs/llaPCVf+qc/fEXNReJPCsEz0HSgTA2u4B1SIljGWRQRPrn1pj/6oexVSe1NAz3P46kEkDhC4S+MNL+INs+IJ1i0VHbK5q9Kd+ASuqEnj1mVE1aIZC7qGVKKGDqagE6oKTCRol7kH8mp0rhmiFwngnJ8pcPlybU7+4obd3mpKKZp7VFINpz1hYsIIQXxKHqe39efwAfxv9J7a8Az23XfOXShOuHl1Cxu2+NZNtRRewjsoMzXX8DbDW4J2gGVZZz34+LAyImZc2QMUtolFcJMQ/p3gVAtvTeiLqvIkND1/OEm6IUXrsN6mLKcAM7lOIRUDQfa8kY5GgQVmhttsW2ObcHTE4wIkuTzGEMKmiUp+AoeuE232Lssa7zCbVYE069aeORvuaWXzj9gQ4QbFw5+4VLD+JDqFDMUJWhghtIroMPYUX7E0EBIaXE46Tgtr6RYTh2X0CNnhaP4YeEKlJytUhXPYbPC8OtjvI0X2n5S/6s0UUlaiTa2t/EJf6ko4gfY/F80g1P/ryFn9ZDn78Z9PC/OvN3jmHVnDnAtn2tQHzFwdywPXx/bONzbPi70R/G3f8M4k9KfgxOBafPGl/d68E2C0IzUCYOlDTGdYr7eKuqrUrl8syXusleu8DaWRvI6y9K1OW559OuLS5C840ZI5JlAoxOINl6fgVMyLJ4Bw3glTYn4f9m1MRxIPENmQEpgv5FJWvhtEUmGvWQ7iK6wTsV0rsBAnhVZ4sfIIjmUqTXOVqQwYrumHUTZ5zHGOonHlklBRJDiYUuWrd/75A2TzB2OfJg4fhaBwpnkaHhoeb8V3PAmjI8PVBUVbHwsCQ09jizayxCNxysFlSc104E6SVbdVbs3vjtw+O/fHRxG5jDH6dc/u+5ig6Iiz69llmFtlm4FrTJDX6p+oEZohHorn1PLVxxreqeQ3kkWu4m10coSzq2SXUbY/bfFHIQM0H5+BG4BtwngtchrH5bI/2xjG/hGMJJnsK6998PWYQWu7cDgqW1goGZdjULyHTxC49AdDSWjkz51BNhNpN3XVI2qXi6OftV585WGZlRc+AmZ+zkYuslQ75GKOcr2ejGnoC6v94Mf13QsLq5eyw0ImrQHirpX6gmFTyHjmUkQEgPfR/oTXlfBzknkYaAUJWm0A9Ruc/5s4EAxEHSgHMoSsDjEuZWrCUqJqQMvCl1WI7QTXSkIW91fI6ct9bDHNa5kmyxLybn6BLnVdRSdwaOeF6b9VPukFPIXFARIlH30WVhEWY2eo0b2j5jl+HE5RH54rcGX/54kFfUjfMpfDIXYiJ9BrpnO/uHFLZawdcqH7OSdX2rgrvEYeKhQb3vb1loDLyPyrEg7HMAXnqcdZv32UawULUQNQAU10OEtaqXY0wRDssRkgr+ep5KvfTdyt5O8zor6+aMzuT+mQ4mpssnbB0W980X/8KAy8juF7T/3zKv6dkKx/8lw0+Ag+APbnoy8HAKzKX81R+OyrqVh289/svvD+o0Kgxy9lSmncoPCFdFSXERctbRSBVyxy5qNd4bDI7PeSjyBdC0WSjcLvF/F2q29aM6Yeu2e00qv5d66n7F0t+4VFwhh8Nwhb4h67V3l/gFe+ZUGXE3wlCr2IEARDeXkbyWQZoDkP3wt2Vebq/r+EjCFucFD7/FBINH3d6n7gCkMFmxlLmJw/gK3rHz84cCxNaMW6316rtMn+FcO4iOSdJX9eUW20O3SFk2YWnDCZEKQlEoOiw4mhkhrkwQj5cmXABVhjPmYhMa2n2v3EwUDYQ0SkBYIGjXkwogA9PMq9dnUmcMPy+ZYXJ3+47rNIM1Vi2cV02oljM9Kk7QaoYZM9e1gwNaYCF415xoJISFd8YX1w6by+ay1lpLC3QvE5C4qH2YW+QeCO6qKSryKoWC5Jnw2YfuMTQSdqkkQMy/o+L853VV7//B70HcCuk9Hg/hjcQIU0CmgUJCOnne8yRfoEdigbRPakx13PVP90Gxr3O5+25FynhwlTByw9pf21hj98TIp/fG56fSBDcKH2dIMgM+cHiABC/AD+yZiC1y3l5l5GPoR8nEw3R5/NqM6a8L7NdjQHxPACGchElYpaqMIenk5dh7r3H3YLks6QKHz0YMYYA5xURQd1cwhxnRkS9RzhGLyagdElUDuHtiGovjDZ2P4O3Cb8/l9VLoqZ/+95Y/BWQpzX1w99cyBST1wjsm3Y1J6NEZrjnnw3D23DeMvoR4rCCuNQ8uXIQiUNyAQLqq7tdnx2OLhcWWl1AGKa44XuczKtbblXNLP2y8/iHZ9OGguX7G1s+JOKzQVDDoOwv/qNvesYciEC06sMRj/JM4HVSlo/xeKSEwdxI1QYxOAis+sEQ2g1URV1neDXid5RGIzdZHll3XfB/+ux07F9giduCxif8Eq1QUEWdfnmrvrlU16xUHVnqOoK92qOl5YpJHr+PRhcC2TbWHSBHzMFhM4i2UxWqlXj67/H7k8Xm/61mGbSAvTkcY1g4vdoSUwiimLepYai3CuEWyB5qB4jwvt/r+NAsIs9vYrO6Tcsevus1bkKkApy4ZRaA4rR1iBk5ubZaXP+++jXyhOKd+DKhVsm/ikgrmMix4q9JNJhxmQckWPx1FKRmqYq5C5QTCp4VOTt+4HsBJIsF3p4gUSEYkAQdnFAsiWvRJ2AMALkiaBXZzF/FhS5W3fkJKswpK24r5TgPXeu3KeR30Ltybeg+0MzPADbixEnJ/96Lb/zdkfLvFyCsjtwzQLLtZIdEr7mUWxOCcgsH1yV1PjuNU1ga+Iy9/ukH84sSxc9TOQ+FkBTPcm/YFsEFpg7Dupldhc0Nnr5i80OlcOEC4xtIAtBZWi1EEahO5wmkl9PmVgPrda31CbC+KLLv7u1L6RkrH+Ftsl18E7D9VwiWv3ndiLsOdXT4kpd6qKZKB1tS3eRbBKkqW5qwcrPVSpze1FNsf7B3zOyUZ+kSUCZD9KAv2iB3ekMLRxuytWd1rUCfyHm2rGLT/N9/W0hudUL3HaRFCOdlME0ZeNgC4b3eAjlnCOKYcsR2QCr2BazR9+3f/rwNVLlvhazlPvx8K778D1AHuj9v0P3K4PDgAmo1a2niVq96FZO08b0Pa/hy3C0FM0zbNem/1l4fHPEtOtIwm9Kf0ewUs19Hq7q4vac9ki2J4vjXUcBmh2MKyIEVxezKLeQAVIZjW0yrAxSAYIMT7k1EoExmRMFQcnhR4JDOmWHpZLJFUg1VGhPQ6dToNeO4wcaeso8ta4aGVRFob7SR2G4cGC9wVqGK+NkcZ05RsQklCpkTkq3RVCTcZCCpDfdTX/yQ+CZAiLWFYUVKmDGkIZlgIaEAJbHrXaHSVHhIAnqybZo5Np/pM30VeDrAVVLTWWtpX3B6NDjlQ0eiY0NkXk2LImD+qEGDIkHA26XVmEHUmF9RyzUJsHw2ddUyp/RLy8yTsjXWXETyW4OH4UT478i5SiX2McRWEdJEaRAjZxyLqudU/SPjLKApwARxcTsAVC7ss+qKGjXhuxGepgLjLo3alY6BqzMAjzQmig/DMLt66ZnQ0miatB+Rr2RIPNFezWK/8zYHv73hBxWjcDNEYZlRw6L/oZ2SxxZJu5o7oYiy+sBEiSiCRwNRrmz4JPhWKuqRiwUNk719334rrEBjA1snbl7TP9z6rpf5zFanEBQgBkAJ4xg0L2xCQKeOFtfwvwV0voJGxmU7RGth6VKG+rtd8+8vXsUb7hd0DqKGtyhZQyAOwoKc/9roPf1mqxwD7H7z7xswrgY+kNuP0BpOREbSqgaB7vJgms0ynmYh8vDI4rm5MW4/lLdx00A5ZB85Dz8nmeoeKBBLOUYjR/PBBDIcHid8X1ziViY62/2QPdW5xwIRBgAmItUqESsIO5l1FpYELABUUnYx6BHJSeNb23SyOU79R7k2LVRs5s+Q4wt5L5AJkYHVSM6bJCEEtiX2Is5XaQkC7FI34ngqSznEAm5tyC0SbuAzBA6Rriu1GmCWOIWphCRbJSwZBRJBA8tTIFkmrSvViEoCpVYr3Kvk9udR+xY8eLqkcDTZvi20MlwA9RI41XDhsa4Nxsm1gqTS1npWxuG2KaokrpP3jG2RUVo7zPhY01dyACPSVsd0B+OR4aB73M3Mv28bAKE7so2Mnar9eGLMs62f4JhED/2HeAf5KwF+BSCJSY7mc3b/pLSTs16RTaTNLRtkX7sUsp4YzZudCVnnSn7t1NcDlZUTe+rYq0O8C4PIZGo1PWh2xiuCDTHzpp8OHLWxEEGKkoS9ZpPQkxoNtZUmuPg/J0hlYXBic61vEESosbujGCblYK+7H/qeXCwwdIBqCWvnNK7crK3iOY/S/WDEgRYHAW9/hlCNTw7Z14ZuGkD3DPamWEGzH/MNzKJUvbDpY0/Ot7VPXA9qjcNtnXVPxJuvWLpA0gm15n32vmHzo971Fx4AoN9sYHPBjsfp0rMWF76pEnj62yEzQuipl1d1MhnW9Z0QrEQ+lB0T3R4CipAOhSDOicUu/vPe+18tark5Xhd1CXpLxoK1b2JuIGIzYarsH7q6o2CL7dMOiUkCFeZGkXKS+YiIX12KXbWTJ3kExgljAlKiELphaqXkMbUp4OVBIbjBAYP4KY+9jJlU4pNvJazwZ11RJuio0q9mEmE/kEwZIJ5IaAF3YBW+IgzaQBJAHMhSoDKTXqhXCt7AsKgCI0LVbWPCX9R/3QQ7fJAiVXMzb4hQvgjMQBVa7Fv9aKsuwA7YPnkzYqSUALPatgeAaBb9dF1lBVOjZ3Od+620IPjpKiQP1lfqpqnISgUpA/t0G5VGZr1R8GT1fo/gaDTYitEZUV/cvNf7V4ikecdZSM4gnY2sCahgsRzBJQ0VhjcQt1oBcV+UNQ7M2IgJLvKe5sWTYre3wN2Nk/a4cVtzcAllBhRGzKWuori1LpH4BY15y3xfWvtrfBZ0OEQrVyGwXa7ZLenn0dmuxukBxeiUVeC7tBN4v/2nlbNEJubtaNM+OaxPPLeAFx9dEE3VUJfrOF/mf81DAD02RQCOBwvD65Zwox1HcMOiU1QER7gKA9bZ97TIizzymio9trUGQyzmevH7myIpEhucQJypDcQ4aP4xoDDw07ECqOStjegGEjp/hu/ikn4riQjXXSGiBWtNhqSP9Qy+uvuwMedLmrAaYlExfmmPisMlg5ZcQnUe/e4w0rsO5vyvFeKEfAgy5U2d/9G8co4gtlFQNBLNgqvH81nfd+3/1g/kfj8/jeVSMzswqFRZnFSQUa2NbEQsEOoUdO7yyrD+3vwzwpKVqSmwGFZACXAcqB4r8sdaoNVe+h/D449MkZJJCqpEqoVLtCB4KhoJBfzoA5KZ+z0U9YH75hyAdCpp/PFY7WC+RQ70rZE4VcEHk1TYVamo5e6Dqq1H3JLGooBsWcsqDAe6elTeMKXk0odkLgbuQAaWzFiiXivmTgdFzKlH9+Eg391s/6c+tQu3qRThpFUJUwTGoQ5V1H8RnbB7DttfgORMxdwT2gppiBAxfFfz19bMgUTW77pxK1jVGw49q0+oyARKiWYdODPQNXzN9i8CRpkAb9EbZvWSAJDRti9Lq4nqxWAFMWFXxGdCt5yw+XMsiHGzxPZrEJpwc1pH9pICsJMagYiXDW6RSShaky2n6vlCR7791rmzh4pPyIx18M7oW58UPqG+owkwvkj3K5V3Xfz6sw3OK8eu7FVLACqQ8oVA5GEymPkoiOhDcCQUiHCgFRRBaWM+sQDee/WB+nMPvg+I1iC5lfq8nGt1jscGKjhi1TbhQWyvWtZj0KCNaX3CWHGvfde7Ur51uvfMbhrzLzT5b2z5/T8PA7hCBzHUIhi1xfdTSentnPPtxlo/lRY2WRp094cTytas1ftFDvcpRIcphCwmFti9/nDi+UBsxPlf83ePVV1y2V0FBZdcR33xnjOASNZWa6XCk3csS8HKq8V5+3f5GtRA6efiv4j9OdU0SSess/BVM/1EYAKo9E0nBk84j1emIHVEd8JMQFQzd8aTOVs+S3EX3AFhgmtX+YridWeRLAeGCpA7UffuaoBDFA0v9RUIcdAtSqxVmEsB4ezdHxtTJodGF0vZuE0LehAg/aurWe7UfwNb7mtUf5viQM+ja4i6WHArnPSA2iQfAR8UNqiAQjBYm1vk2UGEGRp6xz9n7U7XtpogmGBE6/DabyLHAWGnY9yLypcoSjNp4q/ydFlnANV9bZa6oarD6FJOC5dxxKxEbN2K8EGGvAg8Z378KWsfhe+nfKHyJU70XcUybEDUQTloJDKXA+u/3Af8X6348BMSYd3x2ReIo76hy1GeoWMs0Aw7ohvSgnVH7LswbukoWf6xZ17P0LF9lbdtufPaXaG+1+RZgk4HAFY6MemYR7khEwNUNtXVdD1o52Nu7XNEDIhsER72rtcdzVOOhQ6uP2Gs94V7KnU6cUMBgPgVMWHOH63xMjL02b3Vp4hkKCl1HplQnLoHL3CixXM5+4Wp1VKSMnwUnPYy6Tg/qf0fM/vE5UMtyWe2larFS1BdSza58eFWAN9iZOChGGOFHGGHJd4MpxxXzYvWp3nb3ZdYDNv7leHvBwLQITe1FkwTRuNlWbzUgRQW4KEzSNVdnW8g1d+H3LwEZNklRCmXBxKcwBtLAFd7N/j0qkZGGoNNYsX3hIS0jAGgqQPK6lMrJlmgoRC3bzrkKy2oZqJo2NeLMnTSBH0MLob2T1l7VcBPUJV2bnZfI15X9/VwqKNbmbXzjrXS19YAFwB1vGmlK3EARQO2fZ3H2T9UMhHMFs+KhRGRDqu5MU6QwAJJyHnLYlyp/F42jS7x6gTHSwC6654x0X1R8dHptOlY0IoY1ZsDonvtPxqwlF8BuqGmyUQPRgvhCg1ek/l7a/+aWuByBYgEtLZvUfpoj3vi1/X2aeIkbo0xpZiiKRPCWbFEo4qtaYUXWc/xlxgRq9r+gu1S30dYIi3LFEu/8zKqUKn4BrXZyZxdGXQStg7vrIoiwDpjD4+MvWBrIkKMUGq0DzcnFhbpy5EgStUwWKeSCuolNXJrVCBfJeR9Y9UUDtmlmrZ3x2N71eNGrpBP6G0N/aCgaqFPWvIeSwVxoYqpHSeGIKlUN/btOHjkhO32XaTHtm3mCHNiG6WqgBggJ5rQmlBKLZDqGn0ZEkUWMvEGzFq66+FQmoTRICvnK/6RTdiDbsupZgTBp8ERtD5oAElTxx/GT7In6d0QbcRc7jIiJb0TEnDCXuIdEAx5t1ZBysBfdV7QZrf6DFrbS1bXgAECk1Et9SVSdc/teZSgzYP9xFgwVlqYaw8/U9+w5WRMCnmXEp5cCrn5EWLfEuqvMVy5cFrPvErhv6Lpxa8zNda+1HQcINo4N6lyL1QHVtTka5XB2Obu/oir2inAZwQ1LFCScLV/2lnWAx405U5zNDp13a9Mh+EUsaRGcLKQUnk01kgPK51r8TrL3S1A13LEyvGH2HO4B9lsC/rfU39CDgVpV4FwwFU9J+JrvxbUp2UC+qlezFSgkVIDXyHU7IbFU3aIm1q570ZKbB6glgs/ZvK7lFp0sj0E5JhbIVNBkE8CHIoD2esPUXUpsrE3RpmJu0Z+xjyBz5zhJShIP4OT40VZcm7LUOdS4hTjUh7SERQJ7dN525l044k2vRL5SeD2lkQHpKW9VxZ/rb6fhguALzI8YL1B89UKxgi3HC2gGXDNIYCUSgRC0pr5EbkN+GsMFbwQbISsoK6QWAOGFX+owzqSVNcYIyvCMbKwB0tTPR/i54vTxQbPAII5WBTA6Mg1RlZUy+xIOAPpVnlzz6+aWWwjYEAHhPkC279lNQoRzKqiqk5pUpkV3SR1+gTTxoBOytTAEALyASN7HjKDB1wweJQMlwg6V3tMc6SaZmPUpgOhJmJlD49qlToNFu3kXBU1faFUhGSBkdkrtJthFkcOcYrkJjhbZkkjCCdgBHRKGsoksCVCraWkFBFXahd8u2AidsyoIMY3IuK2o+Q4ioKZH5di81xJde+fSGZJ2CGRoOzTaaHDxT1g63ypcApfNv9T3s7L/fX76uxisPlVNuok4MzjvrARA8it+gJhQQI2s4YqCumUAbzN4AJ4xClzVzlibm6GN5JIugUXofRCL1ueZ/0yuGjQNprFRAq7UVisQkyv7JUfA4hn700IICE8L3DK0Xru0ZVstF0WJxm6aES8uOk2KUrJGY5/PpGHLr6SNuAjtBINYAROUWVVO6dBxKHu04LejFHk7eXoH52da96M+nxoXP6LL6UKvTygIg/30LCC2Wa3SBnE6gyU7G9xnC7fAeZwSPZRbEV2dTAajJOo7wqXCGePaQiilB92v4p39O9awX7WStsk+SRHHW/UBBTDHjoBWDxiodgAkZkJSrdEtRhTSIXrYMWDJzvSw2Fi07SVokPkTVHtExnZmetHb+xyILqlLXQAeVAvRNjlzstvnHkKbVRKUmkoT/iF61ogh1n5hnNdgZ1TaptXlJEXzsNp9nBQ9oQv2xfy6TmHmeC4v+xzJJSBp7UWYEZYWjCZ0i3fBU1EgqGn3do782j5ZUImI7k4Gz0HEnU/ILVYawsLtQJZszVzw1VYP9FvOX2S8g2kV2oU5VoyZeHL92vyu5Xjx7KTB7c9HQKo0csfdXRaqqicNlQyYAJWAMM5FmwMVMku4Rwhw2iboXABWgIj9m6p1dT6yMqCzFnDl9CN8dP1xhikXPp2d6wIAKi3RZajM5mzJDlMflQaRDERnFRIshgsqruuEyFyAJtoKWlDDIfSszVyXMAVU13sWjSnYvnw3OEXoRizdpoUIUaeyZWpfWmIoodihTP/BwPXvrQRPp1/Qz5uyGwMY9CegmxytqzgAJBqrhUarsyC83Mkf1I2bSZ2Rt04bBdFdgVchjc6TEmr6bOkTqoQ/P4NYpEW0gu+UkxDh5gWsghWSssr4xHI811NoEf5Ye4CboSb0ucqZkXLQs9/TH6p6DPNg4OpDedcXLHHRu8jRHT63ug1sWA0/3NXrp3B+QgYX44pzf3jxT0IfRmFAJKJHop41fUFeEqksmnXu3Dq3yi0z10Cg0kSH+0w2iGkQygCYeTgyaVrHHfU5u/fSL0RQP+t7OUpZ5BldwL1ML3nA1VM5GI0kY1kbIKDnUXfmyCWcUOieLHMoYsUshjasW6Hh0O5e1Wtp+UdnuY4DLdS180FiBy4ljh9hXnrus48krTQuhmUDqK4yFDWvS1HsE8aHwT+a3K09w5cD1QuPEzzCOKcirR9iylD4KJUwXu3cV6PrJ8u99EMeXmmTeD/7VF7NjnwUtPN+q6w0KMT7KHyNVUdwxOduLCRgI6zI2cnNQR8KC2CtGzBfwaETdpV1HGignNBcfAIQvQhfCVYMzaL2WZdx5G32uFWtT9EC1D//GYRAiIZEkMzolv60f8WQ0XGHU6ajMOdzvkvbrEM5c3YQqSrzS529OFoIfZ8EATQP+diiSzZKmjZRNpu32ZmBFkC9dsCtt1rErRR9GP/TOwkrkiD086SI9nLZRVK1igdDIJDUSTRWHyumBqmniC3sXRzzEbLYjZ9CvV61rtJgR2AVv6HvG351LkfgPUKXZVm9RR+n59iq7mPUJNUB29XjqtXjqsNQsYpUrktVfRx3qtSekNNYYNSbIyOaQsAqUVvcPQtaWmbOyiFkI0c3pvodVtqC3WgO0jH39CRg1x1jfbeIF6bwHlbTRgdGrbwowXca/k7BC1ymuZ/81Mqw0Xp/rJglnwJw1ZJbXvO+mQPtzpCKULU8pKdWSZQArKjIBF/ErAOyrJSofLX516otkAkYfozyg8CJuPAe7SDBtAViMoHwz/ioKm23VwdqJNKrN4Q0gJcKEkBcb7UGNKnF6PDXP647/knd+kWCl3j+a/i4BzMotsjxVNeGq70PNCeApqiR86ZCtksnVQCETXOayObcbg5I8HDsCOUZHOupEfApFWLDOokmYN5am7cKyGF9MCWuAG0PjW+NMGfl78loLTVy4IOPNbWt/R33CUWaispIvJ8OkbG2AJa9wu3VC1+3yWAH7FCHIhXUOAeqczlnmXxZ4g4wiaTVM3Qo3G7/igr+EmWRSpLfrlQl4Haf9YYNk8DHCEN2LFdcUtuucPZgC6aj3+7q5ehCZNfF74VqY7sXqGzG5nIW6mrXhWZ4ksXGa9toW1aOl5TPy9pN8PRXE49G3Qe/uSIdgArRoXAaXH/zkLyq41dxX3obqBCom62Gm49Qkon2Rp1XCVc5YRWiWg6OblSKqdy99AZxrU19aKHCTDHLWg6IWJe1HM4iK5IqKZoJqkCTDkABLCDsZM4Y4rjfIQmB/pUa1BWEs7DXuD1D/5/d32rf8PbJPUaO4T4kxuDEiBPqy+VtjPgJ1rvweboS3nQd1EDZPxYUJyp5ZuXiC8m+6Sfzch2Ko/J2iYfTuFNsh1NU1uZynSx12tZC7iibsX3ZkgUok5uVp/Ktv6cjl1bGCpV47sZNAn7O+xKYS9zHgPdvb/JQhxXNnaGt5EPs7n0Yqily8cyIFWF6nAzzOHV0ljIrMSU3ch3CZJbcIlubuyIp18GRqHWzbrvSAQMy5TQr8Jdcpx7Juj7Xbjr2lb+egcmfwUbFmtPnmvH8axu1go+e8XLAXgOCfaMfcigaQy0PCgZtGtDS52g6unQGW2zmzejApUiBoiklIlrsp67nLWZtqTU10JDS4CAFaznlaIKbgVQl1zqHheLccANFCtU+rbVvO86QqoOArnGm7qrMKL/wlxTAcFDdcL7pdFB20+f0i4LITq/1ziogBLA6zcjVlSr0g0+olPkam6/9Nzz5y3ySb3t87dS3hLSxvo0PywT/p4BcoRiSKWV+fHd8K26JisMSh/HuDEvHrRTV3KOUxZ0vzL1wjj/iqqIQWVGsX3xSr7XBQMlms9bmcjlsLcTq0FKi3XzvnQ6Eaz1HV7MpBJnnUTZqhuiT2a/G5d/+yOAJMcaCUZUa2Cf21g7OFFkqGfWR8n+XpYXJOh+f3Jx0JHIMVXtAEtr1Or3uwka3Ww98n2Dq2nS3KwYUgGxXICkUYcZxjCFuADwpeG0oyexHbtW+YnBzoHqUM0o24Cw+Q/LFuTgpWHQmHRMDcdXvprAEHxDv6gftzTuvM66J5KnkBWgoCFJqpDqncsUasXy/6LgpFg8DlFAFQlVTCO73FJhYqnjZAAqqRAXXJVNHZfvTfgn5EotLFCoSe4Y5nIyfhQ8/Px4Cgt0U5Q+PbRbjxRJ6B2FwASBtGgQv6vvjuWEVeU2tw9ed+RpJ7bxuc+0mW56F6hez8p9a7LE2oKEdweZA3VTNlC64iIKs3sY4PKgeHMEe65DCaNSsepvOeiXWi/p3E08/MYrMNzILgVlrWzLUMJIMrsqKnLUWHPNWoPmX1m/d1L2TOb61OfsFQEW4JDYJ5MxREIMz8fQ6wOEdmSoVw8kQ3tfl6VFN76cmuuVpkpw7Y8EF4XaczbSpStNbvJEzCi479TrlnaH6Qegf71Nad6gI29dSAHEDGlF9ZHLkaUl4pNfPe8fGddFj6lOkrhurh84ZPnHQWBtdWH3qPzzkNNmBzN3+OcnoscPEFR59cFr6YRGuk6R6LJiJ1Q5XGBArzlGu3yXyVTzSIKgpboLwb8UErqKXVaogrbtx7ZpjadXvA4H3Jqmh8gRnmHN2JSyroZeKQ0tecwqIFDKhYuudyVx4IYEJZcJQ9b/kte9g0TtCQFyegUO2bOkMFNYIToNW04QzrjGuxlzQBcYuy+47V7ViHdv7bGszPkiiibgPw00Oh4JdkPw/OLDqrAci13G6V6RLt8O9fCDOT2lIgi0mDEFsivQQUa885CPLn4Do3FIALoGWMs5vbk/4+hiZbAKGrP7WRdcOvP01b3CrnBONpSYdfespfuCFX5wqVTx0K4QlKiu7esIBtYMJctKgFxi8MvA4mV2L1xCTuCGwDqgfXLzlz5JbFLZuvuSz6CUgs53ZXY7Fqr4ZkiHeS1awuNcEewf62mOMnJoQHk83w1XsrehNhcGo9/9HHLOtp380us80hR4zcApVy3MQ7sqa7SSa5GnuiCiRFTQW2UowEUF0Vcm30iLSxO9CePOdKE6UVEt8AE2KLH0QK8sN7nLPYxm0f0d/xYDGv7OmyLMCmiPQcSYJaAl5qtlimga6PBcIyj01KOUwjdf0bpUe91NcdxhOG6iGCZMwMQChmu+i6q7gnqN9hC9Ljz5g7HPeJ1VpBbVrE6KNrAFpAOyKKBh50n4z2gf5FB2M81i1KBhuKxrbik8hkeWLR4gibwIzUTBo4sAOfb8AcCjIS+fpg7ji4zrg8GgjvqrxqBHsV1N8xIdVt1EgJTQAvDkTcSFCq70GPvRzog/7bOgemXLoLuqSkMQ6ijADc4JIFd1uOl+0fFufmV8ydkSR6dEAwFOXFAlU87mYRUYdR3K/MzOB09sfoBsKnCghLKizFgH5RZORbk9MN6YmDI5uj4H3b4/rbur6w31Y4UKNZS8LodlFw0UTJo2JFKicsbWAEH9pZfk6lCtgWG0tm92C1jvS0vGT0j8h+VnJPZdG68Z5+VdiXTgKAyup2R+qYmCQFRhFLgeuDmFU9gmsD6o+rjSnXR9IxU4Q8udDs8d9CYpzGOUOUWMFpCpG9A41Acv1EaRPHygYwbEB1Ae27qlgB3CFMEuYXs00odP5YshlgD5qRV01PYdhS+RTA2+J5141qj8yPBHqDjU0RaQuHf4gZIdm3e/f/KYpKmB8yBJxIiLOUki9I4/dghWov/ygKzg0eua+QIIY0bw61iNSV3jwROpz5oozAPGUe2aoovMMOFM6eSfvHhDGM/Zd40iD6elIgGo8kZgYgUoq16lG8534QaMPIVeWrjgNJIiqbpP3yJYOX2kf2kiC1KvN7dBCW7CI8wu9B5OijbUDdVc6pFYaMZVOCQ2osepd6J1wHIBuCDUBA/SL9P6r/zmB0m2NtREvYdav1UUGF4HCpOxgnTjg9SFjvallEZ7HbZD5IhSykpXwsoEKXpBHRVLpYAVPqUS3lJkSKs9kXfxgKF8IxnMKMi1dcnv4rEKf32rPx0VYXGzwvArKZgTxwR4Lx/3zIIN0/AiaADkbSqdcymrAUqgNQIGqvM3HXfOHkdNMkQ5BdhqGsmcNo7V8a6JdE72npiKMyHAIe7QUNSuMMlQoVkyIPG5VVuCRZispSZeChhfwj25eSBydtlnOm654IuluAJodTfAjHXr1xgg5Op8TcktECxA0FQpSudsRXDOviDWKzYvTTSfnBY2xDIDNQ2MppaJ0rpUZZZW4qUGVG1QMoFB+cfWpG74l9wipi1VtgZkAHPwbaK8XOQ+f9eQexVhC2A6ffOG8lehiutB3/GXoEMYnTse4dDoGjw9YjcJ4VAP8/v9z0n5Nd8zUYwC8N2PA4BGds2UWEugFDe2zIc880EWAhJjEeCLv2Td1hrAgr/1GmrE03Oxevsr5CUkX7HZEU7aH0UacroFJIoiQiElt0J0BNxTORrttirdlCI4m6ljVujRz/n+ErqCbIctiI5gy4XJlK0TmmN5NCajXHVCHFsBANDROuXClAYhQaDe5gSBFhBNORgqAoSAKWEWNAnhKj6LmiG0jb9qpe7/g2LVGczR3JB0IhsFQMATELohYbgZl3qn3bXqwMQLTa6S5/AeYLk5H7xXeFXvpmh+q6mtt85OxUZ4b6rL/CoE7gNYVPlBBPA5byJo/0Ab3KBlF98HqJima2Q1gwVy/swUOOeECcybtmeT/ZCNtvS5p8XpzVzd82+jBhdqQAc7UpUr3USbi2og+rIF4wIJrbo+W2PNuIYwLupdSF1TNRA+TGyJmGFHYRKxWtXqy2Q/YxrTo0MneSgnucLD6wFL2CHo7DCxspG/O4qp8/el9YFxFXTm9WPNZULzvRdjStECdPAkxMY+4oZZ8rIXmkYD8FGHX2OVP2ClS0SX2TJLijtFWKKO1l05nXhxTAHppO1W3W9gJu6g8tyyNG5TZ7O4zX3Iuu/bPyOfTDCBU9wjtcfzIJ9SVTMPazpv2HvyD2NsyTPV0KcJg9qZyf+8HXedlzH6J4l7Ry9S6/1NbXh7i4n3lv/9FjwofHH+y/tjiJxeuvdXPTX2csyFnnvp/ERaqsaqhKs1IxADageuGhjZ1mcaPibvJ60X6Z4FAxuJLpOHtVbZQrtJ+4mnk6SeL9R6QtCUwoEaxrQufXe0yMTMp7WZA3SVUoHT4qwLKUALa7OmLl8/qvJCssmJ59oEFPqD3DYm1HdLgLLwkPdpiFncctQ/7YTRI29itrFTBNYfb0YExrV6sRfzq0fhOCWOor6EeqzrkplnKzCoLyvOY/2UoI9EUVyr7UXTpsQYRJ40Ok5wntCI1IsC38/fvTnQlvjA59MgcXOnC7R7Xw56qDDOKl9sHeoIrhDqyx9PhMWQtUDAo+0J08grJMqALOITYJ2lXTEAgwJJjqCYssR8Pa95r6JH7k/XgHGGrlebJePam6YPh3HJu5kHMOft9jlpIdYmdwlj3aDW+nKOfcb909vKTOv1cuevnS/1SI9Wo+HMECdv3E91J4bmiy0Vz7JpcMbc4wUzGJUqWx7voR2Gdbyyao73eiO21zVZaDhceIziuHiE98Yer9ZOMjLcRXDE4PXwAeuFNVQCVpq6gis416KK74Uh/y9/+bOiinTVeQy6PL2iOPouKTGW8PUqdoNmencuuZy1Qe7UYDJ8jyy9AhTot9ofebnsfwcVcFT29BJbLBfk+v9JPv+C1MN3wlvqwHCyh7VpUaNTACgANulaKls5eSxWNctVQYCNzE7QONbJNAidflmtyZqieoeFXr5PU5gOZ8sWHzSSfUCEZFqFcZxV7ZH9msN7aFCcLff8ssRJfZ6+kp7R9S6SjpLzSh3OjfzrqrxlrM9Zay06vzbvjyiIhjTWQAlqaItNjhAbL8dL+GtL+JPT0c9eeJlYsQNRZKjehAvRv3rs71DcMp+0DAxo4XhTOP24FXaYwLSnezy7CamwtZw2h5vFCFTAs12d6nF/UWQ0YSz4ER370xkT4o7vFciLCnqA0kTjFEUcdRj+sbVZ2kywNrl9PRCYSNdXFaabLZ7BsG+gBPWgNJt01rM91ti6Pw0kyZESQy7+7vQDDBV28GBNzxYAjinNX1eIUJvmtrympPFJ3wJ0U+2SErC3lrZDZVuP488UC+Ry2c24I9eZYAkByfZXFpmEGqxxRKQ4wQHA3KjBkxy/YyHBtABM5BTxwspZCdO5WnoWk54DWpK1nymvSMJ8ked3uFrrZSMvvmmssDo1zTNTuHWbtFMZiQ2mjI/mJJGuMoXMiB0zkTC7pnhQ55S0pAITN5aYDhLQJSyPR/rojTR73O/1jiKljbGlR7U4NDU6vgMOEb6JsSAIqgYp5VThLK6dNoNRJpWFPa9dUqnq1jXUha/3T9pYEk9ypAWbO6sKUP1RqcwjSHYtDXhu7+rAOAFoAAkkCDHx0l5mP8A9mJUaJVKAxIZmH8Jx+E5Qw9MrTbN5aYJMakKaYPrYB6HDjjWywN45CvTXGGDFCpM3/+e+DhdPZbGerAhC22q+q+iWcxFpTSmkipa3UZv4xCVR6GksuofrQodLIMoDPwsJ6husTKdkJAFhcE4uzpD6KEbuABDVG4ZH+z7b/iODoMcjP/d73LFLjHKENamA1KGbNygFk7Z0vxA69ctCSKRVRvzWASG2qaoyR7NqXBkV0nlgus3EBQj2owKDlB8CWQ+HkkWFJTGnGhCXiHEbswUmZxLSDTOFuR6e0AAN//vSOKY2yn8sJ2di0ByqO/QimMZPRKGqQP4Z/3xOxAiWllgAKFU7pB6gTaROGMTSjiEB7Pg92HzZDtwwvcKE4lof0Yzq+PsZg1GFVSfXePMOO5QcyL76gEgxeurJF5Lx+Oh5GIgZMHJiNAAwjEROR10dWDaKiMI/TFgkhdnMsk4rJLao5X1Gr7Y3sFOpuS/Eu+IbIeu0QxTryHpBgcXps0mfkLHfzmz44lwMrn1m/NkC0/4HcRpnZf85W8SOgRe302GJ4aFdUStTgQ0oZBsI+sAq9G8sXBwW+qoWutdjxaiKnjN7ABnUIlZApLCrGCWJFxSX6UJsySt03oi1/J+Wiu+hTGBWRBqPijJITqRkPgUTKTiQFowDOW2uzLYdNVU3nqOjBinZ+NAg/BLK3QGWs4f2qavztmwoheEp3ayv7sXvkWt7IcgmDusBih7UkEllXQiVQA1VVTaMCC9ENrmI8UAlsJpmgNx1Hl9MOOeNGdBLIrnPkbTX/oOpr0n9ozWAgR8TFIR3UN/JVpauNXBJGzuazc5SZkdXOQjnalHWivKIBFCgec4wHd8JnsWvA1hYYzpMpYh+UmrDVESbcbBUXugCQZROpQCQ2GNoTze4sCaTJsF56Ij27XCkAN+pog352AG44NwutdnKnbzXuB/hebXTOwZg+SUnNIYRpvGyT2xhT+gq2HYzb3WZ+Ri07QHJ1ITqSkwwMxpgtwUAhQjQhYmAzIYFCC45NsCUI7G/+mb3J2d3RCDtkISCN2IBuzEitYs6alRAmqEMDAzgZ6y/V2CMmYuqtY9WaAiCm0TJUMy6yBnyS9wM0DcVZylIel2CyUCWMemDVM/8c/y2LB9TRIgUzIEHto7hk7qSSYiTHpVjR1yP71GfGxxoaK0ACOyM3w2tFBlIbT4DmnGArGFPDlaClOBIDCj174zxgmx8wKdpnJAIEbHNHsz+rGKwOEUInIRJwI1cIsywegne4fZyoOz6B54Aq5/5uUD+K2dhLrSffFfTNv34wP725P4bYtpcCUwHXJN79IQoaU+Z9i6/wfnkPIbR+s76aEf55yGanTudYuIe8DH6RHyPxdI9zq8//4K/f7oY7xRpbJNSROosZODDo64pdq3La/+AWXM3FamvV1wTgX5urreYFuXGHsQ44a3UkVqvcZZSl2cK09xCIkEOr8Cn+kh5yM3CpUqLy52PCHafYWTmb7bCwo+lnlvMmw8P1qCB09O/WAfNtRqTKn8UsCltodJVWz8gjJO3/DxUrBgKRNgNbGxMQqtqxRYvMqax2j34d7tH9Ax+wD7UKLIEtjAOWpNm4zflS8Fr/6FGeGCuGdobybAssOwDGS4BSezGw0tYX1q7N+xzmdChgdtZaa4lNw1CN1278AcoU4P+rKQfM8ilSK4n1HzCCylnvqi1RCMT5eRYliMKcwCgf6/sX7I51PqInBqOrZmdskVIjcpYsQHYyVC2+zfFNDl2EfXeoajj24WQl7EPvlit+aZqrTsXJjwGYpIrqw/DWkH7CW4/J054cRPv77lIMB1SPEAwIocempvKKJFoZoozRLvqYoOkfkkGY0m8qtJFiyUc88AURsnkCK3Oqpn/k798/880mGOd2bIEYsQvYgPjfp+gmet+kIUoOxsMcdJmRyK7dIVWbfZWYz6TDZ+xMA8a21R9gqO0msU2nW5ShSy9EBMNPwaWeno0LnZHoObwCMQQyMDSU2qkKJjdVhVNqzbf9bDd7ANugJC0HcAElp9hP+FmGqoRGUjC2DPNUfNVGQsa49Yc9ATYbgLYWVgMwo9vHHzs3RW4/VLZxu60klpu2Ik06YdyYxved8pKBiTwf9xcitGGA6pkQFVaq1ApHRCatW7L6SCm7/Lrwu2+PD059/1e23KVsHmhx8Y0ccrabCsGBdPPWM++uz89d9iiNxhZtshC4KpU3m8jxgXTqy5UEktVWoUCDLEOdmse9nJnJwJ4bHv5Um8gxTRkurXTRRTgdPObCAc6Uv7mAvtVfOHfUgsOJgETBVLZoRxQig2Wp/7M9dEtiq4Gwno5efiOYSp9xThWrqu1+23fWAVArNU5nQQNMP8Ojn0jcUygiUiuMLeC72aGSAzdQO0TWGvtl+DtAwLptJSQlqpKb1z732qm6DQ8XGBQtEQE7o0ahiyyB8Re0eDmWPur1oibbuvikszaw8TYQmkpwRuLJ6uszrTO+7Ym8etxZgzHMgMFKDZwbZHX+ZCxdzKlK81YVlkWrB28dgZJZ42ebfjVzqvixhW1ZwM722WOhcGIM0ATOtlfLaHA4RofZNPHGxbJTbtuMVUOXuO3utkPASvCVY9WQxFsnlKXw0RzXxk6/6C4Ca49SoCAbO9KH8zhwr6a57YhMxzjyPSD2qsYLHxjJQnGgiZA7YGeJ9ALYezWlW8md6rUHkuYx2NrYAvVhKAKjgj1CMSbRQN5fhK1w8PbTd18toUOjXcBdJraZqiSg0R4+UJLDKQacsSvWVwCBNFYjpU+QpAMzuTYexaUNVBWoApJ0UnOSzFpGDlLdG9MylriApaYk3DT84Pu8EcJU0vQUbfrsYtUm+sKbN+/kOEKGVJUQcmOM4SW7oFrckmwCmlgLsR2xcuXVuLFOJ09ljDc3nQyv/tfr1UszdFBgFIWF85XWJEgl6c3nmrgtDP05v8xQ+gctAhtPPNnTu1xF40zbs6CWrt2DEhh39I0UAbKn3vzqIS9E4/0K5sHsvoTAbKphaBZVicy4f84Qxh7BLuG2WFsWEhlJqqXWXRUIQRUoAUkhM7jv5qlQCWljUIPTaG9ctnQXw09aDwkL6dReyAbNAjOp6daBXoZZSIBPDC0GyQOpcTjRlFq+QhrvHGxehDrPNzL8m+0/ZelOPsNeIUtpfOTEYA5WbfaJHxEvymfuEHXHi+fMIhfP9ezBazZoN6HwUbntD9fKPMT74I1jC8FV0WHeap8OGcCLfT4r+f4S+ylMQa6CQGmGXWwtj/SyFt1oK5zfwbx/ewh9nPBwiGUDofym4VQL7bxD3IRrIL4lPU6B4GobptEQ8ywpyUNqSDUIR6KBZdOxe8GQl9QxxyFRm+nLDuPgqQtccYFeHhDuonmlBkSGh9Svc0Qad2q5ayjPqGfYMDUMhurBvX0jxXmOxPMR9+forDyPfvSNIAw0hO+n3gSUPxgc3be1UVftFxAfG8YWaNAcxROdc4q7+d/A631gvQ+81C5AegUUQIbhrAU2LM6g8fgnMRtQohj08cQkKAGCK2rAwXdtb3fe+/kt9FjKn1U/kKsDZStTatkgmMTw0dQB07rBCGhDhsJ9ubcWBmUIgbVRgKy+MbYBu9fa5rVa/vXQn5y5PqnTv2eE0m3escIstpfmj5PkWZ5ZXg7WGtEHdblSlFaC6NN1NhKhXW6bgsYW3qPasQ4YM6jcrzyse2fIU8Pke/GpWXsZNFpZbkYBwZzfRgk44jXITjETT4Cldavsytn4OaLPioZKjFa2Fnsr3mox8n0xFLLnriue4/R7AicPAETlmmCF8Jw2DC/fSv5V/jcuYpES9OlzCiPEEWE4gEMdM40ai54FXA4B1aDuULsawHK8ndfZAIYjdRBpjAHGLjjrl5qXXIcmQ8i9webceEqmbnlp62LZ9Hzm1YlgqYMSwDmRFu8pFqK5Eg+Jcrx86As/PeSrz4PGivQgjFYJzbVh7S1owaOdwNXtUD1jyUmpW/cN74BknH7okyswQK/gQlSvuf9CjtqUDTxs0hp3JJe7YTn79OsBU1Lq0UVaCwdrV9lVZ0gjZUU7v5PvTGZ2jAE4GnLBcnKFd+/YG6sV9Ypdtb1iPZ7D3tG2HsuTd52iZ2hswvkdBVPxgk8AOnGr4WoL47iCXPb752/6lxfmIg5ygNRhbcVX7WWM4FymhdoHf8CfYefNR++mr8IdhACQQ5JbcFAgz+WKuZWM/ieRw+JOXDKG5g3hGKtYcKfLT6RgXwsBPQC20E4UNDzbmD7AvtZNmvjmGKOJSWcBgW2vszVCNERek/TMssKpnyMI35dTIcEPSLWUBJQI4M2niWPxKBv9VJeC2fHzPu7v3yu+ozdpON4auC0KNlRfAWAyc9g5DI+PNujBhKINI/MAawFOBR3WYRBhCsBI88JeRvm/RlwRbgo1dUOfe8GjAyKI9kfzBRw1r+8N4kSkxXKT4D8RJkBi+CgDkvxBa/AsracKuhJoIYwt6hLrqCFSd9D2l93VZyfRqTivkd1878GOmfP+peYEHD716mvHgwnnd7AcRGxMvw83KO7qcQ771T5D7J+b6OUOX7j8EeElaf9gSkfas+ArRqgHXieCGwJyjKxyDSUUESicqJEtPYXgWg/MZa2baNtXZOPZP4lCVdqo5xefjHOTABP/5tgpQk8yF21ofYy0ABWRAZtbR6bjjsISZvST3PvJwbUyjDU5sIiLRihPu7fqtSa5WZ6OvWbvd8x/FB7mGyCIZ/CZsuH01TQcRqneCs/wvtKxSmFeqY+RfwD47ysAu7m08yhtLGymjnbK1l9tF4cYBBCalRLHoY7/PotATocqF/64nNLopYjASj5mcV8Tisb+X+dBN7INuaMwt7F45k18Wblk2ryO0sjF7aOOPavP2pzN3gGM/2QYlSpP6PqlB1RFO4Jsc4zB0ZyL8fqiUVQXDC1HKDhZ986FX9Wq5OJeqM53RpWqnsCkSDNmTBJRCBK0AuG4wtdzz88V/eOTbQeg/eVUoKszhXaA96XXgOIrpFrTAlo72R4n60Q1faw/9F9a5Z380R3iHkWtd7FyEmNv7a3iHj1t5BAVqRpLUCuAwau+xWnfOz1DGCEwHehkeFovWtba/CHJXqYZBtLLDVC/pBBqFiTGFlQkqnfZ4mo9xkqtpA7Ig/nxSxTDcalQKwZX2wJdQUpkOHFta0tbblI2ylT/7ne9o8SrKlX65wr/YUE6Nv6VQ3tAQtNvNUyEgtZfjaQWwds8Qw2GEiKC0Le+C4ZaOqQKuqkZtLwk1oiAK9ZaiaDYocWvvlLIFEjKhW770M1Z1+C/ulRCYEbZGwmwRfq/xO51C5SkUCa0h7Gmn2s4RFnB4uohDoD+bYMh7Ce2/6u274aVy5R9qRCAAQjVfGZa16RUYaIZQ53y4pPs94tN/b0E2wGrwxnyOsK3/NlyYq7juL0N3gILINhSZ5wKr1XmCmgPkI55Rl51rrGorYoaoKL4+DSnoiJKaUjma97Vn42zhsM0HFsce6Ya+JfCdPUiQwgB1xNoWWmBUgEXS2BfDJMfqlLPqNaPOUysEQDi/Fqwp0HxJC7XWz17YTUvcRmHZS35kJz5jULDrS004AAUSjdiY7VaPRgp4cj9/+rcBRT9y876cwBxTg4n6DdEi8FA6oQPWVBFazqyr6yxr7VDisMUWtzDkxprVREUMhFj3iH9BfFsfTc7mEPdJ+0Pp18o3LqwgV1p+gBWSQaQKOKx3gOwqN+lOpEeG3U3TnutBAS++hi0HHnbD4kn/g7ioY4lbgPAfoldM3YnH1XxioHn/NHa+tQpN0QaY8iFElTz0RmiFTVQ4aqnlWRDQ5Ff1MS/8MOCy2PZ8V4eE/jmbrq3bDKaerG8ln+W/0BTvFwalyoLZe6BS44Pwe/INvpnSXM+TKihf+II/OCeyk+0fCYQgEmnik6gglppUBOfjy004mFdzT3ErZFWg5VeGzDedDI0CIwYgKzdkH7fkH2Jz4tR6uMEv+4hsGmw4WpsGpWemosz5CS3lWv1qXL7CMYWFCP+AKw07jJEHaElYwbJgCEO6kL3wuAO95WVO9z78t+Qe2nBXy+ebxtjy0DDs3MV5VQ9V96wEV603NbidnFfCvjhvXz58bHTzKTEmgRQ/U3JDXD4xb5iI1pog+t7Yw2BozSwlMc+8LU83C53/yWhf6+j7h7Yhej4+IQon+pHq5u3HsP4wZBsDZEg4qUOABWbt4cMEP/+gq4nDNtPWgLXmjGom7sYlVUL++6a/Wo+AowJGvNbY6SjrJ9MrUW4BsT4idNAL9MtoO6z56Hdi83P538WsxlqNIbkv40l1nCwYwy0WPWQKr/TzywEIIp1sBFAUJixT2LfG+69Sg8Pcj/o3cQW+ES4BL5CHfyRchqqregNLEy2CyiC90reln+Hy3T5WKECPw/ytHgojwjJGNj9fzYfn74v1UihjaFAawIReK2QLLWkFFHiC4CO9AqdxBRkSTanIMwxuKwgoNwJMY6rmNMtGgyp98nD4rbWnytJs7Zcsuhq3UL/Xpp8HW7oOy1AkEwCgM6Y8LRvYkEzmQ49tEg19SQxGmPYlVgeB9DKVkoti0o4CirFCs0NyujLEn8vX9nW93AH04GOO4w7Y9HUH4YKL3lb2Pt5FAlvFiQQ2XCSMtijcXuVPxDvnzRivzrF0/RaKu6MmqQuwaQR3ltVzw81Ihk9dlB24DXVLqwLplyf6oJicyckOIsDmC0sSa1U8r0qHbmK0LVQ6Bvqi7KFSociMc26CV5hPQZhDyytwSz2DuTFa8YXo4qUljyuMAt8WJaChfsNaHIoE1rLxhgId9SodDc2CjEQVasiWe4w/+WrnwBrN5KHfI7uR+V0D9zAkSok8PYB0uMhvwVs5VMiuf6H4FEYHgudXRal8RdP2/3RUr9Pye/2LxtUf3HgBTSCI39xFQaiGE1ipaBJW6deQ2/XPr2SgxE4BDCqQeMuXoC5njMADHKm3qCxFwPLatDavcVZf5LK45S86rfYgpmze+4OerUloT+sQZp4lP1Ge9hdCeZSXYK7FEACoM+GT5sBM6qMMQK5MYkHAoBTxlf2fbZBQg8rdeUXdz8sFlAW2hvtzfjK/xrhgwFQvml4cvoG6sLUIIANHrs2xrd3Kar5i5j8r/nl5P+BkK9CvfsDL/GOb0tu4FA5/CvZo9L+7I7xgLfnsFsz/howJXUGAw3ZnK9y4rOjYkJ7fDHIbnkIQBJ40yUSkgWWaxHp9ZOELXrJPJUjOZhlGRp9yB2lEOFVuxvNlvZ0Icp52lE52WOlCYVImiXvsO3XKJckLWl0wxgDQtQYMX1AI3kzV1678vfZdMLoL0/fmQXwQXnLsg/zAjnANhWtEwOO0FTlTamAOeDDApL3O9tlKPmDNvEX+6b/gy/Uh4fSG8HxLm4Vjd1fd4BN5Q0qQhUG+PRkuPZgEhazVNf+giCp2kxgqqMimC1LjIb7jjyWuHSQAl8dMCSs+aBr9KioebZC59qyBGPyYpVSqVkq0uci8dFl1AEdlWidGdYq2rFQEFHbItI9ppdvCi94JYUIWYflQ1E61kBXFcOkV3YDb+G2FM2xTLL0q4VEdC1PVQSqroLXwle29OXjmEO2PeSY0gU0x5aytcEjexPS4dBupOEHfbsLz999Yq8/qHgSnP/Qe94KK6lNccVCuHUkBBKBL3/OWT0m0QGPiYIgRLGJgKAbRrc37J1U8dXAC1XUzeYKxcEXwR2jvS++9OJfiZi1YadGRZ1VQYvNtmmU4YY9HfTrY9wfm94M8r6UPTQGx74rCUB873khFMgzmMwkRsu2SWFuzOG5vjlo+VDICpNIOYQz6UQ5vxyUC9eSlYgcO/hNl89uegl7/PXZJxfw7RrRJdcssm2xAeN9NvkKtnvyX+smh1cupP4DzifoN12L0J2IiTRVy1vHDscok5tjDZ0MBzGi9dqpr0hABezB9a4I9wpT6GB0WsMHfC4Nqy5F9zA3I/4Hw4P31m+WTZ5hCbZWR+Vn4WdMJWkE7Wikqym7V3vKygNJ7yWpFwJH5nYmjAI6vbVpQTcc2mEpiSBxbTLNMcbtnhQlUg2v/eP8LG77LMGwAO4PJiW/Fa74wjlUEemuT/oq/+Nzv575j23WxydjB61vruGeoaaEqzkP3vcvkM/dMhdVFNZcAjvBLaM/hGfBo36CTqVoSERUCBOOkS8v+Aoh7GqbIJRB/QIs5/R5Bac2wkpqaieSGPwvyUDaGrRTh+VokXCQn3eKOSbHOVT7vO1nYl1ow7//EA+Xwl3OqoyO9xN4pg1m9pa4+XUvwdBh68WxRrB3YMxpxxNkgsKUA05/L1TSrRO8fDgYgiGFqiUsfDHeNWfT7YtMbFjsbJv/678deLj+gGm6ZkUyvXW19t+/n48dVMGOgBCmuCUnYEAUqfE4o7v0kQaxNl3mwBJL9paRc9pq5XJ3DWjUDQON0+4TVQLV9zx/GYOzlAA4+wZd/jlvZ5DZi93HaC74OS1yTes15Kve2ejdI37wXvsmTTNGXNJCAZbp8Oexwl803vpKPiekGcaeupiU7RfKTSf0/vgEez4P3DwoFhmWG8OaCP0HBgUqSO6iYi+9ktfo6x7/OMT7kBGvq7Cw3Pqkhc5YGZ+g88OQoeoFmgFTRCG4TLXKD7odrPCM/YupkrFtR+CrYaUxQTmUZ6aVhUPd/mxwjn86x/6Ss0zAW/L5CADd4exfseu9+Kc7mzBlQW/uxsTP4Kcf0v6hv7vLNqfe8d7nn8ObnPmv1XSV7O0G55RsJPauxZvfagIzkL9MvUT5p6Pfen+XUuPuoAZ48iHaVkcifdhjDKrUmQv0hVxKz+ZRoZJaBKR3HvSM+Ffc+nb0pVMLRbc4p7jP5y8b5Zy8BNcf80vEPjzN6V2igambTl7Y8Bfl3zxA+USroKhqdqxTlNVwUILM0R8aem61VeR2vs04mU4asoXAcW6QdOgfIAMiPaFdrWlkuE7HJ3U3TfsPM4T2foRBXo3aqenc1mJRfgKqDcTWONmsGwvrJaOju/Quq5S7EPc4/fsIMva532QUALpIhcySr+kU3FH99hxQrwcmHPfqL3OEvwuSRBZpbAHJ2kfyC/7Df1lhIrpicXog9hD8xMJbrlEwp0Wx1qCuGlAgPBruClen8nQ+lBnFpGfT2WXTnzhf7oAvCKjViP3V4Bnm5n3S3QX2T82brW2/613qR0RFhjqkUSK+GrDue5si6uWw6HbaVIQ78BPrEQuh5RAAsXCtIwCJphlRDbetZmB95wz23aaexYkHfcPwoLwCobB3RprGovbxQePPthFHYLB0Y3NsYaQc7PkGOIA/d6fgBZo7jjg0IBgEnuFZiCWmfeu0YFoyeTtq7gKlZaSD4pJSHKGwEIDQ8Td5Gat7/hYxdEUqGpwaIp5qe3BwJmKCWYupWzqYnuyKDOKUVqeeYDsZOhjDykxqqFo6qj6p3i0/slgZZlPDEt1OnaVWNBKHhDGVUGFnLFWN504aMfnJmUOZkfYYxpiqWleAWtITKw1yMC2LPlsUGFERapBawMT33FzjD2Can2XZOsBwg1ptScL9Pa9SBAgCSGPKVhrtw5mU0GxG7VD78NbAW3vcEFp27GiEP4m3qkDW8Lbk8+kHpgAKA2gcBhQIP+gTYAVWwAIkC9RG5kHE/UX5T00uWZ6SPEzTlJss9sqvhPKPgoEPW4c2eoIxmR1rhJkUDa0HlBH5g4UtJLHCMCMFtjQnED13iAoO0WmvuJ5vwVsHAVAEkH59AAsQAUjb4TVGYLHggUkwSR3e0wpvsbDLyyFrWKSusQOJlY0nBo8Y9iWPOOTnY2ecvRqBU6OSeJq3GdSE2kmRAhz566xdzMpiTU0SvztkmhCJEpqwkPGkZitz6lSXGk/qWINOjEc9KgWEUPkU2USWpxdgeFjF9MWlgA3P8G675OYmRru2zNLbquJ4IgByrccjBKDKQ/e6r45h+282BtJAa3QHDr1FqADhtUY2MCLy8IAJNo1t1Ga5nDB8cTa/ARk8wh5MKEhYCqqwKjZ+NwCOgRqB5Uw+EQ+kcGbgDJQUmWqoiSW39S+sM8sUT+R1Hcj+i6NgxxY1UMjQaGZrCGU0batpQhJPH4YZJRshD6ZuefhJ8yMdDQf4UaxsZR66eTNUl8ACqUIFRloASGo6OyCMmG0G/+cVbW12P6i+gj0AUEywfaOfIsj8CyU2Rs4nTausuedPhWDOQisE8Y36IHfVwD7KvJbnwrzK5H/0UomKDwB1WQsMio72mFEhmWZ8wTU3IDLwUC3GmkFZPk24VKVwRvNAOlcwZzCAEUPICJqg5Km9R2kMXo5X7cfSGaBvBwopse4AKk7AcJ9c+2Fzo/AMRtCK9WC2BN5qAYd7vie+IoLkSJ+WvFO9k9jv+GTp+KUkAtZC4GkCq+IaLfyqC031EP3nh/WDFO0BcQLmwVWltHwrbP3v6snG0KfZv4RgLSljDJLI0qObh6BBCAmVCQk3E/4JTnoGlWEhM6UFRDawnwgMPo1UXNK1Hu8ZE75bkedDzVKASOhQZQPjDbxLuz0q8wwzHbS11VtsbWXVdbh5DybmGSYqNFdsxJlqMNSv58mtURVdTTO/4YwzXPdXgOrX7xT8OZfcgz4P63NiNyydSglBDszB8ZKU2WpEpoDKjLMAq7dj7Gn9v9BouelymdP1wq9JbwhGi2YYPDLE1oi6/HRATX4ZkVDZWROfHDw+I5dT5dlVPNtCqiY8HdDtsPYzArYi8qW1t4A4VUCgBNkNoSEtIK7wqHm00goy0RqvCVyabqhu9Kl9axZA5BjE6qsretLAKkENLUOVTUE7EAg8MAmh4yI2xAon8gNg7ZhjHMmg6tNhuSyowC//XXPl1b0RANsGAa758HwO/YLhlmzxUDopKhxPDq/6ojm03ABADfVY8M9eYrugJfu03dTXep2Pbxi48I0DSkkYH5eDnBCTIt1QhSAZQPqMEC1AM8PDXXZ6KW8PKg5HINQ1q/eyZ/9gyoP/3x8FkAoIGIOGDi1hyBJAJHvntOiG/oMzzAg9loUmu3B8dcyoQxGcOdTWfDqaD+lbYG+HJoA0oNIMUadztz2r9LQYqvX5+HVpZ/A6n0Xp3IbHER0e2OXFaSQbFskLUp26Jl64mPh5AomqmMhN3//D3n+pFovo7SkJBJs/R7aXe4tm84fgvEvINXsJiY3Kj4jtCs5JSrxKXxmdYWiqMv5CydgCepD2jZz3bLqiCl3VBq7E1vSh6JSWXBHXZuYAd56wQNLA1tjN9Rb1M/T2nnzppk+Az9z4Wxg8b9I38hv1ISiZ+3OP2Op8t2KNOhd/N6FXOjX9eRoP3PeBzXypAyaykJTrnFQPoS51nA6to1O3wtF9Bo/vsxJqRGhDrklxJYhiOHYh1UfhF10VHBYkg7qL5mKDEhXBAE8EXlWCCTfBASRVmxZ14RJ4jD1tdmRwK16IUi4trHg4fRmX3hVNljvGkchs9kPW+JHPu1ovZ83EQv2BD9d8oNnI3gTZh6i7yfK1oIu+pW/UaqfaWQUFzaiggLSQUsJHRWSr89GRasrEJ2pxWKdN6CL/t1ZL9esp7L/c/urfrGutmLLj9wRDg9IVbMAaUuIq1QMLhVSDV9JSo3BiFTkgMCblyg+FOFU9GCqfnkKfyha1I6yMM4Bpt1iUW8yOO2vK2KkD4UA4yrCPNEAbEgCQKqNsBY6tiNw//qgwmBdSIvhqly9d1lJoi85KhNd6HHBLknUkLKaXA6OAspxi/K9NeLPaJc0BOQeDm+QNUpOm9yBGpDgQuW4qvM94oIlygUoij7KxyB0GBfWBd3fcH+WDdCzAbPcOSoXGJJTEhM2f5LqCNo42Qf/kULaaWmBZPJulYZ41cSpUjdCGneCOW5ouIW2U6is4+uzVCOKTfeFnwuQ8EzN9ifDZQivAkrj0B8MdTR/Rh89LRcB28XXNzFVucE9C9jgyQ4AfkTbCtUJwXUPwDpF9M/uqqjZPN3KSkGmgsat17Ihn2VNYtzbfR0RXgMwObXgduvwzXCUN0/UAiEhJhnMbKATpCUZa/p7n23P2FrtK0gKdUx98EQ1Paxr4bdOFVnm5o3Bjdz5J7pXiSmzEkR89p0V9t97CJLQzHLDdtnQ1wuiIkRhwjn9OqmPcgvKfXbehkRD9My4+U1da++VkqHZxev70l4qYrmg/NnLboshIq2sK67IAgIQQ3Xa18O6vTEEOFIV7CgFv7bB0aO41TJCrH1U20Bcu0YbggZOQRZCxRwLBXrIcmqh3mSn9BF9YvtqzL50E+8D4itRqKPwcNOGAiEAKNfsG5igquoEIogKZrkPRg2HUuxrqLHnGUd0wZyqjm5Z+6OpAty/FRn0sPdhLKo+0iYQHUO0pq9gTAc1ogJUQagybJECAE6N4y97wF0f4p9w/EXvH6KjjmrLTn5sfmN/LFs7AJizhrFP/Bv4MfYEavi2pjjbQpGQ7ogUsJ6pDYBWaKUty9ovkGlXw96YmYHPQTrsa0947eJOBuqkke4PFrJCZmS9P3ztcxkYkD9CSD+VPlx5pSgqLxAU0AMYCta/qU0WkaatAOdkr1K3sLTas50DaWqJ8o5uBhVGmd+qv0irzUjaWu5WEU7BBvqgz4HJB4y9kOE6elAv0ERWmsRPGB/f9w0dbd5DB9+kHQxuV+nbvq3NZtBlY4wkJXCNqatrfFBNo6bJucHHlkKyuaEWjfWgFDJ+9vnC2plXLsJugJQ5ZyC/xVsLQYFdSYugsN2iaf3//TDh5UqB5gULTgwwrWSIqeprYCt4EO8A7Me2kFk6JsJo21BOuEWt7CcTKyIxD2hnEpC/7U/jE93XVOCES8EbowulKvsVHWWX+f7yOptLDabEIVrGMEQn3JBADiYRcBzgFh167Hn+VNsUtJkiHRrkrnrO2L7RtMmNSCk5jMSf4rFTTIYd+tQ3/UhEr7JC7zLowclLsyyipOdwAfqouAbV6h5aKKMGQx88IDyARB5Na3oYgaAJS2SSQhMdzuQxLJ+ri3Vekams8qnDvgW9cm82EwciMYEJo3fFhJ9ohOiTYp82KmAppHF70bL1kvbzoAe2eFAsO0wpglTm/NXLOcIDvpA4oAeLCSenOUJuKBn4ZBU3xUL/ejM+c2z6oLKHYacDjYFlYBSl7DRnPDFu7iszi7kiNcOYprirZ/oY2ftPlnqAejqGBFNJzisIRqhS4/wRvN3SUtcVbbD6bfcX91NF93z7BVfH1C493f36oe//J8bu+fQaQqmHSmpsttD/HaAie+et/ul+WvjAV4jG97fy03fxCPbH6cXFajHQl4VT7DuESn3iN6D6gR4oX7YvrsWgSbeJMSg6TX0znzv6OC+z7fj2Rr2f5DbPgIbzcyl+SOgr5o0Jm0A/7i/iOb9PzpU6Fn2V7JV/22P1akVQzOLIhQx4ceR+urgF+xGji53dx+qvluMAvg3xGhyjfG9hD/22Hrm+sPX5BEKtmN5ovTO16ciJlR2XpIebP1x4aYPu0VwkRt2snFwIz3vvAwtZKTF+CB/1SYo/EoWYDAzOmSvCFbCYfCHVRdS2Sc6vBdKqTiQCotPpZQEoJ73w5mxsHCoFHx7uDjrdAEhltlljuClJDtCZaekcsfHC0M9SGbqenERh91tfdiYC1uRbRP//PDxh83w/+fqjFEX727SuBXga7SXhrixvcOh+5SM5bGQDZDvfBBqALGoyZqgxWco3pSk3qQ7PTwChZKGGBbjqDlgm6XTrDs2dXQZWwCfDQVAOciYX/NS9f32TDkKogjDUAGKeZF8ota2xFlBXE712UsQy1CYILFZglOG+BACq7v3t9P7HCLTwyVXSbuZM7WoC3GtPZey4yFE4S20sHUW/xvWgdBkBJ2bmOEVkONVURutKHP26Q74i0Pa2wuuMiKXREpMdphayi1u2b5c/ZJREyICWib/gI8MI5KQY6jc6kcdq9A4axFp1HF1poCpA0+bqcw+GjqNrRYhVkRC5CYc28PjsP4NCk0ryLcdkOXfqEG4int9YaEH2lIx4EPb3/XT88VdjpXOnRMrHGDq+iyTXK550bInXVbX1YcunNqxaVujNtve6MbfU8RRL/auQeoTo08K8RwwXaa8JDNaRFswmCsG9miwUXPgOzXwiu2wo0/Pkm+PzmXpUdseMVVKfAb+QTeUfFpQo+zrYAgPeR3DcTKqhGsDMwK6z5i7opvoIusHYOGPcLZZNmWotm3fxGhJC6zkCW9s8AwcuY5q1pEqKFLICRWWG9MbanKYWbf6Ww43xwx2XPsPdpEbzUU7LFWB24+RklyrjZPB6hewA0/I9iAURtudPdwyk6oBY5rE7pPIxegtszoC4BqDc//SNXrLOBPDNK2+5ibhBfqV1rF+wPoAZDw8sSVU1FlTXjhlyreWEABTUIEZKensJfgncuNfrDNsay05atMBgkHzjiAbGjDO+Ct3APuIR0nfWpnlWA5Btpiq3SfUtEWpnPtd9sJlIpm+mal0PxPDF6J3iMX2T13aoqZLPcJPnqKcBGCehpfQKbWcfWsVmSH+NY7XXtOLsKROBdzZXiKzgjsphsKNvBip07ERVDDHgqd7D7hnBsvc0JMpTD+q1UoVmRovVsdeZ7IQkDt6NlF112Yilq0lQCd9FNdIMDHVsImZXGaUYARvENP4vX8MVX0WXWqgmOQG71AkyJRzOEmk2w5862B8A9onvAoaAK5eRmozZcIlL3/fIt85rwTX9Mn/Kel0DTNELFcjpvSzl7y+JKW4tvLixVmy3JORuAZooDN1QlNxpHYgq9TAZWRNM58TTcwsvRdwxIkJZCm9oZQMwdNLBwvEV30y2qV/000t2Oqxph/dTjNZxnl0+ROO/n//YIdEwQAkksLVli72b7XQoqnb0rqTNvG4w0m/jjpT5d1R4whxGNjgdobLEjCXmgUyEOO68Ub+lNI92srvSjPkJ3xW8zpAI7B8B7owF/oYB+RgXOICb34hlG9kmQbWdOQHutUUSnqKlD/emc3RXAff7eJPVD3Sz7SLoTUgptTUKFAYIG00bElKDX4KlWMAG0vI2Xrijr7hTyNk1kwZKlLIPRaAp1oN6u9c0VqwB104Kxyygk87ZEb/G1Xem5oow1QjCscZvjtAsV7fA0JtfubfFVXHsonBYCBGk5jRdNH2A2I/RaWWk+cGaGDnbakWaS7vwBxhp4rEaATAc4bekj3qMovv1Y2gRVO2hDSIPzVoEksEoVi+qx3HR3OQoHHH8hzpHOjR5S16pOQagFAI6xMpNXo9bNP3AXHEATbKDunLyFMruFSLMlx+pwEEgu+Q6tIAS2s6pzXOeY8TXo9X6E7opuGSQbMOOpgY3QYwc9OzYsuEspJ7JpOEmmU9HJ0qETfUbCVGIY6MjRQ+Dxubyc8oFItZ+YINJpBYLHlrbxBKeVirrt4gOwUjvl8Ap/RKAqKJozBcLUAbRpHmEV4yRHvQjoCigHW7S48HCAmfsK3aIvlhBTOdp6V3OpPJkjkTuP8UOEursvdWyrvcnSWtFeuVtRj9ab1nBuGThVbHI/kk+dvszyKH568Xz8yYCJETI3EbIxiC7N/U8rrHp4fmz98G1k9ydm9OMu10vza9a8cfDKy483krYsxTOy5zUPQpt+yMc6Nb0x9/qK+tfbe2pdedmv9NcoubiI7ccrQopeaPwZ+vuPKsbbX8sdIXOlLt/Lt78XHxxVDvWifKhQ9PWjXJY772h9fVND16uwrtz7p3MHw02nWxk31SErzgSwA0s2Of+Ch5BY6ipEwWs4JLSspzBF3Lm9tsfVM90KYeai+Sy9zUAKs/x0eUfsHcRYkwdhgcB9IU3/CTVEalUrPugv/gTZdB0fZ9SYVvHQgNDMHTSLjCZ1E+imKcYZDlCdcKLZF05JjNWw24mrg5j1DThprxw9HJ8AcEDVtODVaOvxp/SDDuxk4ON6T/K6cXDO+Cot0By/EqfCbDJb7r9AtS38PBiTuqiQgNj5SZuIIGotiu0QWF203cU+y6Iq1DuSTGq6Uw5NBWQ6EHZ32L/KHjJ9hsJWVVRHJEezFW+FIWL7qLdWJ1cLXcCrj7aq8XP7F8TKKqoXuzqjtXJrAob3AMBvOfpe/nyGSLfCLWpC2ObwVhrGp9NTQ5eUimSWExHTjbrPDD4CCsDaLHXqsCIowNjC6QDrdtMN3HwHJgSyVoCshUeKVI29h/ioYkAuXi2ka7c8XnoIQIdz8UqlRJS3FKBcWdkzEKpeQTLCobXIUDG42l0KNb5oR93Y+V/qvyZ38U+PAPQsGs/6CALB+uqqjSi92L5M9hYLwiJVTjsawmriP8DdqVz6sRWJyLWZb0aJxFj+p3Eu35qW/y0R9PcNYDIP20SuaixewsKZLi6HNTsFJlIpq3XGUNP8Jplz0cRHsyxsUiNcKWBUIvHHvI9PILTySi1rIURLoafqT4WvDn8CXVtWC5AmS2d/W+liZdieFgCwlX+ob96EItj5RPgnq6dZKb5S4uB8+z9vnlS57hlYcZU765Z9IPpjLNJGgxiunw4mJ8X8XoUPzuW7iubij7oavkOcMycDKTJdW3QTtLm5PvQvABHVfzekbhbhMgviGTBhqNRskJZ2cWFO08UMyJDWHS0FR+IN/p6dpznw/Cf+eLSpDevBAogJe1hHl5h+F963Eo1K9BX7XrTlMcgTtGHx4jGJ9BmF6RxARP+gPXeQHOispzarcMwP4TOUIQ0YIbR4upc0Iq9TEWpna+tHqwucHNNHlL0xQkxo/5k/TdfdLQIPbYk4trXEcgpAB9uFIDvzgpYZ1H29WCKZMTbw7vBrO7f2zb5eD+r/QB9FqQIvoriUmdjA0ZagbL41AA3iKwWjuLcgUrY34IYg8fYmZvhnwfA6ToamOqhTUsTSDCEcRZhdH7L8yIQk9Aj/q6iV/VwduwTTR3oIoGbXMVXh3pFiuLrB/lH0d/+oM4HoH5AKmw05Lq0r3Nbt3WLXPQhcums+IqQjDeG4kgVVqLjJ3fm1d3/jxn50waskhfXXr/hJbRp/UC3LPN4KBAhgntgENgF6LGjNTowKn+u5pkrgzBnqCcxUBXHmzYCMvxsWFMQdSj3IBxpTEKKORLAB/iRiYmboJf9gZJ8vNTFkxBqaoG4BEQ9V1JwXqpoj25RIQyDNN4ShOfIqhb0k5IRAsBhZ0gU3oLTSbSI3POBzJkuxQr/AgVsDYbCSMq+SaRB9pTDjIu6oNRPBihECflwNvOmzTWAWEFBFQVPSY3ujGVBLlYAk3JNpliTDHIGim38Q6JgbFrXemXnARqAEJbQTHB3deVai8R8YCLyErfioasIm96ztajYpfPY/iuSX/027Ja82+4Ak1pGZ+7JZ1cq3+xVp68vIjdQy0/Pr9UhiKT/P0Op54wdUgx4tAlKSr+ShVFjeWDYDG52kyJPT+cHZ9CFDyGZ1CvXqpR3q/KYgyPsA/0eoePwaDIhDt7wzDjWF9wCo+A5tjnN8SrThGgERLv8XO8gddgnhG0ltK96oxBh3aDKTjPME8KQ0zcfwSyEa/dtYkQYr0b8aAJ3skJyr/zXm/IDdxJ4vDvea3huK3d9WyDK8NdtlRUia0X1t6uV1B+MCgyGdPtfbK/AZiVdjV2a463kK+xGoaNQoFJLxWTvBMBek1Lb0Yt0xF4meMMe0pKftuyTEavXyjLth6v9NExEAgELxknBBIVUf/H1Z4yjgSemnODXvEG8EnH1YxRoXYznwon6LqhWu5t0cl6vye51DtgrS0lorF/mZPTISi7AeR88Tf08/nP11tmY2vYjim2g4Y8syJage0vSQc2pi0w9vefnPfzb+4bd3jb//sXlswvepRx4WCC/bm7dv164rdPvCltLsD83lQ6U9q282Ow2/LQQihvA20+fY2NcAP2uH+k3dis/WtyUSpKngHjSxeLa05dv0E+67Z2LP5tWb2EDmjjtvAhosS8wzhGxVq5Pn0L+E7bVcfNINOx/wxNdl+2kZejCJbhYzW5svLzun5lzZ5tKVS7TD3EcFUUgToEutm35tNIU/jCde77ZftMal48pLDbt226Ctsf2QmWXoMqxLg++x/W20/2+6urDTm/a/zQcfvGKOnZLhkLUBKQErD0ESTUGIJ7TGby7wkEQGUyBmLBpFxMoENLUM+p/1oaKIFRKiF2klGD91n3G0+PwIIdChEUrL5vd1nYwrBK0aOpRqNIUGg6eUpjQOfLRboDhCD+b4ZMuQ0z8bY8D4RmM5koEDyfilt7XAqc7Q6kGUzGyljlnxnQC2bmFqPFx2ltrUYLbmKDcp14cb29f4lJLtxgDZ0QbEaQe2CCBGfLQzXthBPkoMB45Edlr9Ea3lJJCl82ttBWddcL8ZC0iTW9dCuQJI4YOEmWVFXqYy0xW+ah2pOq0FxrQvziDPYfQHF8/4uQ8r/JdKCOCj7cQ+OG5EKh50Na4kxGVgWXz+a2YFyHJa5mmaJXW3FjG4twK1AMxf3nbb4GrLDoNpPQKOvkgotwdHfv3p2/IBxpuXMc5O8dRqzmnxtR92XSpmC/X7VGOV0C0aeRliaA/awrqpkCqvVRm8ps6lOn7BnkcEupNDVTmg1HX2/tPe2h5pnrn8bnLQd9Ags0zpA15nc03BRwqtBhUof4+DwuLpFnl66c5sp7BEbEedRkEOUA4bn70hh/n/8xEYwb3+zP1nLltOZ0f3gUWDdRHz/+HlU7Z2fCqys3YfEnlP4+p/vcOAkj1FAo4+kuWjaM9lP4GxiZSGIbsz6+sL11stlPRXsFKWwo0org9etFWPklOo8tgDhDMyTdNtbasB74pIFUZEZB0JIZ1w4ZYik6L4SGa1D4YcjtQq3/5R/5dndk6cdW2fZwi+u8LrXpaDx2UXKHMfOgwkwiI4JNm62x/cikdM3wSJvGhq8wH3Mmj51IzOTVv4kX/91w7kzCZ6ydR0u/yIce1j57I1yotfPDH7CyMIGUJaEdNL1ibLVCwqhXVMbQO/Kad26BERLeWMb/SdaUFzy3Q4BIC1QHey8wHSETJdVv3gO8nNmVs89BEgb5qiHY+fZjvizz4h9l7+GAy8LFgZg8+6c0ewd7VV2gS3DGUVkEyoCyFxhBOJDkfbabnzbHzmswRwTEY2tjLe51G6GR8vdma8t7HlKB3IGV99Q0scdWmfMvEetjO+9lpWhWo12Facs7PNqw+7lrcXlCsQXW9bTuIv/7QfYd7inp9M93jqF8lVQqra0F1EkkBu6+ApZRUfxAHG300BIgCgGhL4SLttIjXdD/Fy7ImKH3hFx50d8RrjSGHduJT8rV+8Nkb6J+MwC7RgypxPE9gMaS64zMflR5fSY0mDNY1B2t++/wPrT0q0yiu0nzz9pYxlgT1gqL7kivyhDxtM/x1//C2Dx7f1t/xowu9l2e97ehMalNIgl4a1k/lhkAtt87Cwk/7KLxyDUxIupuE3Ckh4HYL7xsXvFFefEZFjaol2IHu29PqQ//JURLVB4tqVlyh5pKpTL+QQlsMyG/eQzvf8wtoECLLue2e+Qj1MvX3j4VgLehj+m3vd6Tt6k970sVTuOj+1GGWaSaGUqunIAl0KK97I9uIrSxvmjln6vFvZdD/cuUtvyOfG42Fzt1lO/wr8yzZ/ljlrYR5OvnfvHpcj7o0DAA==;" vertex="1" parent="1">
          <mxGeometry x="870" y="381.5" width="109" height="97" as="geometry" />
        </mxCell>
        <mxCell id="wEEEaIK4-nnLEYhBBC7e-42" value="&lt;font color=&quot;#0000ff&quot;&gt;Cronica con FEVI ↓&lt;/font&gt;" style="text;html=1;strokeColor=none;fillColor=none;align=center;verticalAlign=middle;whiteSpace=wrap;rounded=0;fontFamily=Verdana;fontSize=22;fontStyle=1;fontColor=#990000;" vertex="1" parent="1">
          <mxGeometry x="190" y="600" width="140" height="30" as="geometry" />
        </mxCell>
        <mxCell id="wEEEaIK4-nnLEYhBBC7e-44" value="&lt;font color=&quot;#0000ff&quot;&gt;Cronica con FEVI Normal&lt;/font&gt;" style="text;html=1;strokeColor=none;fillColor=none;align=center;verticalAlign=middle;whiteSpace=wrap;rounded=0;fontFamily=Verdana;fontSize=22;fontStyle=1;fontColor=#990000;" vertex="1" parent="1">
          <mxGeometry x="655" y="550" width="220" height="130" as="geometry" />
        </mxCell>
        <mxCell id="wEEEaIK4-nnLEYhBBC7e-46" value="&lt;h1&gt;&lt;span style=&quot;background-color: initial; font-size: 17px;&quot;&gt;Causa&lt;/span&gt;&lt;/h1&gt;&lt;h1&gt;&lt;span style=&quot;font-size: 12px; font-weight: 400;&quot;&gt;Tipico de Viejitos con hipertension cronica.&lt;/span&gt;&lt;/h1&gt;&lt;div&gt;&lt;span style=&quot;font-size: 12px; font-weight: 400;&quot;&gt;El ventriculo se hipertrofia tanto que no es capaz de acumular sangre dentro&lt;/span&gt;&lt;/div&gt;" style="text;html=1;strokeColor=none;fillColor=none;spacing=5;spacingTop=0;whiteSpace=wrap;overflow=hidden;rounded=0;" vertex="1" parent="1">
          <mxGeometry x="566" y="630" width="309" height="150" as="geometry" />
        </mxCell>
        <mxCell id="wEEEaIK4-nnLEYhBBC7e-47" value="" style="line;strokeWidth=4;direction=south;html=1;perimeter=backbonePerimeter;points=[];outlineConnect=0;" vertex="1" parent="1">
          <mxGeometry x="490" y="650" width="10" height="440" as="geometry" />
        </mxCell>
        <mxCell id="wEEEaIK4-nnLEYhBBC7e-50" value="" style="edgeStyle=orthogonalEdgeStyle;rounded=0;orthogonalLoop=1;jettySize=auto;html=1;" edge="1" parent="1" source="wEEEaIK4-nnLEYhBBC7e-48" target="wEEEaIK4-nnLEYhBBC7e-49">
          <mxGeometry relative="1" as="geometry" />
        </mxCell>
        <mxCell id="wEEEaIK4-nnLEYhBBC7e-53" value="" style="edgeStyle=orthogonalEdgeStyle;rounded=0;orthogonalLoop=1;jettySize=auto;html=1;" edge="1" parent="1" source="wEEEaIK4-nnLEYhBBC7e-48" target="wEEEaIK4-nnLEYhBBC7e-52">
          <mxGeometry relative="1" as="geometry" />
        </mxCell>
        <mxCell id="wEEEaIK4-nnLEYhBBC7e-48" value="Tratamiento" style="rounded=1;whiteSpace=wrap;html=1;fillColor=#dae8fc;gradientColor=#7ea6e0;strokeColor=#6c8ebf;" vertex="1" parent="1">
          <mxGeometry x="710" y="810" width="120" height="30" as="geometry" />
        </mxCell>
        <mxCell id="wEEEaIK4-nnLEYhBBC7e-55" style="edgeStyle=orthogonalEdgeStyle;rounded=0;orthogonalLoop=1;jettySize=auto;html=1;" edge="1" parent="1" source="wEEEaIK4-nnLEYhBBC7e-49">
          <mxGeometry relative="1" as="geometry">
            <mxPoint x="650" y="1010" as="targetPoint" />
          </mxGeometry>
        </mxCell>
        <mxCell id="wEEEaIK4-nnLEYhBBC7e-49" value="&lt;div style=&quot;text-align: center;&quot;&gt;&lt;span style=&quot;background-color: initial;&quot;&gt;&amp;nbsp;Cuidado&lt;/span&gt;&lt;/div&gt;Vasodilatadores&lt;br&gt;Diureticos" style="whiteSpace=wrap;html=1;rounded=1;align=left;spacingLeft=5;fillColor=#FF6666;" vertex="1" parent="1">
          <mxGeometry x="590" y="910" width="120" height="60" as="geometry" />
        </mxCell>
        <mxCell id="wEEEaIK4-nnLEYhBBC7e-59" style="edgeStyle=orthogonalEdgeStyle;rounded=0;orthogonalLoop=1;jettySize=auto;html=1;entryX=0.575;entryY=-0.167;entryDx=0;entryDy=0;entryPerimeter=0;" edge="1" parent="1" source="wEEEaIK4-nnLEYhBBC7e-52" target="wEEEaIK4-nnLEYhBBC7e-57">
          <mxGeometry relative="1" as="geometry" />
        </mxCell>
        <mxCell id="wEEEaIK4-nnLEYhBBC7e-52" value="Beta Bloq&lt;br&gt;Ca Antagonistas&lt;br&gt;Digoxina" style="whiteSpace=wrap;html=1;rounded=1;align=left;spacingLeft=5;fillColor=#66CC00;" vertex="1" parent="1">
          <mxGeometry x="830" y="910" width="120" height="60" as="geometry" />
        </mxCell>
        <mxCell id="wEEEaIK4-nnLEYhBBC7e-58" value="" style="edgeStyle=orthogonalEdgeStyle;rounded=0;orthogonalLoop=1;jettySize=auto;html=1;" edge="1" parent="1" source="wEEEaIK4-nnLEYhBBC7e-54" target="wEEEaIK4-nnLEYhBBC7e-57">
          <mxGeometry relative="1" as="geometry" />
        </mxCell>
        <mxCell id="wEEEaIK4-nnLEYhBBC7e-54" value="No es contraindicacion solo es que hay que ser cautelosos" style="text;html=1;strokeColor=none;fillColor=none;align=center;verticalAlign=middle;whiteSpace=wrap;rounded=0;" vertex="1" parent="1">
          <mxGeometry x="582.5" y="1020" width="135" height="30" as="geometry" />
        </mxCell>
        <mxCell id="wEEEaIK4-nnLEYhBBC7e-57" value="&lt;b&gt;Nada sirve para aumentar supervivencia&lt;/b&gt;" style="text;html=1;strokeColor=none;fillColor=none;align=center;verticalAlign=middle;whiteSpace=wrap;rounded=0;" vertex="1" parent="1">
          <mxGeometry x="797.5" y="1020" width="162.5" height="30" as="geometry" />
        </mxCell>
        <mxCell id="wEEEaIK4-nnLEYhBBC7e-60" value="&lt;div style=&quot;text-align: right;&quot;&gt;&lt;br&gt;&lt;/div&gt;&lt;ul style=&quot;font-size: 13px;&quot;&gt;&lt;li style=&quot;text-align: left; font-size: 13px;&quot;&gt;IC Aguda&lt;/li&gt;&lt;li style=&quot;text-align: left; font-size: 13px;&quot;&gt;BAV&lt;/li&gt;&lt;li style=&quot;text-align: left; font-size: 13px;&quot;&gt;Prinz Metal&lt;/li&gt;&lt;li style=&quot;text-align: left; font-size: 13px;&quot;&gt;Asma&lt;/li&gt;&lt;/ul&gt;" style="rhombus;whiteSpace=wrap;html=1;align=center;fillColor=#FF0000;rounded=1;fontColor=#FFFFFF;fontStyle=1;shape=rhombus;perimeter=rhombusPerimeter;verticalAlign=middle;strokeWidth=4;direction=west;fontSize=13;spacingLeft=-28;spacingBottom=0;spacingTop=-9;" vertex="1" parent="1">
          <mxGeometry x="300" y="680" width="190" height="130" as="geometry" />
        </mxCell>
        <mxCell id="wEEEaIK4-nnLEYhBBC7e-62" value="Contraindicado" style="text;html=1;strokeColor=#000000;fillColor=#FFFF00;align=center;verticalAlign=middle;whiteSpace=wrap;rounded=1;fontStyle=1;fontSize=12;labelBorderColor=none;strokeWidth=3;gradientColor=#ffd966;" vertex="1" parent="1">
          <mxGeometry x="347.5" y="695" width="95" height="20" as="geometry" />
        </mxCell>
      </root>
    </mxGraphModel>
  </diagram>
</mxfile>
